<svg width="48" height="48" viewBox="0 0 48 48" fill="none" xmlns="http://www.w3.org/2000/svg">
  <rect width="48" height="48" rx="10" fill="#00B159" />
  <g clip-path="url(#clip0)">
    <path
      d="M28.2657 36C27.2143 36 26.2003 35.4134 25.7119 34.4157L24.2984 31.769L23.4965 33.2996C23.4759 33.3389 23.4526 33.3767 23.4267 33.4126C22.9004 34.143 22.0345 34.4025 21.3935 34.4025C21.3883 34.4025 21.3831 34.4025 21.3779 34.4025C20.6615 34.3977 19.9481 34.0903 19.4208 33.5589C18.8731 33.0071 18.5716 32.2746 18.5716 31.4962V19.3576C18.5716 18.2504 19.1954 17.273 20.1995 16.8067C21.1941 16.3448 22.3312 16.4916 23.1747 17.1887L29.3504 21.7877C29.7656 22.0969 29.8516 22.6843 29.5424 23.0995C29.2331 23.5148 28.6458 23.6007 28.2305 23.2915L22.034 18.677C22.0187 18.6655 22.0037 18.6537 21.9891 18.6413C21.565 18.2832 21.1167 18.4482 20.9893 18.5073C20.862 18.5664 20.4467 18.8024 20.4467 19.3576V31.4962C20.4467 32.1003 20.944 32.5246 21.3904 32.5275C21.3918 32.5275 21.3933 32.5275 21.3947 32.5275C21.5771 32.5275 21.7777 32.4519 21.8776 32.3495L23.4601 29.3289C23.6212 29.0212 23.9394 28.8278 24.2867 28.8264C24.288 28.8264 24.2893 28.8264 24.2905 28.8264C24.6364 28.8264 24.9544 29.0169 25.1175 29.3223L27.3746 33.5483C27.3809 33.5603 27.387 33.5723 27.3929 33.5845C27.6179 34.0533 28.185 34.2573 28.6569 34.0389C28.8919 33.9302 29.0692 33.7361 29.1562 33.4924C29.2406 33.2561 29.2298 33.0022 29.1262 32.7747L26.8482 28.7211C26.6851 28.4308 26.6882 28.0758 26.8564 27.7884C27.0245 27.501 27.3325 27.3244 27.6655 27.3244H30.8797C31.4236 27.2966 31.6408 26.8682 31.6947 26.7366C31.75 26.6016 31.9003 26.1292 31.5121 25.7175C31.1569 25.3407 31.1743 24.7474 31.551 24.3922C31.9278 24.037 32.5211 24.0545 32.8763 24.4312C33.6455 25.2471 33.8577 26.4027 33.4299 27.4473C33.0044 28.486 32.0484 29.1571 30.9349 29.1987C30.9233 29.1992 30.9116 29.1994 30.8999 29.1994H29.2678L30.777 31.885C30.7862 31.9015 30.795 31.9183 30.8033 31.9353C31.1375 32.6246 31.1797 33.4016 30.922 34.1231C30.6643 34.8446 30.1395 35.4191 29.4441 35.7407C29.0634 35.9166 28.6618 35.9999 28.2657 36ZM19.6316 15.6817C20.0857 15.4327 20.2518 14.8629 20.0029 14.4089L19.206 12.9557C18.9571 12.5017 18.3873 12.3356 17.9332 12.5845C17.4792 12.8335 17.313 13.4033 17.562 13.8573L18.3589 15.3105C18.5294 15.6214 18.8504 15.7974 19.1817 15.7974C19.3341 15.7974 19.4887 15.7601 19.6316 15.6817ZM17.6491 17.8136C17.8567 17.3392 17.6403 16.7864 17.166 16.5789L15.666 15.9227C15.1916 15.7151 14.6388 15.9315 14.4313 16.4058C14.2238 16.8802 14.4401 17.433 14.9144 17.6405L16.4144 18.2968C16.5367 18.3503 16.6642 18.3756 16.7897 18.3756C17.1509 18.3756 17.4951 18.1656 17.6491 17.8136ZM23.4922 14.7811L24.0078 13.2343C24.1716 12.743 23.9061 12.2121 23.4149 12.0484C22.9239 11.8846 22.3927 12.1501 22.2291 12.6413L21.7134 14.1882C21.5497 14.6794 21.8151 15.2104 22.3064 15.3741C22.4047 15.4069 22.5046 15.4225 22.6029 15.4225C22.9954 15.4225 23.3613 15.174 23.4922 14.7811ZM25.9733 17.1599L27.239 16.2224C27.655 15.9142 27.7425 15.3271 27.4343 14.911C27.1261 14.495 26.5389 14.4076 26.1229 14.7157L24.8573 15.6532C24.4412 15.9614 24.3538 16.5485 24.6619 16.9646C24.8459 17.2129 25.1291 17.3442 25.416 17.3442C25.6099 17.3442 25.8056 17.2842 25.9733 17.1599ZM15.7322 22.4333L17.1384 21.8708C17.6192 21.6785 17.853 21.1329 17.6607 20.6522C17.4684 20.1714 16.9227 19.9376 16.4421 20.1299L15.0358 20.6924C14.5551 20.8847 14.3213 21.4303 14.5135 21.911C14.6602 22.2776 15.0122 22.5006 15.3843 22.5006C15.5002 22.5006 15.618 22.479 15.7322 22.4333Z"
      fill="white"
    />
  </g>
  <defs>
    <clipPath id="clip0">
      <rect width="24" height="24" fill="white" transform="translate(12 12)" />
    </clipPath>
  </defs>
</svg>
