<svg width="48" height="48" viewBox="0 0 48 48" fill="none" xmlns="http://www.w3.org/2000/svg">
  <rect width="48" height="48" rx="10" fill="#FBAF1D" />
  <g clip-path="url(#clip0)">
    <path
      d="M35.9062 26.0487C35.837 25.9727 35.7361 25.9335 35.6333 25.9335H34.5344L32.4474 19.1652C32.5146 19.1692 32.5807 19.1717 32.645 19.1717C33.135 19.1717 33.538 19.0505 33.8153 18.7474C34.3565 18.1557 34.4885 17.4321 34.1971 16.6547C34.0896 16.3678 33.9418 16.126 33.8225 15.9575C33.7663 15.8685 33.7002 15.7842 33.6246 15.7066C33.4973 15.5759 33.2935 15.5493 33.1472 15.6582C32.974 15.7873 32.9556 16.0332 33.0973 16.187C33.0985 16.1883 33.1557 16.2509 33.2322 16.3576C33.3627 16.5759 33.3819 16.8394 33.2708 17.0491C33.114 17.345 32.7386 17.4601 32.241 17.3647C31.8218 17.2845 31.276 16.9842 30.644 16.6364C29.371 15.9359 27.6953 15.0148 25.2927 14.7613C25.5276 14.4504 25.6534 14.0525 25.6117 13.6252C25.5358 12.8462 24.8967 12.2258 24.116 12.1711C23.1706 12.1048 22.3801 12.8553 22.3801 13.7868C22.3801 14.1526 22.5022 14.4904 22.7076 14.7619C21.7609 14.8626 20.8439 15.0761 19.936 15.4074C19.7479 15.4761 19.6545 15.6879 19.7287 15.8739L19.7287 15.8741C19.8003 16.0535 20.0016 16.1424 20.1831 16.0762C20.8382 15.8373 21.4982 15.6636 22.1721 15.5529C21.8976 15.8829 21.7109 16.2881 21.6473 16.7326C20.8117 16.8181 19.7464 17.1948 18.626 17.591C17.1002 18.1307 15.2011 18.8024 14.7106 18.2662C14.591 18.1356 14.4806 17.9715 14.4179 17.7728C14.6843 17.9939 15.148 18.2072 15.8929 18.0647C16.4228 17.9632 16.9863 17.6532 17.6996 17.2606C18.0035 17.0934 18.339 16.9087 18.702 16.7253C18.8748 16.638 18.9457 16.428 18.862 16.2534V16.2534C18.7755 16.0729 18.5574 15.9995 18.3788 16.0898C18.0061 16.2782 17.665 16.4659 17.3559 16.636C16.7239 16.9838 16.1779 17.2842 15.7588 17.3645C15.3002 17.4524 14.9377 17.3584 14.7642 17.1071C14.6187 16.8961 14.62 16.6035 14.7666 16.3588C14.8281 16.2731 14.8762 16.2167 14.8939 16.1966C14.8962 16.194 14.8985 16.1916 14.9008 16.1891C14.9022 16.1875 14.9037 16.1858 14.9051 16.1842C15.0558 16.0182 15.0213 15.7467 14.8081 15.6291C14.6664 15.551 14.4871 15.5861 14.3773 15.7049C14.3769 15.7054 14.3764 15.7059 14.3759 15.7064C14.2977 15.7864 14.2291 15.8734 14.1717 15.9653C13.9904 16.2224 13.7607 16.6256 13.6815 17.1006C13.5801 17.7076 13.7541 18.2771 14.1847 18.7474C14.462 19.0505 14.8648 19.1717 15.3549 19.1717C15.4192 19.1717 15.4853 19.1691 15.5525 19.1651L13.4656 25.9335H12.3667C12.2639 25.9335 12.163 25.9727 12.0938 26.0487C11.9842 26.1691 11.9709 26.3427 12.0522 26.4757C13.0554 28.1176 14.7977 29.0979 16.7128 29.0979C18.6279 29.0979 20.3702 28.1176 21.3733 26.4757C21.4547 26.3427 21.4414 26.1691 21.3318 26.0487C21.2626 25.9727 21.1617 25.9335 21.0589 25.9335H19.96L17.7171 18.6596C18.0904 18.5363 18.4748 18.4006 18.8636 18.263C19.8697 17.9071 20.905 17.5413 21.6532 17.4494C21.7738 18.1993 22.2463 18.8326 22.8955 19.1747V33.4092H20.9068C19.7671 33.4092 18.8398 34.3364 18.8397 35.4761C18.8397 35.673 18.9994 35.8328 19.1962 35.8328H28.8032C29.0001 35.8328 29.1597 35.673 29.1597 35.4761C29.1596 34.3365 28.2323 33.4092 27.0926 33.4092H25.1039V31.7222C25.1039 31.5254 24.9443 31.3658 24.7475 31.3658C24.5507 31.3658 24.3911 31.5254 24.3911 31.7222V33.4092H23.6083V19.415C23.7358 19.4362 23.8664 19.4478 23.9998 19.4478C24.1331 19.4478 24.2637 19.4362 24.391 19.415V30.0587C24.391 30.2556 24.5506 30.4152 24.7475 30.4152C24.9443 30.4152 25.1039 30.2556 25.1039 30.0587V19.1748C25.7531 18.8328 26.2257 18.1994 26.3463 17.4495C27.0944 17.5413 28.1297 17.9072 29.1359 18.2631C29.5247 18.4007 29.9091 18.5364 30.2824 18.6597L28.0396 25.9335H26.9407C26.8379 25.9335 26.7369 25.9728 26.6677 26.0488C26.5582 26.1692 26.5449 26.3428 26.6262 26.4758C27.6293 28.1177 29.3717 29.098 31.2868 29.098C33.2018 29.098 34.9442 28.1177 35.9473 26.4758C36.0291 26.3427 36.0158 26.1691 35.9062 26.0487ZM20.3811 26.6463C19.484 27.7453 18.1546 28.3849 16.7129 28.3849C15.2711 28.3849 13.9417 27.7453 13.0446 26.6463H20.3811ZM19.2141 25.9335H14.2116L16.3336 19.0514C16.559 19.0031 16.7943 18.9418 17.0367 18.8717L19.2141 25.9335ZM24 12.8798C24.5001 12.8798 24.9069 13.2866 24.9069 13.7867C24.9069 14.2867 24.5001 14.6935 24.0002 14.6936V14.6935C23.9994 14.6935 23.9986 14.6935 23.9978 14.6935C23.4988 14.6923 23.0931 14.286 23.0931 13.7868C23.0931 13.2866 23.4999 12.8798 24 12.8798ZM24.7477 34.1221H27.0928C27.7162 34.1221 28.2425 34.5456 28.3994 35.1199H19.6004C19.7573 34.5455 20.2836 34.1221 20.907 34.1221H23.2521H24.7477ZM24 18.7349C23.0823 18.7349 22.3357 17.9884 22.3357 17.0707C22.3357 16.153 23.0823 15.4065 24 15.4065C24.9177 15.4065 25.6642 16.1531 25.6642 17.0707C25.6642 17.9884 24.9177 18.7349 24 18.7349ZM29.3738 17.591C28.2536 17.1947 27.1882 16.8181 26.3526 16.7326C26.289 16.2882 26.1025 15.8831 25.8281 15.5532C27.7772 15.873 29.1973 16.6539 30.3005 17.2609C31.0137 17.6534 31.577 17.9634 32.1071 18.0649C32.7057 18.1795 33.2266 18.0721 33.5833 17.7756C33.5288 17.9486 33.4309 18.1116 33.2894 18.2663C32.7987 18.8026 30.8997 18.1308 29.3738 17.591ZM30.9632 18.8718C31.2056 18.9419 31.4409 19.0032 31.6664 19.0515L33.7884 25.9335H28.7858L30.9632 18.8718ZM31.2871 28.385C29.8454 28.385 28.516 27.7453 27.6188 26.6463H34.9553C34.0583 27.7453 32.7288 28.385 31.2871 28.385Z"
      fill="white"
      stroke="white"
      stroke-width="0.25"
    />
  </g>
  <defs>
    <clipPath id="clip0">
      <rect width="24" height="24" fill="white" transform="translate(12 12)" />
    </clipPath>
  </defs>
</svg>
