<svg width="48" height="48" viewBox="0 0 48 48" fill="none" xmlns="http://www.w3.org/2000/svg">
  <rect width="48" height="48" rx="10" fill="#2C3ACF" />
  <path
    fill-rule="evenodd"
    clip-rule="evenodd"
    d="M23.7777 16.1978C24.1459 16.1978 24.4444 15.9026 24.4444 15.5385V14.6593C24.4444 14.2952 24.1459 14 23.7777 14C23.4095 14 23.111 14.2952 23.111 14.6593V15.5385C23.111 15.9026 23.4095 16.1978 23.7777 16.1978Z"
    fill="white"
  />
  <path
    fill-rule="evenodd"
    clip-rule="evenodd"
    d="M33.3334 22.1318H32.4445C32.0763 22.1318 31.7778 22.427 31.7778 22.7912C31.7778 23.1553 32.0763 23.4505 32.4445 23.4505H33.3334C33.7016 23.4505 34.0001 23.1553 34.0001 22.7912C34.0001 22.427 33.7016 22.1318 33.3334 22.1318Z"
    fill="white"
  />
  <path
    fill-rule="evenodd"
    clip-rule="evenodd"
    d="M16.2222 22.7912C16.2222 22.427 15.9237 22.1318 15.5556 22.1318H14.6667C14.2985 22.1318 14 22.427 14 22.7912C14 23.1553 14.2985 23.4505 14.6667 23.4505H15.5556C15.9237 23.4505 16.2222 23.1553 16.2222 22.7912Z"
    fill="white"
  />
  <path
    fill-rule="evenodd"
    clip-rule="evenodd"
    d="M29.9688 18.422C30.1456 18.4219 30.315 18.3523 30.4399 18.2286L31.0711 17.6088C31.3158 17.349 31.3086 16.9442 31.0547 16.6931C30.8008 16.442 30.3915 16.4349 30.1288 16.677L29.4977 17.2967C29.3073 17.4853 29.2504 17.7687 29.3535 18.0149C29.4566 18.2611 29.6994 18.4218 29.9688 18.422Z"
    fill="white"
  />
  <path
    fill-rule="evenodd"
    clip-rule="evenodd"
    d="M18.0577 17.2967L17.4266 16.677C17.1639 16.4349 16.7546 16.442 16.5007 16.6931C16.2468 16.9442 16.2396 17.349 16.4843 17.6088L17.1155 18.2286C17.3781 18.4707 17.7875 18.4635 18.0413 18.2125C18.2952 17.9614 18.3024 17.5565 18.0577 17.2967Z"
    fill="white"
  />
  <path
    fill-rule="evenodd"
    clip-rule="evenodd"
    d="M31.3333 27.8459C31.0706 27.6038 30.6613 27.611 30.4074 27.8621C30.1535 28.1131 30.1463 28.518 30.3911 28.7778L31.0222 29.3976C31.2849 29.6396 31.6942 29.6325 31.9481 29.3814C32.202 29.1303 32.2092 28.7255 31.9644 28.4657L31.3333 27.8459Z"
    fill="white"
  />
  <path
    fill-rule="evenodd"
    clip-rule="evenodd"
    d="M16.2224 27.8459L15.5913 28.4657C15.3465 28.7255 15.3537 29.1303 15.6076 29.3814C15.8615 29.6325 16.2708 29.6396 16.5335 29.3976L17.1646 28.7778C17.4094 28.518 17.4022 28.1131 17.1483 27.8621C16.8944 27.611 16.4851 27.6038 16.2224 27.8459Z"
    fill="white"
  />
  <path
    fill-rule="evenodd"
    clip-rule="evenodd"
    d="M30.2224 23.8901C30.2267 20.871 28.0158 18.2947 25.003 17.8081C21.9903 17.3215 19.0656 19.0683 18.0985 21.9319C17.1314 24.7955 18.4076 27.9301 21.1113 29.3318C20.9727 29.5441 20.8986 29.7912 20.898 30.0439V31.3626C20.898 32.8192 22.0919 34 23.5646 34H24.4535C25.9263 34 27.1202 32.8192 27.1202 31.3626V30.0439C27.1195 29.7912 27.0455 29.5441 26.9069 29.3318C28.9466 28.266 30.2227 26.1716 30.2224 23.8901ZM25.7777 30.0439V30.4835H23.5555C23.1873 30.4835 22.8888 30.7787 22.8888 31.1428C22.8888 31.507 23.1873 31.8022 23.5555 31.8022H25.6977C25.5098 32.3278 25.0081 32.6797 24.4444 32.6813H23.5555C22.8191 32.6813 22.2222 32.0909 22.2222 31.3626V30.0439H25.7777ZM24 28.7252C21.2999 28.7252 19.1111 26.5605 19.1111 23.8901C19.1111 21.2197 21.2999 19.0549 24 19.0549C26.7 19.0549 28.8889 21.2197 28.8889 23.8901C28.8889 25.1732 28.3732 26.4037 27.4554 27.3106C26.5376 28.2175 25.2929 28.7264 23.9955 28.7252H24Z"
    fill="white"
  />
  <path
    fill-rule="evenodd"
    clip-rule="evenodd"
    d="M23.9999 20.1538C23.6317 20.1538 23.3333 20.449 23.3333 20.8131C23.3333 21.1773 23.6317 21.4725 23.9999 21.4725C25.3489 21.4749 26.4419 22.5559 26.4444 23.8901C26.4444 24.2542 26.7428 24.5494 27.111 24.5494C27.4792 24.5494 27.7777 24.2542 27.7777 23.8901C27.7752 21.8276 26.0853 20.1562 23.9999 20.1538Z"
    fill="white"
  />
</svg>
