<svg width="48" height="48" viewBox="0 0 48 48" fill="none" xmlns="http://www.w3.org/2000/svg">
  <rect width="48" height="48" rx="10" fill="#EC4343" />
  <path
    fill-rule="evenodd"
    clip-rule="evenodd"
    d="M24 14.0491C31.8947 14.0491 32.4211 16.1544 32.4211 16.1544V23.1544C32.4213 26.9565 30.3712 30.4632 27.0579 32.3281L24 34.0491L20.9421 32.3281C17.6288 30.4632 15.5787 26.9565 15.579 23.1544V16.1544C15.579 16.1544 15.579 14.0491 24 14.0491ZM24 12.4702C20.2579 12.4702 17.5421 12.8807 15.9263 13.6913C14.1421 14.586 14 15.7965 14 16.1544V23.1544C14.0084 27.5186 16.3651 31.5404 20.1684 33.6807L23.2263 35.4018C23.7068 35.6719 24.2932 35.6719 24.7737 35.4018L27.8316 33.6807C31.6349 31.5404 33.9916 27.5186 34 23.1544V16.1544C34 16.0249 33.9841 15.8959 33.9526 15.7702C33.6421 14.5386 31.9421 12.4702 24 12.4702Z"
    fill="white"
  />
  <path
    d="M29.0511 27.0823C28.8178 26.9298 28.505 26.9954 28.3523 27.2287C27.9363 27.8655 27.4482 28.4752 26.9015 29.0409C26.4518 29.506 25.9646 29.9395 25.4534 30.3292C25.2317 30.4983 25.189 30.815 25.358 31.0368C25.4574 31.1671 25.6078 31.2356 25.7598 31.2356C25.8666 31.2356 25.9742 31.2019 26.0656 31.1322C26.6171 30.7116 27.1425 30.2442 27.6273 29.7427C28.2185 29.1313 28.7467 28.4713 29.1976 27.781C29.3502 27.5476 29.2845 27.2347 29.0511 27.0823Z"
    fill="white"
  />
  <path
    d="M24.281 31.121L24.252 31.1381C24.0108 31.2778 23.9283 31.5866 24.068 31.8279C24.1616 31.9896 24.331 32.0799 24.5054 32.0799C24.5911 32.0799 24.6782 32.058 24.7578 32.0118L24.7912 31.9922C25.0318 31.8513 25.1126 31.542 24.9717 31.3014C24.8307 31.0609 24.5214 30.9802 24.281 31.121Z"
    fill="white"
  />
  <path
    fill-rule="evenodd"
    clip-rule="evenodd"
    d="M23.4737 26.9439C23.2644 26.9438 23.0637 26.8605 22.9158 26.7124L19.2316 23.0282C18.9417 22.7171 18.9503 22.2324 19.2509 21.9317C19.5516 21.6311 20.0363 21.6225 20.3474 21.9124L23.4737 25.0387L28.7053 19.8071C29.0163 19.5173 29.5011 19.5258 29.8017 19.8264C30.1023 20.1271 30.1109 20.6118 29.821 20.9229L24.0316 26.7124C23.8837 26.8605 23.683 26.9438 23.4737 26.9439Z"
    fill="white"
  />
</svg>
