<svg width="300" height="286" viewBox="0 0 300 286" fill="none"
  xmlns="http://www.w3.org/2000/svg">
  <g clip-path="url(#clip0_581:22235)">
    <path d="M267.904 212.212C271.032 226.297 274.657 270.913 274.657 270.913" stroke="#3A3E42" stroke-width="0.715" stroke-miterlimit="10" stroke-linecap="round" stroke-linejoin="round"/>
    <path d="M266.872 215.43C272.722 215.43 277.465 210.66 277.465 204.776C277.465 198.892 272.722 194.123 266.872 194.123C261.022 194.123 256.28 198.892 256.28 204.776C256.28 210.66 261.022 215.43 266.872 215.43Z" fill="#2C3ACF"/>
    <path d="M259.982 208.154C259.939 208.154 259.896 208.154 259.853 208.11C259.724 208.067 259.638 207.894 259.724 207.764L263.169 200.185C263.212 200.055 263.384 199.969 263.513 200.055C263.643 200.099 263.729 200.272 263.643 200.402L260.198 207.981C260.198 208.11 260.069 208.154 259.982 208.154Z" fill="white"/>
    <path d="M266.871 208.154C266.785 208.154 266.656 208.11 266.613 207.98L263.168 200.402C263.125 200.272 263.169 200.099 263.298 200.055C263.427 200.012 263.599 200.055 263.642 200.185L267.087 207.764C267.13 207.894 267.087 208.067 266.958 208.11C266.958 208.154 266.915 208.154 266.871 208.154Z" fill="white"/>
    <path d="M266.872 208.154C266.829 208.154 266.786 208.154 266.742 208.11C266.613 208.067 266.527 207.894 266.613 207.764L270.058 200.185C270.101 200.055 270.273 199.969 270.402 200.055C270.532 200.099 270.618 200.272 270.532 200.402L267.087 207.981C267.087 208.11 266.958 208.154 266.872 208.154Z" fill="white"/>
    <path d="M273.761 208.154C273.675 208.154 273.546 208.11 273.503 207.98L270.058 200.402C270.015 200.272 270.058 200.099 270.187 200.055C270.317 200.012 270.489 200.055 270.532 200.185L273.976 207.764C274.02 207.894 273.977 208.067 273.847 208.11C273.847 208.154 273.804 208.154 273.761 208.154Z" fill="white"/>
    <path d="M259.982 209.236C260.553 209.236 261.016 208.79 261.016 208.24C261.016 207.69 260.553 207.244 259.982 207.244C259.411 207.244 258.949 207.69 258.949 208.24C258.949 208.79 259.411 209.236 259.982 209.236Z" fill="white"/>
    <path d="M266.872 209.236C267.443 209.236 267.905 208.79 267.905 208.24C267.905 207.69 267.443 207.244 266.872 207.244C266.301 207.244 265.838 207.69 265.838 208.24C265.838 208.79 266.301 209.236 266.872 209.236Z" fill="white"/>
    <path d="M273.761 209.236C274.332 209.236 274.794 208.79 274.794 208.24C274.794 207.69 274.332 207.244 273.761 207.244C273.19 207.244 272.728 207.69 272.728 208.24C272.728 208.79 273.19 209.236 273.761 209.236Z" fill="white"/>
    <path d="M269.787 258.294C269.787 258.294 267.335 231.124 286.707 225.296" stroke="#3A3E42" stroke-width="0.715" stroke-miterlimit="10" stroke-linecap="round" stroke-linejoin="round"/>
    <path d="M279.526 284.498H260.545C258.199 284.498 256.28 282.568 256.28 280.208V252.395C256.28 250.035 258.199 248.105 260.545 248.105H279.526C281.872 248.105 283.792 250.035 283.792 252.395V280.208C283.792 282.568 281.872 284.498 279.526 284.498Z" stroke="#23C479" stroke-width="1.0725" stroke-miterlimit="10"/>
    <path d="M60.5687 118.475H28.6138C26.5166 118.475 24.3839 118.225 22.3578 117.689C7.81991 113.971 -1.13743 98.2766 2.31044 82.6538C5.7583 67.031 20.4029 57.4143 34.9408 61.1323C30.391 58.6298 23.4953 47.1898 23.0687 39.8968C21.2915 9.97404 56.9787 -3.18196 87.5474 3.00279C99.9526 5.54104 111.967 10.7605 114.028 22.129C123.661 17.9105 136.031 20.0913 143.815 26.705C151.6 33.3188 154.443 47.0825 152.524 56.592C151.209 62.9913 147.512 67.9605 141.398 71.2495C146.445 72.6438 150.071 75.6825 152.879 79.7223C158.14 87.3371 160.699 97.49 155.616 105.212C148.649 115.866 131.801 118.44 119.36 118.475H98.5664" fill="#F5FAFF"/>
    <path d="M60.5687 118.475H28.6138C26.5166 118.475 24.3839 118.225 22.3578 117.689C7.81991 113.971 -1.13743 98.2765 2.31044 82.6538C5.7583 67.031 20.4029 57.4143 34.9408 61.1323C30.391 58.6298 23.4953 47.1898 23.0687 39.8968C21.2915 9.97404 56.9787 -3.18196 87.5474 3.00279C99.9526 5.54104 111.967 10.7605 114.028 22.129C123.661 17.9105 136.031 20.0913 143.815 26.705C151.6 33.3188 154.443 47.0825 152.524 56.592C151.209 62.9913 147.512 67.9605 141.398 71.2495C146.445 72.6438 150.071 75.6825 152.879 79.7223C158.14 87.337 160.699 97.49 155.616 105.212C148.649 115.866 131.801 118.44 119.36 118.475H98.5663" stroke="#DAEAFF" stroke-width="1.0725" stroke-miterlimit="10" stroke-linecap="round" stroke-linejoin="round"/>
    <path d="M81.1852 23.3091H79.7634V21.6289H78.8748V23.3091H77.453V21.6289H74.4316V20.1989H74.5738C74.7515 20.1989 74.9648 20.1989 75.1425 20.1989C75.3914 20.2346 75.6046 20.0201 75.6402 19.7699C75.6402 19.7341 75.6402 19.7341 75.6402 19.6984C75.6402 19.5554 75.6402 19.4124 75.6402 19.2694C75.6402 17.5176 75.6402 15.8016 75.6402 14.0499C75.6402 13.7996 75.6402 13.5851 75.6402 13.3349C75.6757 13.0846 75.4625 12.8344 75.2136 12.8344C75.1781 12.8344 75.1781 12.8344 75.1425 12.8344C74.9648 12.8344 74.7515 12.8344 74.5738 12.8344C74.5383 12.8344 74.5027 12.8344 74.4672 12.8344C74.4672 12.3696 74.4672 11.9049 74.4672 11.4044H77.4885V9.72412H78.9103V11.4044H79.8345V9.72412H81.2563C81.2563 9.75987 81.2563 9.79562 81.2563 9.86712C81.2563 10.3676 81.2563 10.8324 81.2563 11.3329C81.2563 11.4401 81.2918 11.5116 81.3985 11.5116C81.5051 11.5116 81.5762 11.5474 81.6828 11.5474C82.1805 11.6189 82.6425 11.8334 83.0691 12.1551C83.9577 12.8701 84.2065 14.1571 83.5667 15.1224C83.2468 15.6229 82.7492 16.0161 82.1805 16.1949C82.1449 16.1949 82.1094 16.2306 82.0738 16.2306C82.1094 16.2664 82.1449 16.2664 82.1805 16.3021C82.5715 16.4094 82.9269 16.5524 83.2468 16.7669C83.7444 17.0886 84.0999 17.5891 84.2421 18.1611C84.4909 19.2694 84.0999 20.1631 83.2468 20.8781C82.7136 21.2714 82.1094 21.5216 81.434 21.5574C81.3274 21.5574 81.2918 21.5931 81.2918 21.7004C81.1852 22.2366 81.1852 22.7729 81.1852 23.3091ZM78.1283 17.0529C78.1283 17.0886 78.1283 17.1244 78.1283 17.1244C78.1283 17.8394 78.1283 18.5544 78.1283 19.2694C78.1283 19.4124 78.1283 19.5911 78.1639 19.7341C78.1639 19.8414 78.2705 19.9486 78.3771 19.9486C78.7326 19.9486 79.0525 19.9844 79.4079 19.9844C79.6923 19.9844 80.0122 19.9486 80.2966 19.9129C80.6165 19.8771 80.9008 19.7341 81.1141 19.5196C81.3985 19.2336 81.5762 18.8761 81.5762 18.4471C81.6117 17.9109 81.2918 17.3746 80.7587 17.1959C80.4387 17.0886 80.1188 17.0171 79.7989 17.0171C79.2658 17.0171 78.7681 17.0171 78.235 17.0171C78.1994 17.0529 78.1639 17.0529 78.1283 17.0529ZM78.1283 15.5514C78.1639 15.5514 78.1994 15.5514 78.235 15.5514C78.5904 15.5514 78.9459 15.5514 79.2658 15.5514C79.6568 15.5514 80.0478 15.5156 80.4388 15.4441C80.7587 15.3726 81.0075 15.1939 81.1852 14.9436C81.5762 14.3359 81.3629 13.3349 80.4743 13.1561C80.261 13.1204 80.0478 13.0846 79.7989 13.0846C79.2658 13.0846 78.7326 13.0846 78.1994 13.0846C78.1639 13.0846 78.1283 13.0846 78.1283 13.0846V15.5514Z" fill="#2C3ACF"/>
    <path d="M80.0119 112.219L79.9763 108.644L75.5332 105.82L80.0119 112.219Z" fill="#2C3ACF"/>
    <path d="M84.8108 105.784L80.3677 108.644V112.219L84.8108 105.784Z" fill="#2C3ACF"/>
    <path d="M85.0951 103.997L80.332 101.637L80.3676 107.035L85.0951 103.997Z" fill="#2C3ACF"/>
    <path d="M75.1421 103.568L79.9762 101.208L79.9407 94.7373L75.1421 103.568Z" fill="#2C3ACF"/>
    <path d="M80.332 101.208L85.024 103.532L80.332 94.7373V101.208Z" fill="#2C3ACF"/>
    <path d="M79.9766 107.035V101.637L75.1069 104.032L79.9766 107.035Z" fill="#2C3ACF"/>
    <path d="M39.1425 32.2923L37.4829 33.96L39.141 35.6291L40.8006 33.9614L39.1425 32.2923Z" fill="#2C3ACF"/>
    <path d="M44.7868 29.9585L47.5948 32.7828L49.2655 31.1383L44.7868 26.6338L40.3081 31.1383L41.9432 32.7828L44.7868 29.9585Z" fill="#2C3ACF"/>
    <path d="M50.4411 32.2916L48.7822 33.96L50.4411 35.6284L52.0999 33.96L50.4411 32.2916Z" fill="#2C3ACF"/>
    <path d="M44.7868 38.0021L41.9432 35.1421L40.3081 36.8223L44.7868 41.3268L49.2655 36.8223L47.5948 35.1421L44.7868 38.0021Z" fill="#2C3ACF"/>
    <path d="M44.7921 32.292L43.1333 33.9604L44.7921 35.6289L46.451 33.9604L44.7921 32.292Z" fill="#2C3ACF"/>
    <path d="M112.998 82.4751C110.048 82.4751 107.631 84.9061 107.595 87.9091C107.595 88.5168 107.702 89.0889 107.88 89.6609C108.022 90.0541 108.448 90.2686 108.804 90.1613C109.195 90.0183 109.408 89.5894 109.266 89.2319C109.088 88.7671 109.017 88.3024 109.053 87.8734C109.124 85.6926 110.901 84.0123 113.069 84.0838C115.237 84.1553 116.908 85.9428 116.837 88.1236C116.766 90.1613 115.202 91.7701 113.176 91.9131C113.176 91.9131 112.394 91.9488 112.074 92.0203C111.932 92.0561 111.79 92.0561 111.647 92.0919C111.612 92.1276 111.612 92.1276 111.576 92.0919C111.576 92.0919 111.576 92.0561 111.576 92.0203L111.683 91.3769L112.394 88.1594C112.465 87.7661 112.216 87.3371 111.825 87.2656C111.434 87.1941 111.008 87.4443 110.936 87.8376C110.936 87.8376 109.266 95.7026 109.266 95.7741C109.159 96.1673 109.408 96.5606 109.799 96.6678H109.835C110.226 96.7751 110.617 96.5248 110.723 96.1316C110.723 96.1316 110.723 96.1316 110.723 96.0958V96.0601C110.759 95.9529 110.972 94.9519 110.972 94.9519C111.15 94.1654 111.79 93.5576 112.572 93.4503C112.749 93.4146 113.425 93.3789 113.425 93.3789C116.375 93.0929 118.543 90.4474 118.223 87.4444C117.939 84.6559 115.735 82.5466 112.998 82.4751Z" fill="#2C3ACF"/>
    <path d="M113.069 94.8804C112.535 94.7732 112.073 95.0949 111.967 95.6312C111.86 96.1674 112.18 96.6322 112.713 96.7394H112.749C113.246 96.8467 113.744 96.5607 113.851 96.0602V96.0244C113.922 95.5239 113.602 95.0234 113.069 94.8804Z" fill="#2C3ACF"/>
    <path d="M44.3246 82.5111C44.6445 82.3323 45.0355 82.7256 44.8578 83.0473C44.7511 83.2976 44.3957 83.3691 44.218 83.1903C44.0047 82.9758 44.0402 82.6183 44.3246 82.5111ZM40.9123 82.8686C41.09 82.7971 41.3388 82.9758 41.3388 83.1903C41.3744 83.4048 41.09 83.5836 40.8767 83.4763C40.6279 83.3691 40.6635 82.9401 40.9123 82.8686ZM47.8791 83.4763C47.5947 83.4406 47.5237 82.9758 47.808 82.8686C48.0213 82.7613 48.2346 82.9758 48.2701 83.1903C48.2346 83.3691 48.0568 83.5478 47.8791 83.4763ZM41.6943 84.3343C42.0142 84.1198 42.4763 84.4416 42.4407 84.7991C42.4407 85.1923 41.9431 85.4068 41.6587 85.1566C41.3388 84.9421 41.4099 84.4773 41.6943 84.3343ZM46.5639 84.5488C46.7061 84.1913 47.2748 84.1556 47.4526 84.5131C47.6303 84.7991 47.417 85.1566 47.1327 85.2281C46.7772 85.3353 46.3862 84.9063 46.5639 84.5488ZM43.8981 85.2281C43.8981 84.9063 44.1824 84.6918 44.5023 84.6561C44.7156 84.6918 44.9289 84.7991 45 84.9778C45.1777 85.2638 45.0355 85.6571 44.7156 85.7643C44.5734 85.8358 44.4312 85.8001 44.2891 85.8001C44.0758 85.6928 43.8981 85.4783 43.8981 85.2281ZM38.8507 85.6928C39.135 85.5141 39.526 85.8358 39.4194 86.1576C39.3483 86.4436 38.9928 86.5508 38.7796 86.3721C38.5663 86.1933 38.6019 85.8001 38.8507 85.6928ZM49.6919 85.6928C49.9407 85.5141 50.3673 85.7286 50.3317 86.0503C50.3673 86.3363 50.0118 86.5508 49.763 86.4078C49.4786 86.2648 49.4431 85.8358 49.6919 85.6928ZM45.3199 86.2648C45.7464 86.1218 46.2085 86.3006 46.4573 86.6581C46.7772 87.1228 46.5995 87.8021 46.1374 88.0523C45.6398 88.3741 44.9289 88.0881 44.7511 87.5518C44.5023 87.0513 44.8222 86.4078 45.3199 86.2648ZM42.9028 86.3006C43.3649 86.0861 43.9692 86.2648 44.1824 86.7296C44.4312 87.1943 44.2535 87.8021 43.7914 88.0523C43.3293 88.3026 42.6895 88.1238 42.4407 87.6233C42.2274 87.1586 42.4407 86.5151 42.9028 86.3006ZM40.5213 87.1586C40.5568 86.8726 40.8412 86.6581 41.1256 86.6581C41.4099 86.6938 41.6587 86.9441 41.6943 87.2301C41.6587 87.5161 41.4455 87.8378 41.1256 87.8378C40.7701 87.8378 40.4502 87.4803 40.5213 87.1586ZM47.6303 86.6938C47.9857 86.4793 48.4834 86.8011 48.4834 87.1943C48.5189 87.6233 47.9502 87.9451 47.5947 87.6948C47.2038 87.4803 47.2393 86.8726 47.6303 86.6938ZM41.9431 88.2668C42.3696 88.1596 42.8317 88.3383 43.045 88.7316C43.2583 89.1248 43.1872 89.6611 42.8317 89.9471C42.3696 90.3761 41.5521 90.1973 41.3033 89.6253C41.0545 89.0891 41.3744 88.3741 41.9431 88.2668ZM46.4929 88.2311C46.9194 88.1238 47.3815 88.2668 47.5947 88.6601C47.8791 89.0891 47.7369 89.7326 47.3104 90.0186C46.8483 90.3403 46.1729 90.1616 45.9241 89.6611C45.6042 89.1248 45.9241 88.4098 46.4929 88.2311ZM39.2417 88.7316C39.5971 88.5886 40.0237 88.9818 39.8459 89.3751C39.7748 89.6968 39.3128 89.8398 39.0639 89.5896C38.7796 89.3393 38.8862 88.8388 39.2417 88.7316ZM49.0876 89.2678C49.0876 88.9818 49.3009 88.6958 49.6208 88.6958C49.8696 88.7316 50.1184 88.9461 50.0829 89.1963C50.1184 89.5538 49.6919 89.8041 49.372 89.6253C49.2298 89.5538 49.1587 89.4108 49.0876 89.2678ZM37.4644 88.9103C37.6777 88.8031 37.962 89.0176 37.891 89.2678C37.891 89.5538 37.4644 89.6611 37.3222 89.4108C37.1801 89.2321 37.2867 88.9818 37.4644 88.9103ZM51.2203 88.9103C51.3625 88.8031 51.6113 88.8746 51.6824 89.0533C51.7891 89.2678 51.6113 89.5181 51.3625 89.4823C51.0782 89.5181 50.9715 89.0533 51.2203 88.9103ZM43.1161 90.2331C43.6848 90.0901 44.3246 90.5548 44.3246 91.1626C44.3601 91.7703 43.7559 92.3065 43.1516 92.1635C42.6895 92.092 42.3341 91.6631 42.3696 91.1983C42.3696 90.7336 42.6895 90.3403 43.1161 90.2331ZM45.391 90.2331C45.9597 90.0543 46.5995 90.5548 46.5995 91.1626C46.635 91.7703 46.0308 92.2708 45.462 92.1635C44.9289 92.092 44.5379 91.4843 44.6801 90.9838C44.7511 90.5906 45.0711 90.3046 45.391 90.2331ZM41.0189 90.5906C41.4099 90.5191 41.8009 90.9838 41.6232 91.3771C41.5165 91.8061 40.9123 91.9133 40.6635 91.5558C40.3436 91.2341 40.5924 90.6621 41.0189 90.5906ZM47.7014 90.6263C48.0568 90.4833 48.5189 90.8051 48.4834 91.1983C48.4834 91.6273 47.9502 91.9133 47.5947 91.6631C47.1682 91.4128 47.2748 90.7693 47.7014 90.6263ZM49.5497 92.4853C49.4075 92.2351 49.6564 91.8776 49.9407 91.9133C50.0829 91.9133 50.1895 92.0206 50.2962 92.1278C50.3317 92.2708 50.3317 92.4853 50.2251 92.5926C50.0474 92.8428 49.6564 92.7713 49.5497 92.4853ZM38.8507 92.0206C39.135 91.8418 39.526 92.1278 39.4549 92.4496C39.4194 92.7356 39.0639 92.9143 38.8507 92.7356C38.6019 92.5568 38.6019 92.1278 38.8507 92.0206ZM44.2535 92.5926C44.609 92.4496 45.0711 92.7356 45.0355 93.1288C45.0711 93.5578 44.5023 93.8795 44.1469 93.5935C43.7559 93.4148 43.827 92.7356 44.2535 92.5926ZM41.7654 93.2003C42.0853 93.0573 42.4763 93.3076 42.4407 93.6651C42.4407 93.9511 42.1919 94.2013 41.9075 94.1298C41.6943 94.1298 41.5165 93.9153 41.4455 93.7366C41.4455 93.5221 41.5521 93.2718 41.7654 93.2003ZM46.8128 93.2003C47.1327 93.0216 47.5592 93.2718 47.5592 93.6651C47.5592 94.0583 47.0616 94.3086 46.7772 94.0583C46.4573 93.8081 46.4929 93.3433 46.8128 93.2003ZM47.7014 95.381C47.5592 95.1665 47.7369 94.9163 47.9502 94.8806C48.1279 94.9163 48.3412 95.0593 48.2701 95.2738C48.2346 95.5241 47.8436 95.6313 47.7014 95.381ZM40.699 95.2023C40.7701 95.0235 40.8767 94.8806 41.09 94.9163C41.3744 94.9521 41.4455 95.3811 41.1966 95.4883C40.9834 95.6313 40.7346 95.4525 40.699 95.2023ZM44.0758 95.381C44.1469 95.1308 44.4668 95.0236 44.6445 95.1308C44.7867 95.2023 44.8222 95.3453 44.8578 95.4883C44.8578 95.5598 44.8222 95.6313 44.8222 95.7028C44.7511 95.8101 44.6445 95.9173 44.4668 95.9173C44.218 95.953 43.9692 95.6313 44.0758 95.381Z" fill="#2C3ACF"/>
    <path d="M100.699 52.374L109.728 43.2935" stroke="#23C479" stroke-width="0.3575" stroke-miterlimit="10"/>
    <path d="M97.0029 53.6965L102.015 48.6558H103.188" stroke="#23C479" stroke-width="0.3575" stroke-miterlimit="10"/>
    <path d="M105.676 48.6558H107.062L113.318 42.3638" stroke="#23C479" stroke-width="0.3575" stroke-miterlimit="10"/>
    <path d="M98.5664 49.7641L101.979 46.3321H104.076L108.377 42.0063" stroke="#23C479" stroke-width="0.3575" stroke-miterlimit="10"/>
    <path d="M97.1087 51.8018L97.0376 53.6965H99.0281" stroke="#23C479" stroke-width="0.3575" stroke-miterlimit="10"/>
    <path d="M113.354 44.2229L113.46 42.3281H111.47" stroke="#23C479" stroke-width="0.3575" stroke-miterlimit="10"/>
    <path d="M108.84 40.8623C108.484 40.8623 108.2 41.1483 108.2 41.5058C108.2 41.8633 108.484 42.1493 108.84 42.1493C109.195 42.1493 109.479 41.8633 109.479 41.5058C109.479 41.1841 109.195 40.8623 108.84 40.8623Z" stroke="#23C479" stroke-width="0.3575" stroke-miterlimit="10"/>
    <path d="M60.2135 49.2634L51.7183 40.5762" stroke="#23C479" stroke-width="0.3575" stroke-miterlimit="10"/>
    <path d="M61.5646 52.9812L56.5527 47.9405V46.7607" stroke="#23C479" stroke-width="0.3575" stroke-miterlimit="10"/>
    <path d="M56.5524 44.2585V42.8643L52.0737 38.3955" stroke="#23C479" stroke-width="0.3575" stroke-miterlimit="10"/>
    <path d="M57.6541 51.4085L54.2062 47.9765V45.8673L49.9053 41.5415" stroke="#23C479" stroke-width="0.3575" stroke-miterlimit="10"/>
    <path d="M59.6445 52.8743L61.564 52.9459V50.9438" stroke="#23C479" stroke-width="0.3575" stroke-miterlimit="10"/>
    <path d="M53.6377 38.2883L51.7183 38.2168V40.2188" stroke="#23C479" stroke-width="0.3575" stroke-miterlimit="10"/>
    <path d="M48.8037 41.0766C48.8037 41.4341 49.0881 41.7201 49.4435 41.7201C49.799 41.7201 50.0833 41.4341 50.0833 41.0766C50.0833 40.7191 49.799 40.4331 49.4435 40.4331C49.0881 40.4331 48.8037 40.7191 48.8037 41.0766Z" stroke="#23C479" stroke-width="0.3575" stroke-miterlimit="10"/>
    <path d="M60.6403 71.4644L51.6118 80.5449" stroke="#23C479" stroke-width="0.3575" stroke-miterlimit="10"/>
    <path d="M64.3366 70.106L59.3247 75.1825H58.1162" stroke="#23C479" stroke-width="0.3575" stroke-miterlimit="10"/>
    <path d="M55.6641 75.1821H54.2779L48.022 81.4741" stroke="#23C479" stroke-width="0.3575" stroke-miterlimit="10"/>
    <path d="M62.7723 74.0742L59.3244 77.5062H57.2272L52.9263 81.832" stroke="#23C479" stroke-width="0.3575" stroke-miterlimit="10"/>
    <path d="M64.23 72.0365L64.3011 70.106H62.3105" stroke="#23C479" stroke-width="0.3575" stroke-miterlimit="10"/>
    <path d="M47.986 79.5796L47.8794 81.5101H49.8699" stroke="#23C479" stroke-width="0.3575" stroke-miterlimit="10"/>
    <path d="M52.5002 82.976C52.8556 82.976 53.14 82.69 53.14 82.3325C53.14 81.975 52.8556 81.689 52.5002 81.689C52.1447 81.689 51.8604 81.975 51.8604 82.3325C51.8604 82.6542 52.1447 82.976 52.5002 82.976Z" stroke="#23C479" stroke-width="0.3575" stroke-miterlimit="10"/>
    <path d="M106.636 80.1874L97.6074 71.1069" stroke="#23C479" stroke-width="0.3575" stroke-miterlimit="10"/>
    <path d="M100.131 74.7888H98.9225L93.9106 69.748" stroke="#23C479" stroke-width="0.3575" stroke-miterlimit="10"/>
    <path d="M110.226 81.0811L103.97 74.7891H102.583" stroke="#23C479" stroke-width="0.3575" stroke-miterlimit="10"/>
    <path d="M105.32 81.4742L101.019 77.1484H98.922L95.4741 73.6807" stroke="#23C479" stroke-width="0.3575" stroke-miterlimit="10"/>
    <path d="M95.9358 69.748H93.9453L94.0164 71.6785" stroke="#23C479" stroke-width="0.3575" stroke-miterlimit="10"/>
    <path d="M108.377 81.1527H110.367L110.296 79.2222" stroke="#23C479" stroke-width="0.3575" stroke-miterlimit="10"/>
    <path d="M105.747 82.5824C106.103 82.5824 106.387 82.2964 106.387 81.9389C106.387 81.5814 106.103 81.2954 105.747 81.2954C105.392 81.2954 105.107 81.5814 105.107 81.9389C105.107 82.2964 105.392 82.5824 105.747 82.5824Z" stroke="#23C479" stroke-width="0.3575" stroke-miterlimit="10"/>
    <path d="M77.9863 77.792V80.6877L79.8347 81.9747V92.7355" stroke="#23C479" stroke-width="0.3575" stroke-miterlimit="10"/>
    <path d="M82.0379 89.089V79.6153L80.4028 78.8645V77.1128" stroke="#23C479" stroke-width="0.3575" stroke-miterlimit="10"/>
    <path d="M77.915 90.912V82.332" stroke="#23C479" stroke-width="0.3575" stroke-miterlimit="10"/>
    <path d="M79.4077 79.0792L77.9859 77.542L76.4219 79.0792" stroke="#23C479" stroke-width="0.3575" stroke-miterlimit="10"/>
    <path d="M82.0029 89.0176C81.6119 89.0176 81.292 89.3393 81.292 89.7326C81.292 90.1258 81.6119 90.4476 82.0029 90.4476C82.3939 90.4476 82.7138 90.1258 82.7138 89.7326C82.7138 89.3393 82.3939 89.0176 82.0029 89.0176Z" stroke="#23C479" stroke-width="0.3575" stroke-miterlimit="10"/>
    <path d="M78.377 91.6631L79.9409 93.2003L81.3627 91.6631" stroke="#23C479" stroke-width="0.3575" stroke-miterlimit="10"/>
    <path d="M81.5759 40.362V37.502L79.7275 36.215V25.4185" stroke="#23C479" stroke-width="0.3575" stroke-miterlimit="10"/>
    <path d="M77.5244 29.1006V38.5743L79.1595 39.2893V41.0768" stroke="#23C479" stroke-width="0.3575" stroke-miterlimit="10"/>
    <path d="M81.647 27.2417V35.8217" stroke="#23C479" stroke-width="0.3575" stroke-miterlimit="10"/>
    <path d="M80.1548 39.0747L81.5766 40.6477L83.1406 39.0747" stroke="#23C479" stroke-width="0.3575" stroke-miterlimit="10"/>
    <path d="M77.5954 29.1361C77.9864 29.1361 78.3063 28.8143 78.3063 28.4211C78.3063 28.0278 77.9864 27.7061 77.5954 27.7061C77.2044 27.7061 76.8845 28.0278 76.8845 28.4211C76.849 28.8143 77.1689 29.1361 77.5954 29.1361Z" stroke="#23C479" stroke-width="0.3575" stroke-miterlimit="10"/>
    <path d="M81.1856 26.5266L79.6571 24.9536L78.2354 26.5266" stroke="#23C479" stroke-width="0.3575" stroke-miterlimit="10"/>
    <path d="M72.6182 121.836V125.84L75.6039 127.663V146.325" stroke="#2C3ACF" stroke-width="0.715" stroke-miterlimit="10"/>
    <path d="M84.3131 147.469V124.517L81.5762 123.016V119.369" stroke="#2C3ACF" stroke-width="0.715" stroke-miterlimit="10"/>
    <path d="M78.5903 148.756V116.581" stroke="#2C3ACF" stroke-width="0.715" stroke-miterlimit="10"/>
    <path d="M81.4336 142.035V125.912" stroke="#2C3ACF" stroke-width="0.715" stroke-miterlimit="10"/>
    <path d="M87.4414 146.003V117.796" stroke="#2C3ACF" stroke-width="0.715" stroke-miterlimit="10"/>
    <path d="M72.4766 148.756V128.235" stroke="#2C3ACF" stroke-width="0.715" stroke-miterlimit="10"/>
    <path d="M74.6088 123.659L72.5827 121.443L70.3789 123.659" stroke="#2C3ACF" stroke-width="0.715" stroke-miterlimit="10"/>
    <path d="M89.4673 119.548L87.4767 117.332L85.2729 119.548" stroke="#2C3ACF" stroke-width="0.715" stroke-miterlimit="10"/>
    <path d="M75.5332 146.039C74.9645 146.039 74.5024 146.503 74.5024 147.075C74.5024 147.647 74.9645 148.112 75.5332 148.112C76.102 148.112 76.564 147.647 76.564 147.075C76.5285 146.503 76.102 146.039 75.5332 146.039Z" stroke="#2C3ACF" stroke-width="0.715" stroke-miterlimit="10"/>
    <path d="M84.3838 147.076C83.8151 147.076 83.353 147.54 83.353 148.112C83.353 148.684 83.8151 149.149 84.3838 149.149C84.9526 149.149 85.4146 148.684 85.4146 148.112C85.4146 147.54 84.9526 147.076 84.3838 147.076Z" stroke="#2C3ACF" stroke-width="0.715" stroke-miterlimit="10"/>
    <path d="M123.306 281.603C123.306 281.603 113.922 224.188 110.901 207.028C109.408 198.52 103.117 190.869 93.4127 188.045C91.5644 187.509 87.69 187.437 85.7705 187.366C77.5596 187.115 69.4198 192.263 64.799 200.951C56.5881 216.323 33.8037 281.746 33.8037 281.746" stroke="#3A3E42" stroke-width="1.0725" stroke-miterlimit="10" stroke-linecap="round" stroke-linejoin="round"/>
    <path d="M129.313 186.508L114.668 186.007C115.13 185.292 115.344 184.363 115.237 183.362L111.611 156.406C111.292 153.975 109.052 151.902 106.635 151.83L60.6398 150.293C58.2228 150.221 56.5166 152.152 56.8721 154.583L60.4977 181.538C60.7465 183.433 61.1019 185.113 62.8436 185.793C63.0214 186.043 64.3721 186.186 64.6564 186.186L129.277 188.367C129.775 188.402 130.201 187.973 130.237 187.473C130.237 186.937 129.846 186.508 129.313 186.508Z" fill="#95B0FF"/>
    <path d="M83.8508 171.564C85.0679 171.564 86.0546 170.572 86.0546 169.348C86.0546 168.124 85.0679 167.131 83.8508 167.131C82.6336 167.131 81.647 168.124 81.647 169.348C81.647 170.572 82.6336 171.564 83.8508 171.564Z" fill="#F9F1E8"/>
    <path d="M214.727 284.499C214.727 284.499 209.147 254.433 207.334 244.173C206.445 239.096 202.713 234.52 196.919 232.84C195.817 232.518 193.507 232.482 192.369 232.447C187.464 232.304 182.63 235.342 179.858 240.562C174.952 249.75 163.685 278.886 163.685 278.886" stroke="#3A3E42" stroke-width="1.0725" stroke-miterlimit="10" stroke-linecap="round" stroke-linejoin="round"/>
    <path d="M234.313 194.694L225.498 227.942C225.498 227.942 223.721 236.057 210.533 233.733C197.311 231.41 166.493 229.086 166.493 229.086" stroke="#23C479" stroke-width="1.0725" stroke-miterlimit="10" stroke-linecap="round" stroke-linejoin="round"/>
    <path d="M135.746 273.881L120.178 263.227C118.223 261.904 117.725 259.223 119.04 257.257L121.28 253.932C122.595 251.966 125.261 251.465 127.216 252.788L142.784 263.442C144.739 264.764 145.237 267.446 143.922 269.412L141.682 272.737C140.367 274.703 137.701 275.239 135.746 273.881Z" fill="#F4F4F4" stroke="#3A3E42" stroke-width="1.0725" stroke-miterlimit="10"/>
    <path d="M229.905 178.714C234.668 228.3 199.692 236.737 187.536 226.87C216.007 235.521 219.988 181.324 219.988 181.324C219.988 181.324 225.107 181.074 229.905 178.714Z" fill="#EBEBEB"/>
    <path d="M211.848 187.902C207.69 187.473 205.948 187.294 201.825 186.579C198.981 186.115 196.244 185.221 193.472 184.399C191.694 183.898 189.917 183.469 188.14 182.933C186.967 182.575 185.865 182.111 184.728 181.717C183.555 181.288 182.346 180.967 181.173 180.609C179.183 180.037 177.085 181.217 176.517 183.255C176.446 183.469 176.41 183.719 176.41 183.934L175.912 189.833C175.735 191.942 177.299 193.765 179.36 193.98C179.574 194.015 179.751 194.015 179.965 193.98L189.526 193.193L190.201 193.586C190.201 193.586 212.559 207.743 223.436 204.74C229.123 203.167 230.901 183.862 231.825 171.493C232.429 163.485 227.168 159.803 218.318 156.049C203.175 149.614 190.628 150.722 182.168 145.86L208.401 134.456L205.628 123.445L168.092 137.924C167.062 138.317 166.102 138.925 165.284 139.675C161.872 142.893 161.73 148.255 164.929 151.687L179.396 167.131L174.242 196.518C165.604 193.729 160.735 190.655 150.142 190.655C141.683 190.655 139.692 201.165 138.946 207.171L137.204 224.331L127.18 252.681L144.739 264.943L151.955 251.466C156.22 243.529 160.486 235.557 164.716 227.62C166.138 224.939 166.209 224.832 167.915 222.151C168.91 220.578 169.514 220.149 171.292 220.756C178.081 223.152 184.408 226.333 191.588 227.37C198.448 228.371 206.09 227.477 211.564 222.937C216.789 218.611 219.562 212.033 220.983 205.527" fill="white"/>
    <path d="M211.848 187.902C207.69 187.473 205.948 187.294 201.825 186.579C198.981 186.115 196.244 185.221 193.472 184.399C191.694 183.898 189.917 183.469 188.14 182.933C186.967 182.575 185.865 182.111 184.728 181.717C183.555 181.288 182.346 180.967 181.173 180.609C179.183 180.037 177.085 181.217 176.517 183.255C176.446 183.469 176.41 183.719 176.41 183.934L175.912 189.833C175.735 191.942 177.299 193.765 179.36 193.98C179.574 194.015 179.751 194.015 179.965 193.98L189.526 193.193L190.201 193.586C190.201 193.586 212.559 207.743 223.436 204.74C229.123 203.167 230.901 183.862 231.825 171.493C232.429 163.485 227.168 159.803 218.318 156.049C203.175 149.614 190.628 150.722 182.168 145.86L208.401 134.456L205.628 123.445L168.092 137.924C167.062 138.317 166.102 138.925 165.284 139.675C161.872 142.893 161.73 148.255 164.929 151.687L179.396 167.131L174.242 196.518C165.604 193.729 160.735 190.655 150.142 190.655C141.683 190.655 139.692 201.165 138.946 207.171L137.204 224.331L127.18 252.681L144.739 264.943L151.955 251.466C156.22 243.529 160.486 235.557 164.716 227.62C166.138 224.939 166.209 224.832 167.915 222.151C168.91 220.578 169.514 220.149 171.292 220.756C178.081 223.152 184.408 226.333 191.588 227.37C198.448 228.371 206.09 227.477 211.564 222.937C216.789 218.611 219.562 212.033 220.983 205.527" stroke="#3A3E42" stroke-width="1.0725" stroke-miterlimit="10" stroke-linecap="round" stroke-linejoin="round"/>
    <path d="M179.751 192.156L175.557 192.692C173.247 192.978 171.185 191.513 171.007 189.368L169.905 177.963C169.692 175.854 171.434 173.888 173.709 173.566L177.903 173.03C180.213 172.744 182.275 174.21 182.453 176.355L183.555 187.759C183.768 189.904 182.026 191.87 179.751 192.156Z" fill="#95B0FF"/>
    <path d="M179.929 194.23C179.823 194.23 179.68 194.23 179.574 194.23C178.507 194.158 177.548 193.658 176.872 192.907C176.197 192.156 175.877 191.191 175.948 190.19L176.517 183.612C176.552 183.397 176.588 183.183 176.659 182.968C177.121 181.395 178.685 180.287 180.427 180.287C180.782 180.287 181.173 180.323 181.529 180.43L181.635 180.466C183.697 181.038 184.834 181.538 186.007 182.11C187.109 182.611 188.247 183.147 190.095 183.683L189.029 193.443L180.214 194.301C180.107 194.23 180 194.23 179.929 194.23Z" fill="white"/>
    <path d="M180.391 180.752C180.711 180.752 181.031 180.788 181.351 180.895L181.422 180.931H181.457C183.483 181.503 184.585 182.003 185.758 182.54C186.789 183.004 187.855 183.505 189.49 184.005L188.531 192.907L180.142 193.729C180.071 193.729 180 193.729 179.929 193.729C179.822 193.729 179.715 193.729 179.609 193.729C178.685 193.658 177.832 193.229 177.263 192.585C176.694 191.942 176.41 191.12 176.481 190.297L177.05 183.719C177.085 183.541 177.121 183.326 177.156 183.147C177.547 181.717 178.862 180.752 180.391 180.752ZM180.391 179.68C178.436 179.68 176.659 180.895 176.09 182.754C176.019 183.004 175.983 183.255 175.948 183.505L175.379 190.083C175.201 192.442 177.05 194.48 179.502 194.695C179.644 194.695 179.751 194.73 179.893 194.73C180 194.73 180.106 194.73 180.213 194.73L189.455 193.837L190.628 183.183C186.433 182.039 185.936 181.038 181.706 179.858C181.67 179.858 181.635 179.858 181.599 179.823C181.244 179.751 180.817 179.68 180.391 179.68Z" fill="#3A3E42"/>
    <path d="M208.97 211.426C202.287 205.813 201.079 202.238 201.079 202.238C201.079 202.238 205.842 202.238 207.654 202.989C212.951 205.134 220.557 205.634 220.557 205.634C219.491 210.854 217.145 215.144 216.043 216.967C215.261 218.218 211.316 213.392 208.97 211.426Z" fill="#EBEBEB"/>
    <path d="M204.989 157.05L199.23 156.192C193.685 155.369 189.917 149.185 190.806 142.464L192.121 132.74C193.01 126.019 198.306 121.192 203.816 122.05L209.574 122.908C215.119 123.731 218.922 129.915 217.998 136.636L217.394 141.141C217.394 141.034 218.816 140.39 218.887 140.39C219.384 140.211 219.562 140.068 220.06 140.14C221.766 140.39 221.695 144.001 221.019 145.61C220.735 146.253 220.344 146.789 219.917 147.29C219.455 147.826 218.993 148.291 218.425 148.648C217.998 148.899 217.536 149.042 217.074 149.042C216.896 149.042 216.185 148.72 216.114 148.97C214.657 154.833 210.071 157.8 204.989 157.05Z" fill="white" stroke="#3A3E42" stroke-width="1.0725" stroke-miterlimit="10" stroke-linejoin="round"/>
    <path d="M205.699 148.934C202.252 150.436 200.012 149.9 197.382 147.361L205.699 148.934Z" fill="white"/>
    <path d="M205.699 148.934C202.252 150.436 200.012 149.9 197.382 147.361" stroke="#3A3E42" stroke-width="0.53625" stroke-linecap="round" stroke-linejoin="round"/>
    <path d="M194.894 138.925C194.894 138.746 194.929 138.567 194.965 138.424C195.356 136.851 196.849 135.922 198.306 136.351C199.763 136.78 200.616 138.388 200.225 139.961" fill="white"/>
    <path d="M194.894 138.925C194.894 138.746 194.929 138.567 194.965 138.424C195.356 136.851 196.849 135.922 198.306 136.351C199.763 136.78 200.616 138.388 200.225 139.961" stroke="#2C3ACF" stroke-width="0.53625" stroke-linecap="round" stroke-linejoin="round"/>
    <path d="M206.339 141.498C206.339 141.32 206.374 141.141 206.41 140.998C206.801 139.425 208.294 138.495 209.751 138.924C211.209 139.353 212.062 140.962 211.671 142.535" fill="white"/>
    <path d="M206.339 141.498C206.339 141.32 206.374 141.141 206.41 140.998C206.801 139.425 208.294 138.495 209.751 138.924C211.209 139.353 212.062 140.962 211.671 142.535" stroke="#2C3ACF" stroke-width="0.53625" stroke-linecap="round" stroke-linejoin="round"/>
    <path d="M205.949 114.293C226.671 111.683 223.65 133.312 220.238 139.211C219.669 140.212 218.318 140.14 217.892 140.069C217.536 138.639 218.851 132.132 215.368 128.45C211.885 124.768 205.877 126.09 203.141 125.626C199.195 124.982 194.61 121.55 191.517 134.492C190.309 128.271 187.11 118.44 194.894 112.184C198.235 116.974 201.754 114.793 205.949 114.293Z" fill="#F4F4F4" stroke="#3A3E42" stroke-width="1.0725" stroke-miterlimit="10" stroke-linecap="round" stroke-linejoin="round"/>
    <path d="M171.292 220.756C159.988 215.966 155.51 213.499 150.462 213.034C140.83 212.212 136.742 225.261 135.249 229.622" stroke="#4051CC" stroke-width="1.0725" stroke-miterlimit="10" stroke-linejoin="round"/>
    <path d="M168.555 220.22L147.37 258.794L157.216 215.465C160.877 216.895 168.555 220.22 168.555 220.22Z" fill="#EBEBEB"/>
    <path d="M174.242 196.411C179.218 198.198 184.265 199.7 189.419 200.844C194.396 201.952 199.763 203.132 204.846 202.738C205.699 202.667 206.588 202.56 207.441 202.417" stroke="#4051CC" stroke-width="1.0725" stroke-miterlimit="10" stroke-linejoin="round"/>
    <path d="M79.0882 76.1833C88.4718 76.1833 96.0787 68.5326 96.0787 59.0948C96.0787 49.6571 88.4718 42.0063 79.0882 42.0063C69.7046 42.0063 62.0977 49.6571 62.0977 59.0948C62.0977 68.5326 69.7046 76.1833 79.0882 76.1833Z" fill="#2C3ACF"/>
    <path d="M68.0691 64.5285C67.998 64.5285 67.9624 64.5285 67.8913 64.4927C67.6781 64.3855 67.5714 64.1353 67.6781 63.9208L73.1875 51.8015C73.2942 51.587 73.543 51.4797 73.7563 51.587C73.9695 51.6942 74.0762 51.9445 73.9695 52.159L68.4601 64.2783C68.389 64.4213 68.2112 64.5285 68.0691 64.5285Z" fill="white"/>
    <path d="M79.0883 64.529C78.9106 64.529 78.7684 64.4217 78.6973 64.2787L73.1878 52.1595C73.0812 51.945 73.1878 51.6947 73.4011 51.5875C73.6144 51.4802 73.8632 51.5875 73.9698 51.802L79.4793 63.9212C79.5859 64.1357 79.4793 64.386 79.266 64.4932C79.2305 64.4932 79.1594 64.529 79.0883 64.529Z" fill="white"/>
    <path d="M79.0896 64.529C79.0185 64.529 78.9829 64.529 78.9118 64.4932C78.6986 64.386 78.5919 64.1357 78.6986 63.9212L84.208 51.802C84.3147 51.5875 84.5635 51.4802 84.7768 51.5875C84.99 51.6947 85.0967 51.945 84.99 52.1595L79.4806 64.2787C79.4095 64.4217 79.2673 64.529 79.0896 64.529Z" fill="white"/>
    <path d="M90.143 64.5291C89.9653 64.5291 89.8231 64.4218 89.752 64.2788L84.2425 52.1238C84.1359 51.9093 84.2425 51.6591 84.4558 51.5518C84.6691 51.4446 84.9179 51.5518 85.0245 51.7663L90.534 63.8856C90.6406 64.1001 90.534 64.3503 90.3207 64.4576C90.2496 64.4933 90.2141 64.5291 90.143 64.5291Z" fill="white"/>
    <path d="M68.0339 66.2453C68.9565 66.2453 69.7045 65.5251 69.7045 64.6366C69.7045 63.7481 68.9565 63.0278 68.0339 63.0278C67.1112 63.0278 66.3633 63.7481 66.3633 64.6366C66.3633 65.5251 67.1112 66.2453 68.0339 66.2453Z" fill="white"/>
    <path d="M79.0886 66.2453C80.0112 66.2453 80.7592 65.5251 80.7592 64.6366C80.7592 63.7481 80.0112 63.0278 79.0886 63.0278C78.1659 63.0278 77.418 63.7481 77.418 64.6366C77.418 65.5251 78.1659 66.2453 79.0886 66.2453Z" fill="white"/>
    <path d="M90.1428 66.2453C91.0654 66.2453 91.8134 65.5251 91.8134 64.6366C91.8134 63.7481 91.0654 63.0278 90.1428 63.0278C89.2201 63.0278 88.4722 63.7481 88.4722 64.6366C88.4722 65.5251 89.2201 66.2453 90.1428 66.2453Z" fill="white"/>
    <path d="M121.813 26.8838C120.249 26.8838 118.97 28.1708 118.934 29.7438V32.9255C118.65 32.9255 118.365 32.9613 118.046 32.9613C117.726 32.9613 117.441 32.9613 117.157 32.997V29.7438C117.157 28.1708 115.842 26.8838 114.242 26.9553C112.714 26.9553 111.505 28.2423 111.47 29.7438V37.3228C111.505 38.8958 112.785 40.1828 114.384 40.1113C115.948 40.0755 117.157 38.8243 117.157 37.3228V34.141C117.441 34.141 117.726 34.1053 118.046 34.1053C118.365 34.1053 118.65 34.1053 118.934 34.0695V37.287C118.97 38.86 120.249 40.147 121.849 40.0755C123.413 40.0398 124.621 38.7885 124.621 37.287V29.7438C124.657 28.1708 123.377 26.8838 121.813 26.8838ZM114.313 28.0278C115.273 28.0278 115.984 28.7785 115.984 29.708V33.0328C115.166 33.14 114.349 33.3903 113.567 33.7478C113.247 33.9265 112.927 34.0695 112.607 34.3198V29.7438C112.607 28.8143 113.354 28.0278 114.313 28.0278ZM115.984 37.3228C115.984 38.288 115.237 39.003 114.313 39.003C113.354 39.003 112.643 38.2523 112.643 37.3228V36.572C112.643 35.9285 113.176 35.2493 114.065 34.8918C114.669 34.6058 115.344 34.427 116.019 34.3198L115.984 37.3228ZM121.813 39.003C120.854 39.003 120.143 38.2523 120.143 37.3228V33.998C120.96 33.8908 121.778 33.6405 122.56 33.283C122.88 33.1043 123.2 32.9613 123.519 32.711V37.3228C123.484 38.288 122.702 39.003 121.813 39.003ZM122.062 32.2105C121.458 32.4965 120.783 32.6753 120.107 32.7825V29.7438C120.107 28.7785 120.854 28.0635 121.778 28.0635C122.737 28.0635 123.448 28.8143 123.448 29.7438V30.4945C123.484 31.1738 122.951 31.7815 122.062 32.2105Z" fill="#2C3ACF"/>
    <path d="M286.051 229.531C290.715 231.444 296.025 229.205 297.911 224.53C299.798 219.855 297.547 214.514 292.883 212.601C288.22 210.688 282.91 212.927 281.023 217.602C279.136 222.277 281.387 227.618 286.051 229.531Z" fill="#2C3ACF"/>
    <path d="M282.895 221.505C282.861 221.491 282.827 221.477 282.806 221.428C282.717 221.352 282.704 221.186 282.814 221.111L287.995 216.212C288.071 216.123 288.237 216.11 288.312 216.221C288.401 216.298 288.414 216.464 288.304 216.539L283.123 221.438C283.081 221.541 282.964 221.533 282.895 221.505Z" fill="white"/>
    <path d="M288.386 223.754C288.317 223.726 288.228 223.649 288.235 223.532L287.919 216.379C287.927 216.261 288.017 216.138 288.134 216.145C288.251 216.153 288.374 216.244 288.367 216.361L288.683 223.515C288.676 223.632 288.586 223.756 288.469 223.748C288.455 223.782 288.42 223.768 288.386 223.754Z" fill="white"/>
    <path d="M288.38 223.749C288.345 223.735 288.311 223.721 288.291 223.672C288.201 223.595 288.188 223.429 288.299 223.354L293.48 218.456C293.556 218.366 293.721 218.354 293.796 218.465C293.885 218.542 293.898 218.708 293.788 218.783L288.607 223.682C288.565 223.785 288.448 223.777 288.38 223.749Z" fill="white"/>
    <path d="M293.869 225.998C293.801 225.97 293.712 225.893 293.719 225.775L293.403 218.622C293.41 218.505 293.5 218.381 293.617 218.389C293.734 218.397 293.858 218.488 293.85 218.605L294.166 225.758C294.159 225.876 294.069 225.999 293.952 225.991C293.938 226.026 293.904 226.012 293.869 225.998Z" fill="white"/>
    <path d="M282.548 222.371C283.003 222.557 283.515 222.354 283.691 221.917C283.868 221.48 283.642 220.975 283.187 220.788C282.732 220.601 282.22 220.805 282.044 221.242C281.867 221.679 282.093 222.184 282.548 222.371Z" fill="white"/>
    <path d="M288.031 224.615C288.486 224.802 288.998 224.598 289.174 224.161C289.351 223.724 289.125 223.219 288.67 223.032C288.215 222.846 287.703 223.049 287.527 223.486C287.35 223.923 287.576 224.428 288.031 224.615Z" fill="white"/>
    <path d="M293.515 226.859C293.97 227.045 294.481 226.842 294.658 226.405C294.834 225.968 294.608 225.462 294.153 225.276C293.698 225.089 293.187 225.292 293.01 225.729C292.834 226.166 293.06 226.672 293.515 226.859Z" fill="white"/>
  </g>
  <defs>
    <clipPath id="clip0_581:22235">
      <rect width="300" height="286" fill="white"/>
    </clipPath>
  </defs>
</svg>
