<svg width="450" height="319" viewBox="0 0 450 319" fill="none" xmlns="http://www.w3.org/2000/svg">
  <rect x="0.5" y="0.5" width="449" height="318" rx="7.5" fill="url(#paint0_linear)" stroke="url(#paint1_linear)"/>
  <rect x="20" y="20" width="210" height="27" rx="4" fill="#E9EBFA"/>
  <rect x="20" y="57" width="210" height="15" rx="4" fill="#E9EBFA" fill-opacity="0.4"/>
  <rect x="381" y="20" width="52" height="22" rx="4" fill="#FBAF1D"/>
  <rect x="20" y="88" width="83.7818" height="94.2545" rx="4" fill="#475391"/>
  <rect x="40.9455" y="101.963" width="41.8909" height="41.8909" rx="4" fill="#A0AAE4"/>
  <rect x="37.4545" y="157.818" width="48" height="6.10909" rx="3.05455" fill="#A0AAE4"/>
  <rect x="20" y="204" width="83.7818" height="94.2545" rx="4" fill="#475391"/>
  <rect x="40.9455" y="217.963" width="41.8909" height="41.8909" rx="4" fill="#A0AAE4"/>
  <rect x="37.4545" y="273.818" width="48" height="6.10909" rx="3.05455" fill="#A0AAE4"/>
  <rect x="128.782" y="88" width="83.7818" height="94.2545" rx="4" fill="#475391"/>
  <rect x="149.727" y="101.963" width="41.8909" height="41.8909" rx="4" fill="#A0AAE4"/>
  <rect x="146.236" y="157.818" width="48" height="6.10909" rx="3.05455" fill="#A0AAE4"/>
  <rect x="128.782" y="204" width="83.7818" height="94.2545" rx="4" fill="#475391"/>
  <rect x="149.727" y="217.963" width="41.8909" height="41.8909" rx="4" fill="#A0AAE4"/>
  <rect x="146.236" y="273.818" width="48" height="6.10909" rx="3.05455" fill="#A0AAE4"/>
  <rect x="237.564" y="88" width="83.7818" height="94.2545" rx="4" fill="#475391"/>
  <rect x="258.509" y="101.963" width="41.8909" height="41.8909" rx="4" fill="#A0AAE4"/>
  <rect x="255.018" y="157.818" width="48" height="6.10909" rx="3.05455" fill="#A0AAE4"/>
  <rect x="237.564" y="204" width="83.7818" height="94.2545" rx="4" fill="#475391"/>
  <rect x="258.509" y="217.963" width="41.8909" height="41.8909" rx="4" fill="#A0AAE4"/>
  <rect x="255.018" y="273.818" width="48" height="6.10909" rx="3.05455" fill="#A0AAE4"/>
  <rect x="346.345" y="88" width="83.7818" height="94.2545" rx="4" fill="#475391"/>
  <rect x="367.291" y="101.963" width="41.8909" height="41.8909" rx="4" fill="#A0AAE4"/>
  <rect x="363.8" y="157.818" width="48" height="6.10909" rx="3.05455" fill="#A0AAE4"/>
  <rect x="346.345" y="204" width="83.7818" height="94.2545" rx="4" fill="#475391"/>
  <rect x="367.291" y="217.963" width="41.8909" height="41.8909" rx="4" fill="#A0AAE4"/>
  <rect x="363.8" y="273.818" width="48" height="6.10909" rx="3.05455" fill="#A0AAE4"/>
  <defs>
    <linearGradient id="paint0_linear" x1="-0.0133426" y1="159.497" x2="449.992" y2="159.497" gradientUnits="userSpaceOnUse">
      <stop stop-color="#9DAEEA"/>
      <stop offset="0.338" stop-color="#8F9DE4"/>
      <stop offset="0.9888" stop-color="#6B7CD4"/>
      <stop offset="1" stop-color="#6B82D3"/>
    </linearGradient>
    <linearGradient id="paint1_linear" x1="-0.00983809" y1="159.507" x2="449.988" y2="159.507" gradientUnits="userSpaceOnUse">
      <stop stop-color="#E0E6F7"/>
      <stop offset="1" stop-color="#C8D3F0"/>
    </linearGradient>
  </defs>
</svg>
