<svg width="246" height="242" viewBox="0 0 246 242" fill="none" xmlns="http://www.w3.org/2000/svg">
  <g clip-path="url(#clip0)">
    <path d="M243.246 165.952C246.905 168.048 246.918 171.457 243.284 173.553L129.988 238.983C126.354 241.079 120.446 241.079 116.787 238.983L2.75398 173.553C-0.905244 171.457 -0.917948 168.048 2.71586 165.952L116.012 100.522C119.646 98.4255 125.554 98.4255 129.213 100.522L243.246 165.952Z" fill="#212F60"/>
    <g opacity="0.1">
      <g opacity="0.1">
        <path opacity="0.1" d="M178.105 143.394C172.006 139.872 164.904 137.144 156.985 135.288C149.341 133.496 141.272 132.589 133.001 132.586C124.73 132.586 116.67 133.496 109.046 135.291C101.152 137.15 94.0799 139.875 88.0198 143.396C81.9597 146.918 77.273 151.026 74.0924 155.604C71.0202 160.026 69.475 164.695 69.5021 169.49C69.5322 174.281 71.1255 178.95 74.246 183.372C76.7429 186.908 80.1374 190.161 84.3602 193.082L75.8996 198.001L75.1345 197.558C74.0201 196.913 72.1948 196.913 71.0864 197.558L9.92202 233.099C8.81059 233.744 8.81963 234.798 9.93406 235.442L19.7411 241.106C20.8555 241.749 22.6778 241.749 23.7892 241.106L84.9536 205.561C86.062 204.917 86.056 203.862 84.9415 203.217L84.1765 202.775L92.6372 197.856C97.6944 200.293 103.321 202.248 109.432 203.681C117.076 205.474 125.146 206.386 133.417 206.386C141.688 206.386 149.748 205.477 157.374 203.685C165.269 201.826 172.344 199.101 178.404 195.579C184.464 192.059 189.144 187.953 192.324 183.374C195.394 178.95 196.94 174.278 196.912 169.49C196.885 164.7 195.289 160.029 192.168 155.604C188.939 151.02 184.207 146.914 178.105 143.394Z" fill="#010101"/>
      </g>
    </g>
    <path d="M90.1885 151.074C80.6073 156.643 75.8092 163.943 75.7852 171.259L75.8212 158.72C75.8423 151.408 80.6404 144.103 90.2245 138.534C99.128 133.36 110.631 130.574 122.348 130.176C122.335 134.357 122.323 138.534 122.312 142.715C110.598 143.113 99.0919 145.898 90.1885 151.074Z" fill="#B7B7B8"/>
    <path d="M122.312 142.715C122.323 138.534 122.335 134.357 122.348 130.176C136.013 129.712 149.967 132.498 160.422 138.534C170.193 144.176 175.072 151.598 175.051 159.01L175.015 171.549C175.036 164.14 170.157 156.715 160.386 151.074C149.931 145.037 135.977 142.251 122.312 142.715Z" fill="#B7B7B8"/>
    <path d="M183.319 159.035L183.282 171.573C183.271 175.865 181.867 180.052 179.114 184.022L179.15 171.483C181.904 167.513 183.304 163.326 183.319 159.035Z" fill="#B7B7B8"/>
    <path opacity="0.302" d="M175.051 159.007L175.015 171.546C174.994 178.862 170.199 186.163 160.614 191.732C141.323 202.944 109.833 202.944 90.4173 191.735C80.6464 186.094 75.764 178.672 75.785 171.263L75.8212 158.724C75.8001 166.133 80.6795 173.555 90.4535 179.196C109.869 190.404 141.359 190.404 160.65 179.193C170.232 173.624 175.03 166.324 175.051 159.007Z" fill="#3FC3F1"/>
    <path d="M67.5171 171.246L67.5533 158.706C67.5533 158.761 67.5533 158.811 67.5533 158.866C67.5804 163.219 69.0291 167.463 71.8633 171.48C74.1314 174.694 77.2127 177.649 81.05 180.305C82.1824 181.089 83.3782 181.844 84.6433 182.573C85.9053 183.302 87.2155 183.992 88.5709 184.645C93.1641 186.859 98.2785 188.633 103.83 189.934C110.775 191.564 118.109 192.392 125.621 192.389C133.137 192.389 140.459 191.561 147.389 189.934C154.563 188.248 160.992 185.769 166.497 182.567C172.003 179.369 176.259 175.64 179.147 171.477L179.111 184.016C176.223 188.175 171.966 191.908 166.46 195.107C160.955 198.308 154.527 200.786 147.353 202.473C140.423 204.103 133.104 204.928 125.585 204.928C118.071 204.928 110.739 204.103 103.793 202.473C98.2394 201.17 93.128 199.398 88.5347 197.184C87.1793 196.531 85.8691 195.842 84.6071 195.112C83.3451 194.383 82.1464 193.628 81.0138 192.844C77.1765 190.191 74.0953 187.233 71.8273 184.019C68.99 180.001 67.5412 175.757 67.5141 171.405C67.5171 171.351 67.5171 171.299 67.5171 171.246Z" fill="#B7B7B8"/>
    <path d="M75.041 192.626L75.0139 202.394L69.1556 199.012L69.1827 189.243L75.041 192.626Z" fill="#4E4D4E"/>
    <path d="M86.8873 185.763L86.8602 195.534L75.0141 202.395L75.0412 192.627L86.8873 185.763Z" fill="#3B3B3C"/>
    <path d="M86.8914 185.762L75.0452 192.623L69.1869 189.241L81.033 182.38C81.9155 182.988 82.8493 183.579 83.8311 184.147C84.8161 184.717 85.8372 185.253 86.8914 185.762Z" fill="#4E4D4E"/>
    <path d="M179.15 171.479C176.262 175.64 172.006 179.371 166.5 182.57C160.994 185.771 154.567 188.251 147.392 189.938C140.462 191.567 133.142 192.392 125.624 192.392C118.109 192.392 110.779 191.567 103.833 189.938C98.2785 188.633 93.1671 186.862 88.5738 184.649C87.2184 183.994 85.9082 183.305 84.6462 182.576C83.3843 181.846 82.1855 181.091 81.0529 180.307C77.2156 177.654 74.1344 174.697 71.8664 171.482C69.0291 167.465 67.5803 163.221 67.5562 158.868C67.5321 154.517 68.9357 150.273 71.7248 146.254C74.6133 142.095 78.8722 138.363 84.3782 135.161C89.884 131.962 96.3116 129.487 103.483 127.797C110.411 126.167 117.733 125.339 125.248 125.339C132.762 125.339 140.094 126.164 147.043 127.794C154.235 129.48 160.69 131.959 166.235 135.158C171.777 138.357 176.075 142.086 179.008 146.248C181.843 150.266 183.295 154.514 183.319 158.865C183.343 163.218 181.94 167.462 179.15 171.479ZM90.4533 179.196C109.869 190.404 141.359 190.404 160.65 179.193C179.94 167.986 179.837 149.745 160.422 138.534C141.003 127.324 109.513 127.324 90.2244 138.532C70.9326 149.745 71.0351 167.986 90.4533 179.196Z" fill="#EAEAE8"/>
    <path d="M76.9477 193.582L76.9116 206.121C76.9116 206.503 76.6615 206.889 76.1586 207.178L76.1947 194.639C76.6977 194.35 76.9477 193.964 76.9477 193.582Z" fill="#E7B02A"/>
    <path d="M7.23529 233.264L7.27144 220.724C7.27144 221.112 7.52443 221.501 8.03648 221.797L8.00033 234.335C7.49131 234.04 7.23529 233.651 7.23529 233.264Z" fill="#F5BA2B"/>
    <path d="M76.1978 194.639L76.1616 207.178L20.5875 239.476L20.6206 226.937L76.1978 194.639Z" fill="#E7B02A"/>
    <path d="M16.946 226.937L16.9099 239.476L8.0004 234.334L8.03654 221.796L16.946 226.937Z" fill="#F5BA2B"/>
    <path d="M20.6207 226.937L20.5845 239.476C19.5755 240.064 17.9219 240.061 16.9069 239.476L16.943 226.937C17.9581 227.522 19.6117 227.524 20.6207 226.937Z" fill="#F5BA2B"/>
    <path d="M76.1853 192.51C77.2003 193.094 77.2033 194.054 76.1974 194.639L20.6202 226.937C19.6112 227.524 17.9576 227.521 16.9425 226.937L8.03605 221.796C7.02101 221.207 7.015 220.253 8.02401 219.665L63.5981 187.368C64.6041 186.784 66.2607 186.781 67.2758 187.368L67.9716 187.769L75.4895 192.109L76.1853 192.51Z" fill="#FFC53D"/>
    <path d="M124.885 82.8206L163.634 104.675L125.136 126.529L86.3871 104.675L124.885 82.8206Z" fill="#FDCF77"/>
    <path d="M87.1673 104.675L124.885 83.2607L162.855 104.675L125.136 126.09L87.1673 104.675Z" fill="#FDCF77"/>
    <path d="M163.634 104.675L163.294 149.459L124.787 171.314L125.136 126.529L163.634 104.675Z" fill="url(#paint0_linear)"/>
    <path d="M125.136 126.529L124.787 171.314L86.0375 149.459L86.3873 104.675L125.136 126.529Z" fill="url(#paint1_linear)"/>
    <path d="M86.3871 104.675V149.459L124.787 171.314L163.294 149.459" stroke="#FDCF77" stroke-opacity="0.2" stroke-width="0.8562" stroke-miterlimit="10"/>
    <g opacity="0.12" filter="url(#filter0_f)">
      <path opacity="0.0476" d="M87.5628 62.8171L119.434 44.7204C122.833 42.7923 126.994 42.7833 130.402 44.7024L162.604 62.862C170.146 67.1126 170.164 77.9725 162.631 82.2501L130.76 100.347C127.362 102.275 123.201 102.284 119.793 100.365L87.5987 82.2052C80.0479 77.9546 80.03 67.0948 87.5628 62.8171Z" fill="#EAC47C"/>
      <path opacity="0.0952" d="M87.545 67.0864L119.416 48.9896C122.815 47.0615 126.976 47.0525 130.384 48.9716L162.586 67.1312C170.129 71.3819 170.146 82.2417 162.613 86.5193L130.743 104.616C127.343 106.544 123.183 106.553 119.775 104.634L87.581 86.4745C80.0301 82.2149 80.0211 71.355 87.545 67.0864Z" fill="#EAC47C"/>
      <path opacity="0.1429" d="M87.5359 71.3546L119.407 53.2578C122.806 51.3297 126.967 51.3208 130.375 53.2399L162.577 71.3994C170.119 75.6501 170.137 86.5099 162.604 90.7875L130.734 108.884C127.335 110.812 123.174 110.821 119.766 108.902L87.5718 90.7427C80.021 86.4831 80.003 75.6321 87.5359 71.3546Z" fill="#EAC47C"/>
      <path opacity="0.1905" d="M87.5181 75.6238L119.39 57.527C122.788 55.5989 126.949 55.5899 130.356 57.509L162.56 75.6686C170.102 79.9193 170.119 90.7792 162.586 95.0568L130.715 113.153C127.316 115.082 123.156 115.091 119.748 113.171L87.5539 95.0119C80.0032 90.7522 79.9942 79.8924 87.5181 75.6238Z" fill="#EAC47C"/>
      <path opacity="0.2381" d="M87.5092 79.8929L119.38 61.7962C122.779 59.8681 126.94 59.8591 130.348 61.7783L162.551 79.9378C170.093 84.1884 170.11 95.0484 162.578 99.3259L130.707 117.423C127.308 119.351 123.147 119.36 119.739 117.441L87.545 99.2811C79.9943 95.0214 79.9763 84.1706 87.5092 79.8929Z" fill="#EAC47C"/>
      <path opacity="0.2857" d="M87.4911 84.1606L119.363 66.0639C122.761 64.1358 126.923 64.1268 130.329 66.0459L162.533 84.2055C170.075 88.4561 170.092 99.316 162.56 103.594L130.688 121.69C127.29 123.619 123.129 123.627 119.721 121.708L87.527 103.549C79.9763 99.2981 79.9673 88.4383 87.4911 84.1606Z" fill="#EAC47C"/>
      <path opacity="0.3333" d="M87.4822 88.4304L119.353 70.3336C122.752 68.4056 126.913 68.3966 130.321 70.3157L162.523 88.4752C170.066 92.7259 170.083 103.586 162.55 107.863L130.68 125.96C127.281 127.888 123.12 127.897 119.712 125.978L87.5181 107.818C79.9673 103.559 79.9493 92.708 87.4822 88.4304Z" fill="#EAC47C"/>
      <path opacity="0.381" d="M87.4642 92.6991L119.335 74.6023C122.734 72.6742 126.895 72.6653 130.302 74.5843L162.506 92.744C170.048 96.9946 170.066 107.854 162.533 112.132L130.661 130.229C127.263 132.157 123.101 132.166 119.695 130.247L87.5 112.087C79.9493 107.837 79.9403 96.9767 87.4642 92.6991Z" fill="#EAC47C"/>
      <path opacity="0.4286" d="M87.4553 96.9677L119.327 78.871C122.725 76.9429 126.886 76.934 130.294 78.853L162.496 97.0126C170.039 101.263 170.056 112.123 162.523 116.401L130.653 134.498C127.254 136.426 123.093 136.435 119.685 134.515L87.4911 116.356C79.9404 112.096 79.9224 101.236 87.4553 96.9677Z" fill="#EAC47C"/>
      <path opacity="0.4762" d="M87.4374 101.237L119.309 83.1407C122.708 81.2127 126.869 81.2037 130.276 83.1228L162.479 101.282C170.021 105.533 170.039 116.393 162.506 120.67L130.634 138.767C127.236 140.695 123.075 140.704 119.668 138.785L87.4733 120.626C79.9225 116.366 79.9136 105.515 87.4374 101.237Z" fill="#EAC47C"/>
      <path opacity="0.5238" d="M87.4283 105.506L119.3 87.4089C122.698 85.4809 126.86 85.4719 130.267 87.391L162.47 105.551C170.012 109.801 170.029 120.661 162.496 124.939L130.626 143.035C127.226 144.964 123.066 144.972 119.658 143.054L87.4642 124.894C79.9134 120.634 79.8954 109.774 87.4283 105.506Z" fill="#EAC47C"/>
      <path opacity="0.5714" d="M87.4105 109.775L119.282 91.6781C122.681 89.75 126.842 89.7411 130.249 91.6602L162.452 109.82C169.994 114.07 170.012 124.93 162.479 129.208L130.607 147.305C127.209 149.233 123.049 149.242 119.641 147.323L87.4374 129.163C79.8957 124.903 79.8867 114.053 87.4105 109.775Z" fill="#EAC47C"/>
      <path opacity="0.619" d="M87.4016 114.044L119.273 95.9468C122.671 94.0187 126.833 94.0098 130.241 95.9288L162.443 114.088C169.985 118.339 170.003 129.199 162.47 133.477L130.599 151.573C127.201 153.502 123.039 153.51 119.631 151.592L87.4374 133.432C79.8867 129.181 79.8687 118.321 87.4016 114.044Z" fill="#EAC47C"/>
      <path opacity="0.6667" d="M87.3836 118.312L119.254 100.216C122.654 98.2874 126.814 98.2785 130.222 100.198L162.425 118.357C169.967 122.608 169.985 133.468 162.452 137.745L130.581 155.842C127.182 157.77 123.021 157.779 119.614 155.86L87.4195 137.7C79.8687 133.441 79.8597 122.59 87.3836 118.312Z" fill="#EAC47C"/>
      <path opacity="0.7143" d="M87.3747 122.581L119.246 104.484C122.644 102.556 126.806 102.547 130.214 104.466L162.416 122.626C169.958 126.877 169.976 137.736 162.443 142.014L130.572 160.111C127.174 162.039 123.012 162.048 119.605 160.129L87.4106 141.969C79.8598 137.718 79.8418 126.859 87.3747 122.581Z" fill="#EAC47C"/>
      <path opacity="0.7619" d="M87.3567 126.85L119.227 108.753C122.627 106.825 126.787 106.816 130.195 108.735L162.398 126.895C169.941 131.145 169.958 142.005 162.425 146.283L130.554 164.379C127.155 166.307 122.994 166.316 119.587 164.397L87.3925 146.237C79.8418 141.978 79.8328 131.118 87.3567 126.85Z" fill="#EAC47C"/>
      <path opacity="0.8095" d="M87.3478 131.118L119.219 113.022C122.618 111.094 126.779 111.085 130.187 113.004L162.389 131.163C169.931 135.414 169.949 146.274 162.416 150.552L130.545 168.648C127.147 170.576 122.986 170.585 119.578 168.666L87.3837 150.506C79.8329 146.247 79.8149 135.396 87.3478 131.118Z" fill="#EAC47C"/>
      <path opacity="0.8571" d="M87.3298 135.388L119.2 117.291C122.6 115.363 126.76 115.354 130.168 117.273L162.371 135.432C169.914 139.683 169.931 150.543 162.398 154.821L130.527 172.917C127.128 174.846 122.967 174.854 119.56 172.936L87.3657 154.776C79.8149 150.517 79.806 139.656 87.3298 135.388Z" fill="#EAC47C"/>
      <path opacity="0.9048" d="M87.3208 139.657L119.192 121.56C122.591 119.632 126.752 119.623 130.16 121.542L162.362 139.702C169.904 143.952 169.922 154.812 162.389 159.089L130.519 177.187C127.119 179.115 122.959 179.124 119.551 177.204L87.3567 159.045C79.8059 154.785 79.7879 143.935 87.3208 139.657Z" fill="#EAC47C"/>
      <path opacity="0.9524" d="M87.3117 143.925L119.183 125.829C122.581 123.901 126.743 123.892 130.151 125.811L162.354 143.971C169.895 148.221 169.913 159.081 162.381 163.358L130.509 181.456C127.111 183.383 122.949 183.393 119.542 181.473L87.3476 163.314C79.7968 159.064 79.7788 148.203 87.3117 143.925Z" fill="#EAC47C"/>
      <path opacity="0.45" d="M87.294 148.194L119.165 130.097C122.564 128.169 126.725 128.16 130.133 130.08L162.335 148.24C169.877 152.49 169.895 163.35 162.362 167.627L130.492 185.723C127.092 187.652 122.932 187.662 119.524 185.742L87.3298 167.583C79.7791 163.323 79.7611 152.472 87.294 148.194Z" fill="#EAC47C"/>
    </g>
  </g>
  <defs>
    <filter id="filter0_f" x="77.6555" y="39.2687" width="94.6151" height="151.907" filterUnits="userSpaceOnUse" color-interpolation-filters="sRGB">
      <feFlood flood-opacity="0" result="BackgroundImageFix"/>
      <feBlend mode="normal" in="SourceGraphic" in2="BackgroundImageFix" result="shape"/>
      <feGaussianBlur stdDeviation="2" result="effect1_foregroundBlur"/>
    </filter>
    <linearGradient id="paint0_linear" x1="124.792" y1="137.98" x2="163.635" y2="137.98" gradientUnits="userSpaceOnUse">
      <stop stop-color="#FAA65A"/>
      <stop offset="1" stop-color="#EE2D70"/>
    </linearGradient>
    <linearGradient id="paint1_linear" x1="86.0433" y1="137.98" x2="125.138" y2="137.98" gradientUnits="userSpaceOnUse">
      <stop stop-color="#FAA65A"/>
      <stop offset="1" stop-color="#EE2D70"/>
    </linearGradient>
    <clipPath id="clip0">
      <rect width="246" height="242" fill="white"/>
    </clipPath>
  </defs>
</svg>
