<svg width="246" height="242" viewBox="0 0 246 242" fill="none" xmlns="http://www.w3.org/2000/svg">
  <path d="M243.246 167.032C246.905 169.138 246.918 172.564 243.284 174.67L129.988 240.42C126.354 242.526 120.446 242.526 116.787 240.42L2.75398 174.67C-0.905244 172.564 -0.917948 169.138 2.71586 167.032L116.012 101.282C119.646 99.1756 125.554 99.1756 129.213 101.282L243.246 167.032Z" fill="#212F60"/>
  <path d="M120.102 45.6436L160.518 68.4067L120.364 91.1698L79.9471 68.4067L120.102 45.6436Z" fill="#FDCF77"/>
  <path d="M80.7603 68.4075L120.101 46.1021L159.704 68.4075L120.363 90.713L80.7603 68.4075Z" fill="#FDCF77"/>
  <path d="M160.518 68.4072L160.162 115.054L119.998 137.818L120.363 91.1704L160.518 68.4072Z" fill="url(#paint0_linear)"/>
  <path d="M120.363 91.1704L119.998 137.818L79.5817 115.054L79.9465 68.4072L120.363 91.1704Z" fill="url(#paint1_linear)"/>
  <path d="M79.9471 68.4072V115.054L119.999 137.818L160.163 115.054" stroke="#FDCF77" stroke-opacity="0.2" stroke-width="0.8562" stroke-miterlimit="10"/>
  <g opacity="0.2" filter="url(#filter0_f)">
    <path opacity="0.0476" d="M81.1731 24.5372L114.416 5.68783C117.96 3.67959 122.301 3.67023 125.855 5.66913L159.443 24.5839C167.31 29.0114 167.328 40.3229 159.471 44.7784L126.229 63.6279C122.684 65.6361 118.344 65.6454 114.79 63.6465L81.2105 44.7317C73.3349 40.3043 73.3162 28.9927 81.1731 24.5372Z" fill="#EAC47C"/>
    <path opacity="0.0952" d="M81.1544 28.7213L114.397 9.87189C117.942 7.86365 122.282 7.85432 125.836 9.85322L159.425 28.768C167.291 33.1955 167.31 44.507 159.453 48.9625L126.21 67.8119C122.665 69.8202 118.325 69.8295 114.771 67.8306L81.1918 48.9158C73.3162 44.479 73.3068 33.1675 81.1544 28.7213Z" fill="#EAC47C"/>
    <path opacity="0.1429" d="M81.145 32.8966L114.387 14.0472C117.932 12.0389 122.272 12.0296 125.827 14.0285L159.415 32.9433C167.282 37.3708 167.3 48.6823 159.443 53.1378L126.201 71.9872C122.656 73.9955 118.316 74.0048 114.762 72.0059L81.1825 53.0911C73.3068 48.6543 73.2881 37.3521 81.145 32.8966Z" fill="#EAC47C"/>
    <path opacity="0.1905" d="M81.1263 37.0812L114.369 18.2318C117.914 16.2235 122.254 16.2142 125.808 18.2131L159.397 37.1279C167.263 41.5554 167.282 52.8669 159.425 57.3224L126.182 76.1718C122.637 78.1801 118.297 78.1894 114.743 76.1905L81.1637 57.2757C73.2881 52.8389 73.2787 41.5273 81.1263 37.0812Z" fill="#EAC47C"/>
    <path opacity="0.2381" d="M81.1169 41.257L114.359 22.4076C117.904 20.3993 122.244 20.39 125.799 22.3889L159.387 41.3037C167.253 45.7311 167.272 57.0427 159.415 61.4982L126.173 80.3476C122.628 82.3558 118.288 82.3652 114.733 80.3663L81.1544 61.4515C73.2787 57.0146 73.26 45.7125 81.1169 41.257Z" fill="#EAC47C"/>
    <path opacity="0.2857" d="M81.0982 45.4318L114.341 26.5824C117.886 24.5741 122.226 24.5648 125.78 26.5637L159.368 45.4785C167.235 49.9059 167.253 61.2175 159.396 65.6729L126.154 84.5224C122.609 86.5306 118.269 86.54 114.715 84.5411L81.1356 65.6263C73.26 61.1988 73.2506 49.8873 81.0982 45.4318Z" fill="#EAC47C"/>
    <path opacity="0.3333" d="M81.0888 49.6164L114.331 30.7669C117.876 28.7587 122.216 28.7493 125.771 30.7482L159.359 49.6631C167.225 54.0905 167.244 65.402 159.387 69.8575L126.145 88.707C122.6 90.7152 118.26 90.7245 114.705 88.7256L81.1262 69.8108C73.2506 65.374 73.2318 54.0719 81.0888 49.6164Z" fill="#EAC47C"/>
    <path opacity="0.381" d="M81.0701 53.7917L114.313 34.9422C117.858 32.934 122.198 32.9246 125.752 34.9235L159.34 53.8384C167.207 58.2658 167.225 69.5773 159.368 74.0328L126.126 92.8822C122.581 94.8905 118.241 94.8998 114.687 92.9009L81.1075 73.9861C73.2319 69.5587 73.2225 58.2471 81.0701 53.7917Z" fill="#EAC47C"/>
    <path opacity="0.4286" d="M81.0607 57.9757L114.303 39.1263C117.848 37.118 122.188 37.1087 125.742 39.1076L159.331 58.0224C167.197 62.4499 167.216 73.7614 159.359 78.2169L126.117 97.0663C122.572 99.0745 118.232 99.0839 114.677 97.085L81.0981 78.1702C73.2225 73.7334 73.2038 62.4219 81.0607 57.9757Z" fill="#EAC47C"/>
    <path opacity="0.4762" d="M81.042 62.1515L114.284 43.3021C117.829 41.2938 122.169 41.2845 125.724 43.2834L159.312 62.1982C167.179 66.6257 167.197 77.9372 159.34 82.3927L126.098 101.242C122.553 103.25 118.213 103.26 114.659 101.261L81.0794 82.346C73.2037 77.9092 73.1944 66.607 81.042 62.1515Z" fill="#EAC47C"/>
    <path opacity="0.5238" d="M81.0326 66.3361L114.275 47.4867C117.82 45.4784 122.16 45.4691 125.714 47.468L159.303 66.3828C167.169 70.8102 167.188 82.1218 159.331 86.5772L126.088 105.427C122.544 107.435 118.203 107.444 114.649 105.445L81.07 86.5306C73.1943 82.0937 73.1756 70.7822 81.0326 66.3361Z" fill="#EAC47C"/>
    <path opacity="0.5714" d="M81.0139 70.5114L114.256 51.6619C117.801 49.6537 122.141 49.6444 125.696 51.6433L159.284 70.5581C167.15 74.9855 167.169 86.2971 159.312 90.7526L126.07 109.602C122.525 111.61 118.185 111.62 114.63 109.621L81.0419 90.7058C73.1756 86.269 73.1663 74.9669 81.0139 70.5114Z" fill="#EAC47C"/>
    <path opacity="0.619" d="M81.0045 74.6862L114.247 55.8367C117.792 53.8285 122.132 53.8192 125.686 55.8181L159.275 74.7329C167.141 79.1603 167.16 90.4719 159.303 94.9274L126.06 113.777C122.515 115.785 118.175 115.794 114.621 113.795L81.0419 94.8807C73.1662 90.4532 73.1475 79.1417 81.0045 74.6862Z" fill="#EAC47C"/>
    <path opacity="0.6667" d="M80.9858 78.8712L114.228 60.0218C117.773 58.0136 122.113 58.0042 125.668 60.0031L159.256 78.9179C167.122 83.3454 167.141 94.6569 159.284 99.1124L126.042 117.962C122.497 119.97 118.157 119.979 114.602 117.981L81.0232 99.0657C73.1475 94.6289 73.1382 83.3267 80.9858 78.8712Z" fill="#EAC47C"/>
    <path opacity="0.7143" d="M80.9764 83.047L114.219 64.1976C117.764 62.1893 122.104 62.18 125.658 64.1789L159.247 83.0937C167.113 87.5212 167.132 98.8327 159.275 103.288L126.032 122.138C122.487 124.146 118.147 124.155 114.593 122.156L81.0138 103.242C73.1382 98.814 73.1195 87.5025 80.9764 83.047Z" fill="#EAC47C"/>
    <path opacity="0.7619" d="M80.9577 87.2316L114.2 68.3822C117.745 66.3739 122.085 66.3646 125.639 68.3635L159.228 87.2783C167.094 91.7057 167.113 103.017 159.256 107.473L126.014 126.322C122.469 128.33 118.129 128.34 114.574 126.341L80.9951 107.426C73.1194 102.989 73.1101 91.6777 80.9577 87.2316Z" fill="#EAC47C"/>
    <path opacity="0.8095" d="M80.9483 91.4069L114.191 72.5575C117.736 70.5492 122.076 70.5399 125.63 72.5388L159.218 91.4536C167.085 95.8811 167.104 107.193 159.247 111.648L126.004 130.498C122.459 132.506 118.119 132.515 114.565 130.516L80.9857 111.601C73.1101 107.165 73.0913 95.8623 80.9483 91.4069Z" fill="#EAC47C"/>
    <path opacity="0.8571" d="M80.9296 95.591L114.172 76.7415C117.717 74.7333 122.057 74.724 125.611 76.7229L159.2 95.6377C167.066 100.065 167.085 111.377 159.228 115.832L125.985 134.682C122.44 136.69 118.1 136.699 114.546 134.7L80.967 115.785C73.0913 111.349 73.082 100.037 80.9296 95.591Z" fill="#EAC47C"/>
    <path opacity="0.9048" d="M80.9202 99.7667L114.163 80.9173C117.708 78.9091 122.048 78.8997 125.602 80.8986L159.19 99.8134C167.057 104.241 167.075 115.552 159.218 120.008L125.976 138.857C122.431 140.866 118.091 140.875 114.537 138.876L80.9576 119.961C73.0819 115.524 73.0632 104.222 80.9202 99.7667Z" fill="#EAC47C"/>
    <path opacity="0.9524" d="M80.9108 103.942L114.153 85.0921C117.698 83.0839 122.038 83.0745 125.593 85.0734L159.181 103.988C167.047 108.416 167.066 119.727 159.209 124.183L125.967 143.032C122.422 145.04 118.082 145.05 114.527 143.051L80.9482 124.136C73.0726 119.709 73.0539 108.397 80.9108 103.942Z" fill="#EAC47C"/>
    <path opacity="0.45" d="M80.8921 108.126L114.134 89.2767C117.679 87.2685 122.019 87.2591 125.574 89.258L159.162 108.173C167.029 112.6 167.047 123.912 159.19 128.367L125.948 147.217C122.403 149.225 118.063 149.234 114.509 147.235L80.9295 128.321C73.0538 123.884 73.0351 112.582 80.8921 108.126Z" fill="#EAC47C"/>
  </g>
  <path d="M168.001 97.1572L208.418 119.92L168.263 142.684L127.847 119.92L168.001 97.1572Z" fill="#FDCF77"/>
  <path d="M128.66 119.921L168.001 97.6152L207.604 119.921L168.263 142.226L128.66 119.921Z" fill="#FDCF77"/>
  <path d="M208.417 119.921L208.062 166.568L167.898 189.331L168.263 142.684L208.417 119.921Z" fill="url(#paint2_linear)"/>
  <path d="M168.263 142.684L167.898 189.331L127.481 166.568L127.846 119.921L168.263 142.684Z" fill="url(#paint3_linear)"/>
  <path d="M127.847 119.921V166.568L167.899 189.331L208.063 166.568" stroke="#FAA65A" stroke-opacity="0.2" stroke-width="0.8562" stroke-miterlimit="10"/>
  <g opacity="0.2" filter="url(#filter1_f)">
    <path opacity="0.0476" d="M129.073 75.8068L162.315 56.9574C165.86 54.9491 170.2 54.9398 173.755 56.9387L207.343 75.8535C215.209 80.2809 215.228 91.5925 207.371 96.0479L174.129 114.897C170.584 116.906 166.244 116.915 162.689 114.916L129.11 96.0013C121.235 91.5738 121.216 80.2623 129.073 75.8068Z" fill="#EAC47C"/>
    <path opacity="0.0952" d="M129.054 79.7384L162.297 60.889C165.842 58.8807 170.182 58.8714 173.736 60.8703L207.324 79.7851C215.191 84.2126 215.209 95.5241 207.352 99.9796L174.11 118.829C170.565 120.837 166.225 120.847 162.671 118.848L129.092 99.9329C121.216 95.4961 121.207 84.1846 129.054 79.7384Z" fill="#EAC47C"/>
    <path opacity="0.1429" d="M129.045 83.6696L162.287 64.8201C165.832 62.8119 170.172 62.8026 173.727 64.8015L207.315 83.7163C215.181 88.1437 215.2 99.4553 207.343 103.911L174.101 122.76C170.556 124.768 166.216 124.778 162.661 122.779L129.082 103.864C121.207 99.4273 121.188 88.125 129.045 83.6696Z" fill="#EAC47C"/>
    <path opacity="0.1905" d="M129.026 87.6007L162.268 68.7513C165.813 66.7431 170.153 66.7337 173.708 68.7326L207.296 87.6474C215.163 92.0749 215.181 103.386 207.324 107.842L174.082 126.691C170.537 128.7 166.197 128.709 162.643 126.71L129.064 107.795C121.188 103.358 121.178 92.0469 129.026 87.6007Z" fill="#EAC47C"/>
    <path opacity="0.2381" d="M129.017 91.5324L162.259 72.6829C165.804 70.6747 170.144 70.6653 173.698 72.6642L207.287 91.5791C215.153 96.0065 215.172 107.318 207.315 111.774L174.073 130.623C170.528 132.631 166.188 132.641 162.633 130.642L129.054 111.727C121.178 107.29 121.16 95.9879 129.017 91.5324Z" fill="#EAC47C"/>
    <path opacity="0.2857" d="M128.998 95.463L162.24 76.6136C165.785 74.6054 170.125 74.596 173.68 76.5949L207.268 95.5097C215.135 99.9372 215.153 111.249 207.296 115.704L174.054 134.554C170.509 136.562 166.169 136.571 162.615 134.572L129.035 115.658C121.16 111.23 121.15 99.9185 128.998 95.463Z" fill="#EAC47C"/>
    <path opacity="0.3333" d="M128.989 99.3947L162.231 80.5452C165.776 78.537 170.116 78.5277 173.67 80.5266L207.259 99.4414C215.125 103.869 215.144 115.18 207.287 119.636L174.044 138.485C170.499 140.494 166.159 140.503 162.605 138.504L129.026 119.589C121.15 115.152 121.132 103.85 128.989 99.3947Z" fill="#EAC47C"/>
    <path opacity="0.381" d="M128.97 103.326L162.212 84.4769C165.757 82.4686 170.097 82.4593 173.652 84.4582L207.24 103.373C215.106 107.8 215.125 119.112 207.268 123.567L174.026 142.417C170.481 144.425 166.141 144.435 162.586 142.436L129.007 123.521C121.132 119.093 121.122 107.782 128.97 103.326Z" fill="#EAC47C"/>
    <path opacity="0.4286" d="M128.961 107.258L162.203 88.4085C165.748 86.4003 170.088 86.3909 173.642 88.3898L207.231 107.305C215.097 111.732 215.116 123.044 207.259 127.499L174.016 146.349C170.471 148.357 166.131 148.366 162.577 146.367L128.998 127.452C121.122 123.016 121.104 111.704 128.961 107.258Z" fill="#EAC47C"/>
    <path opacity="0.4762" d="M128.942 111.189L162.184 92.3397C165.729 90.3314 170.069 90.3221 173.623 92.321L207.212 111.236C215.078 115.663 215.097 126.975 207.24 131.43L173.998 150.28C170.453 152.288 166.113 152.297 162.558 150.298L128.979 131.384C121.103 126.947 121.094 115.645 128.942 111.189Z" fill="#EAC47C"/>
    <path opacity="0.5238" d="M128.932 115.12L162.175 96.2708C165.72 94.2626 170.06 94.2532 173.614 96.2521L207.203 115.167C215.069 119.594 215.088 130.906 207.231 135.361L173.988 154.211C170.443 156.219 166.103 156.228 162.549 154.23L128.97 135.315C121.094 130.878 121.075 119.566 128.932 115.12Z" fill="#EAC47C"/>
    <path opacity="0.5714" d="M128.914 119.052L162.156 100.202C165.701 98.1942 170.041 98.1849 173.595 100.184L207.184 119.099C215.05 123.526 215.069 134.838 207.212 139.293L173.97 158.143C170.425 160.151 166.085 160.16 162.53 158.161L128.942 139.246C121.075 134.81 121.066 123.507 128.914 119.052Z" fill="#EAC47C"/>
    <path opacity="0.619" d="M128.904 126.915L162.147 108.065C165.692 106.057 170.032 106.048 173.586 108.047L207.174 126.961C215.041 131.389 215.059 142.7 207.203 147.156L173.96 166.005C170.415 168.014 166.075 168.023 162.521 166.024L128.942 147.109C121.066 142.682 121.047 131.37 128.904 126.915Z" fill="#EAC47C"/>
    <path opacity="0.6667" d="M128.886 130.846L162.128 111.996C165.673 109.988 170.013 109.979 173.567 111.978L207.156 130.893C215.022 135.32 215.041 146.632 207.184 151.087L173.941 169.936C170.396 171.945 166.056 171.954 162.502 169.955L128.923 151.04C121.047 146.603 121.038 135.301 128.886 130.846Z" fill="#EAC47C"/>
    <path opacity="0.7143" d="M128.876 134.777L162.119 115.928C165.664 113.92 170.004 113.91 173.558 115.909L207.146 134.824C215.013 139.252 215.031 150.563 207.174 155.019L173.932 173.868C170.387 175.876 166.047 175.886 162.493 173.887L128.914 154.972C121.038 150.545 121.019 139.233 128.876 134.777Z" fill="#EAC47C"/>
    <path opacity="0.7619" d="M128.857 138.709L162.1 119.86C165.645 117.851 169.985 117.842 173.539 119.841L207.128 138.756C214.994 143.183 215.013 154.495 207.156 158.95L173.913 177.8C170.368 179.808 166.028 179.817 162.474 177.818L128.895 158.904C121.019 154.467 121.01 143.155 128.857 138.709Z" fill="#EAC47C"/>
    <path opacity="0.8095" d="M128.848 142.64L162.09 123.791C165.635 121.783 169.976 121.773 173.53 123.772L207.118 142.687C214.985 147.114 215.003 158.426 207.146 162.881L173.904 181.731C170.359 183.739 166.019 183.749 162.465 181.75L128.886 162.835C121.01 158.398 120.991 147.096 128.848 142.64Z" fill="#EAC47C"/>
    <path opacity="0.8571" d="M128.829 146.572L162.072 127.722C165.617 125.714 169.957 125.705 173.511 127.704L207.1 146.619C214.966 151.046 214.985 162.358 207.128 166.813L173.885 185.663C170.34 187.671 166 187.68 162.446 185.681L128.867 166.766C120.991 162.33 120.982 151.018 128.829 146.572Z" fill="#EAC47C"/>
    <path opacity="0.9048" d="M128.82 150.503L162.062 131.654C165.607 129.645 169.947 129.636 173.502 131.635L207.09 150.55C214.956 154.977 214.975 166.289 207.118 170.744L173.876 189.594C170.331 191.602 165.991 191.611 162.436 189.612L128.857 170.698C120.982 166.261 120.963 154.959 128.82 150.503Z" fill="#EAC47C"/>
    <path opacity="0.9524" d="M128.811 122.984L162.053 104.134C165.598 102.126 169.938 102.117 173.492 104.115L207.081 123.03C214.947 127.458 214.966 138.769 207.109 143.225L173.867 162.074C170.322 164.082 165.981 164.092 162.427 162.093L128.848 143.178C120.972 138.751 120.954 127.439 128.811 122.984Z" fill="#EAC47C"/>
    <path opacity="0.45" d="M128.792 154.435L162.034 135.585C165.579 133.577 169.919 133.568 173.474 135.567L207.062 154.481C214.928 158.909 214.947 170.22 207.09 174.676L173.848 193.525C170.303 195.534 165.963 195.543 162.408 193.544L128.829 174.629C120.954 170.192 120.935 158.89 128.792 154.435Z" fill="#EAC47C"/>
  </g>
  <path d="M74.0442 95.3174L114.461 118.081L74.3061 140.844L33.8896 118.081L74.0442 95.3174Z" fill="#FDCF77"/>
  <path d="M34.7027 118.081L74.0436 95.7754L113.646 118.081L74.3055 140.386L34.7027 118.081Z" fill="#FDCF77"/>
  <path d="M114.46 118.081L114.105 164.728L73.9407 187.491L74.3055 140.844L114.46 118.081Z" fill="url(#paint4_linear)"/>
  <path d="M74.3055 140.844L73.9407 187.491L33.5242 164.728L33.8889 118.081L74.3055 140.844Z" fill="url(#paint5_linear)"/>
  <path d="M33.8896 118.081V164.728L73.9413 187.491L114.105 164.728" stroke="#FAA65A" stroke-opacity="0.2" stroke-width="0.8562" stroke-miterlimit="10"/>
  <g opacity="0.2" filter="url(#filter2_f)">
    <path opacity="0.0476" d="M35.1156 73.9669L68.358 55.1175C71.903 53.1093 76.243 53.0999 79.7973 55.0988L113.386 74.0136C121.252 78.4411 121.271 89.7526 113.414 94.2081L80.1715 113.058C76.6265 115.066 72.2865 115.075 68.7321 113.076L35.153 94.1614C27.2773 89.7339 27.2587 78.4224 35.1156 73.9669Z" fill="#EAC47C"/>
    <path opacity="0.0952" d="M35.0969 77.8986L68.3393 59.0491C71.8843 57.0409 76.2244 57.0316 79.7787 59.0305L113.367 77.9453C121.233 82.3728 121.252 93.6843 113.395 98.1398L80.1528 116.989C76.6079 118.997 72.2678 119.007 68.7135 117.008L35.1344 98.0931C27.2587 93.6563 27.2493 82.3447 35.0969 77.8986Z" fill="#EAC47C"/>
    <path opacity="0.1429" d="M35.0876 81.8292L68.33 62.9798C71.8749 60.9716 76.215 60.9622 79.7693 62.9611L113.358 81.8759C121.224 86.3034 121.243 97.6149 113.386 102.07L80.1434 120.92C76.5985 122.928 72.2584 122.937 68.7041 120.939L35.125 102.024C27.2493 97.5869 27.2306 86.2847 35.0876 81.8292Z" fill="#EAC47C"/>
    <path opacity="0.1905" d="M35.0688 85.7609L68.3112 66.9115C71.8562 64.9032 76.1962 64.8939 79.7505 66.8928L113.339 85.8076C121.205 90.235 121.224 101.547 113.367 106.002L80.1247 124.852C76.5797 126.86 72.2397 126.869 68.6853 124.87L35.1062 105.955C27.2305 101.519 27.2212 90.207 35.0688 85.7609Z" fill="#EAC47C"/>
    <path opacity="0.2381" d="M35.0594 89.6925L68.3018 70.8431C71.8468 68.8349 76.1868 68.8255 79.7412 70.8244L113.33 89.7392C121.196 94.1667 121.215 105.478 113.358 109.934L80.1153 128.783C76.5703 130.791 72.2303 130.801 68.676 128.802L35.0968 109.887C27.2212 105.45 27.2025 94.148 35.0594 89.6925Z" fill="#EAC47C"/>
    <path opacity="0.2857" d="M35.0407 93.6232L68.2831 74.7738C71.8281 72.7655 76.1681 72.7562 79.7225 74.7551L113.311 93.6699C121.177 98.0973 121.196 109.409 113.339 113.864L80.0966 132.714C76.5516 134.722 72.2116 134.731 68.6573 132.732L35.0782 113.818C27.2025 109.39 27.1931 98.0787 35.0407 93.6232Z" fill="#EAC47C"/>
    <path opacity="0.3333" d="M35.0313 97.5548L68.2737 78.7054C71.8187 76.6972 76.1587 76.6878 79.7131 78.6867L113.302 97.6015C121.168 102.029 121.187 113.341 113.33 117.796L80.0872 136.645C76.5422 138.654 72.2022 138.663 68.6478 136.664L35.0687 117.749C27.1931 113.313 27.1744 102.01 35.0313 97.5548Z" fill="#EAC47C"/>
    <path opacity="0.381" d="M35.0126 101.486L68.255 82.637C71.8 80.6288 76.14 80.6195 79.6943 82.6184L113.283 101.533C121.149 105.961 121.168 117.272 113.311 121.728L80.0685 140.577C76.5235 142.585 72.1835 142.595 68.6291 140.596L35.05 121.681C27.1744 117.253 27.165 105.942 35.0126 101.486Z" fill="#EAC47C"/>
    <path opacity="0.4286" d="M35.0032 105.418L68.2456 86.5687C71.7906 84.5604 76.1306 84.5511 79.685 86.55L113.273 105.465C121.14 109.892 121.158 121.204 113.301 125.659L80.0591 144.509C76.5141 146.517 72.1741 146.526 68.6197 144.527L35.0406 125.613C27.165 121.176 27.1462 109.864 35.0032 105.418Z" fill="#EAC47C"/>
    <path opacity="0.4762" d="M34.9845 109.349L68.2269 90.4993C71.7719 88.4911 76.1119 88.4818 79.6662 90.4807L113.255 109.395C121.121 113.823 121.14 125.134 113.283 129.59L80.0404 148.439C76.4954 150.448 72.1554 150.457 68.601 148.458L35.0219 129.543C27.1463 125.106 27.1369 113.804 34.9845 109.349Z" fill="#EAC47C"/>
    <path opacity="0.5238" d="M34.9751 113.28L68.2175 94.431C71.7625 92.4228 76.1025 92.4134 79.6569 94.4123L113.245 113.327C121.112 117.755 121.13 129.066 113.273 133.522L80.031 152.371C76.486 154.379 72.146 154.389 68.5916 152.39L35.0125 133.475C27.1369 129.038 27.1181 117.727 34.9751 113.28Z" fill="#EAC47C"/>
    <path opacity="0.5714" d="M34.9564 117.212L68.1988 98.3626C71.7437 96.3544 76.0838 96.345 79.6381 98.3439L113.227 117.259C121.093 121.686 121.112 132.998 113.255 137.453L80.0123 156.303C76.4673 158.311 72.1272 158.32 68.5729 156.321L34.9844 137.407C27.1181 132.97 27.1088 121.668 34.9564 117.212Z" fill="#EAC47C"/>
    <path opacity="0.619" d="M34.947 125.074L68.1894 106.225C71.7344 104.217 76.0744 104.207 79.6288 106.206L113.217 125.121C121.084 129.549 121.102 140.86 113.245 145.316L80.0029 164.165C76.4579 166.173 72.1179 166.183 68.5636 164.184L34.9844 145.269C27.1088 140.841 27.0901 129.53 34.947 125.074Z" fill="#EAC47C"/>
    <path opacity="0.6667" d="M34.9283 129.006L68.1707 110.157C71.7157 108.148 76.0557 108.139 79.61 110.138L113.198 129.053C121.065 133.48 121.083 144.792 113.227 149.247L79.9841 168.097C76.4392 170.105 72.0991 170.114 68.5448 168.115L34.9657 149.2C27.09 144.764 27.0807 133.461 34.9283 129.006Z" fill="#EAC47C"/>
    <path opacity="0.7143" d="M34.9189 132.938L68.1613 114.088C71.7063 112.08 76.0463 112.071 79.6007 114.07L113.189 132.984C121.055 137.412 121.074 148.723 113.217 153.179L79.9748 172.028C76.4298 174.036 72.0898 174.046 68.5354 172.047L34.9563 153.132C27.0807 148.705 27.062 137.393 34.9189 132.938Z" fill="#EAC47C"/>
    <path opacity="0.7619" d="M34.9002 136.869L68.1426 118.02C71.6876 116.012 76.0276 116.002 79.5819 118.001L113.17 136.916C121.037 141.343 121.055 152.655 113.198 157.11L79.9561 175.96C76.4111 177.968 72.0711 177.977 68.5167 175.979L34.9376 157.064C27.062 152.627 27.0526 141.315 34.9002 136.869Z" fill="#EAC47C"/>
    <path opacity="0.8095" d="M34.8908 140.8L68.1332 121.951C71.6782 119.942 76.0182 119.933 79.5726 121.932L113.161 140.847C121.027 145.274 121.046 156.586 113.189 161.041L79.9467 179.891C76.4017 181.899 72.0617 181.908 68.5073 179.909L34.9282 160.994C27.0526 156.558 27.0339 145.255 34.8908 140.8Z" fill="#EAC47C"/>
    <path opacity="0.8571" d="M34.8721 144.732L68.1145 125.882C71.6595 123.874 75.9995 123.865 79.5538 125.863L113.142 144.778C121.009 149.206 121.027 160.517 113.17 164.973L79.928 183.822C76.383 185.83 72.043 185.84 68.4886 183.841L34.9095 164.926C27.0339 160.489 27.0245 149.178 34.8721 144.732Z" fill="#EAC47C"/>
    <path opacity="0.9048" d="M34.8627 148.663L68.1051 129.814C71.6501 127.806 75.9901 127.796 79.5445 129.795L113.133 148.71C120.999 153.137 121.018 164.449 113.161 168.904L79.9186 187.754C76.3736 189.762 72.0336 189.771 68.4792 187.772L34.9001 168.858C27.0245 164.421 27.0057 153.119 34.8627 148.663Z" fill="#EAC47C"/>
    <path opacity="0.9524" d="M34.8533 121.144L68.0957 102.294C71.6407 100.286 75.9807 100.277 79.5351 102.276L113.124 121.19C120.99 125.618 121.009 136.929 113.152 141.385L79.9092 160.234C76.3642 162.243 72.0242 162.252 68.4698 160.253L34.8907 141.338C27.0151 136.911 26.9963 125.599 34.8533 121.144Z" fill="#EAC47C"/>
    <path opacity="0.45" d="M34.8346 152.595L68.077 133.745C71.622 131.737 75.962 131.728 79.5163 133.727L113.105 152.642C120.971 157.069 120.99 168.381 113.133 172.836L79.8905 191.685C76.3455 193.694 72.0055 193.703 68.4511 191.704L34.872 172.789C26.9964 168.353 26.9776 157.05 34.8346 152.595Z" fill="#EAC47C"/>
  </g>
  <path d="M120.102 128.433L160.518 151.196L120.364 173.959L79.9471 151.196L120.102 128.433Z" fill="#FDCF77"/>
  <path d="M80.7603 151.196L120.101 128.891L159.704 151.196L120.363 173.502L80.7603 151.196Z" fill="#FDCF77"/>
  <path d="M160.518 151.196L160.162 197.843L119.998 220.607L120.363 173.959L160.518 151.196Z" fill="url(#paint6_linear)"/>
  <path d="M120.363 173.959L119.998 220.607L79.5817 197.843L79.9465 151.196L120.363 173.959Z" fill="url(#paint7_linear)"/>
  <path d="M79.9471 151.196V197.843L119.999 220.607L160.163 197.843" stroke="#FAA65A" stroke-opacity="0.2" stroke-width="0.8562" stroke-miterlimit="10"/>
  <g opacity="0.2" filter="url(#filter3_f)">
    <path opacity="0.0476" d="M81.1731 107.082L114.416 88.2327C117.96 86.2245 122.301 86.2151 125.855 88.214L159.443 107.129C167.31 111.556 167.328 122.868 159.471 127.323L126.229 146.173C122.684 148.181 118.344 148.19 114.79 146.191L81.2105 127.277C73.3349 122.849 73.3162 111.538 81.1731 107.082Z" fill="#EAC47C"/>
    <path opacity="0.0952" d="M81.1544 111.014L114.397 92.1644C117.942 90.1561 122.282 90.1468 125.836 92.1457L159.425 111.061C167.291 115.488 167.31 126.8 159.453 131.255L126.21 150.104C122.665 152.113 118.325 152.122 114.771 150.123L81.1918 131.208C73.3161 126.771 73.3068 115.46 81.1544 111.014Z" fill="#EAC47C"/>
    <path opacity="0.1429" d="M81.145 114.945L114.387 96.096C117.932 94.0878 122.272 94.0784 125.827 96.0773L159.415 114.992C167.282 119.42 167.3 130.731 159.443 135.187L126.201 154.036C122.656 156.044 118.316 156.054 114.762 154.055L81.1825 135.14C73.3068 130.703 73.2881 119.401 81.145 114.945Z" fill="#EAC47C"/>
    <path opacity="0.1905" d="M81.1263 118.877L114.369 100.027C117.914 98.0189 122.254 98.0096 125.808 100.008L159.397 118.923C167.263 123.351 167.282 134.662 159.425 139.118L126.182 157.967C122.637 159.975 118.297 159.985 114.743 157.986L81.1637 139.071C73.2881 134.634 73.2787 123.323 81.1263 118.877Z" fill="#EAC47C"/>
    <path opacity="0.2381" d="M81.1169 122.808L114.359 103.959C117.904 101.951 122.244 101.941 125.799 103.94L159.387 122.855C167.253 127.282 167.272 138.594 159.415 143.049L126.173 161.899C122.628 163.907 118.288 163.916 114.733 161.918L81.1544 143.003C73.2787 138.566 73.26 127.264 81.1169 122.808Z" fill="#EAC47C"/>
    <path opacity="0.2857" d="M81.0982 126.739L114.341 107.89C117.886 105.882 122.226 105.872 125.78 107.871L159.368 126.786C167.235 131.214 167.253 142.525 159.396 146.981L126.154 165.83C122.609 167.838 118.269 167.848 114.715 165.849L81.1356 146.934C73.26 142.506 73.2506 131.195 81.0982 126.739Z" fill="#EAC47C"/>
    <path opacity="0.3333" d="M81.0888 130.671L114.331 111.822C117.876 109.813 122.216 109.804 125.771 111.803L159.359 130.718C167.225 135.145 167.244 146.457 159.387 150.912L126.145 169.762C122.6 171.77 118.26 171.779 114.705 169.78L81.1262 150.866C73.2506 146.429 73.2318 135.127 81.0888 130.671Z" fill="#EAC47C"/>
    <path opacity="0.381" d="M81.0701 134.602L114.312 115.753C117.857 113.745 122.197 113.735 125.752 115.734L159.34 134.649C167.207 139.076 167.225 150.388 159.368 154.843L126.126 173.693C122.581 175.701 118.241 175.71 114.687 173.711L81.1075 154.797C73.2319 150.369 73.2225 139.058 81.0701 134.602Z" fill="#EAC47C"/>
    <path opacity="0.4286" d="M81.0607 138.534L114.303 119.684C117.848 117.676 122.188 117.667 125.742 119.666L159.331 138.581C167.197 143.008 167.216 154.32 159.359 158.775L126.117 177.624C122.572 179.633 118.232 179.642 114.677 177.643L81.0981 158.728C73.2225 154.291 73.2038 142.98 81.0607 138.534Z" fill="#EAC47C"/>
    <path opacity="0.4762" d="M81.042 142.465L114.284 123.616C117.829 121.607 122.169 121.598 125.724 123.597L159.312 142.512C167.178 146.939 167.197 158.251 159.34 162.706L126.098 181.556C122.553 183.564 118.213 183.573 114.658 181.574L81.0794 162.659C73.2037 158.223 73.1944 146.92 81.042 142.465Z" fill="#EAC47C"/>
    <path opacity="0.5238" d="M81.0326 146.397L114.275 127.547C117.82 125.539 122.16 125.53 125.714 127.529L159.303 146.443C167.169 150.871 167.188 162.182 159.331 166.638L126.088 185.487C122.544 187.495 118.203 187.505 114.649 185.506L81.07 166.591C73.1943 162.154 73.1756 150.843 81.0326 146.397Z" fill="#EAC47C"/>
    <path opacity="0.5714" d="M81.0139 150.328L114.256 131.478C117.801 129.47 122.141 129.461 125.696 131.46L159.284 150.374C167.15 154.802 167.169 166.113 159.312 170.569L126.07 189.418C122.525 191.427 118.185 191.436 114.63 189.437L81.0419 170.522C73.1756 166.085 73.1663 154.783 81.0139 150.328Z" fill="#EAC47C"/>
    <path opacity="0.619" d="M81.0045 158.191L114.247 139.341C117.792 137.333 122.132 137.324 125.686 139.322L159.275 158.237C167.141 162.665 167.16 173.976 159.303 178.432L126.06 197.281C122.515 199.289 118.175 199.299 114.621 197.3L81.0419 178.385C73.1662 173.958 73.1475 162.646 81.0045 158.191Z" fill="#EAC47C"/>
    <path opacity="0.6667" d="M80.9858 162.122L114.228 143.272C117.773 141.264 122.113 141.255 125.668 143.254L159.256 162.168C167.122 166.596 167.141 177.907 159.284 182.363L126.042 201.212C122.497 203.221 118.157 203.23 114.602 201.231L81.0232 182.316C73.1475 177.879 73.1382 166.577 80.9858 162.122Z" fill="#EAC47C"/>
    <path opacity="0.7143" d="M80.9764 166.053L114.219 147.204C117.764 145.196 122.104 145.186 125.658 147.185L159.247 166.1C167.113 170.528 167.132 181.839 159.275 186.295L126.032 205.144C122.487 207.152 118.147 207.162 114.593 205.163L81.0138 186.248C73.1381 181.82 73.1194 170.509 80.9764 166.053Z" fill="#EAC47C"/>
    <path opacity="0.7619" d="M80.9577 169.985L114.2 151.135C117.745 149.127 122.085 149.117 125.639 151.116L159.228 170.031C167.094 174.459 167.113 185.77 159.256 190.226L126.014 209.075C122.469 211.083 118.129 211.093 114.574 209.094L80.9951 190.179C73.1194 185.742 73.1101 174.431 80.9577 169.985Z" fill="#EAC47C"/>
    <path opacity="0.8095" d="M80.9483 173.916L114.191 155.067C117.736 153.058 122.076 153.049 125.63 155.048L159.218 173.963C167.085 178.39 167.104 189.702 159.247 194.157L126.004 213.007C122.459 215.015 118.119 215.024 114.565 213.025L80.9857 194.111C73.1101 189.674 73.0913 178.372 80.9483 173.916Z" fill="#EAC47C"/>
    <path opacity="0.8571" d="M80.9296 177.847L114.172 158.998C117.717 156.99 122.057 156.98 125.611 158.979L159.2 177.894C167.066 182.321 167.085 193.633 159.228 198.088L125.985 216.938C122.44 218.946 118.1 218.956 114.546 216.957L80.967 198.042C73.0913 193.605 73.082 182.293 80.9296 177.847Z" fill="#EAC47C"/>
    <path opacity="0.9048" d="M80.9202 181.779L114.163 162.93C117.708 160.921 122.048 160.912 125.602 162.911L159.19 181.826C167.057 186.253 167.075 197.565 159.218 202.02L125.976 220.87C122.431 222.878 118.091 222.887 114.537 220.888L80.9576 201.973C73.0819 197.537 73.0632 186.234 80.9202 181.779Z" fill="#EAC47C"/>
    <path opacity="0.9524" d="M80.9108 154.259L114.153 135.409C117.698 133.401 122.038 133.392 125.593 135.391L159.181 154.306C167.047 158.733 167.066 170.045 159.209 174.5L125.967 193.35C122.422 195.358 118.082 195.367 114.527 193.368L80.9482 174.453C73.0726 170.026 73.0539 158.714 80.9108 154.259Z" fill="#EAC47C"/>
    <path opacity="0.45" d="M80.8921 185.71L114.134 166.861C117.679 164.852 122.019 164.843 125.574 166.842L159.162 185.757C167.029 190.184 167.047 201.496 159.19 205.951L125.948 224.801C122.403 226.809 118.063 226.818 114.509 224.819L80.9295 205.905C73.0538 201.468 73.0351 190.166 80.8921 185.71Z" fill="#EAC47C"/>
  </g>
  <defs>
    <filter id="filter0_f" x="71.011" y="0.175781" width="98.3425" height="152.553" filterUnits="userSpaceOnUse" color-interpolation-filters="sRGB">
      <feFlood flood-opacity="0" result="BackgroundImageFix"/>
      <feBlend mode="normal" in="SourceGraphic" in2="BackgroundImageFix" result="shape"/>
      <feGaussianBlur stdDeviation="2" result="effect1_foregroundBlur"/>
    </filter>
    <filter id="filter1_f" x="118.911" y="51.4453" width="98.3422" height="147.592" filterUnits="userSpaceOnUse" color-interpolation-filters="sRGB">
      <feFlood flood-opacity="0" result="BackgroundImageFix"/>
      <feBlend mode="normal" in="SourceGraphic" in2="BackgroundImageFix" result="shape"/>
      <feGaussianBlur stdDeviation="2" result="effect1_foregroundBlur"/>
    </filter>
    <filter id="filter2_f" x="24.9536" y="49.6055" width="98.3426" height="147.592" filterUnits="userSpaceOnUse" color-interpolation-filters="sRGB">
      <feFlood flood-opacity="0" result="BackgroundImageFix"/>
      <feBlend mode="normal" in="SourceGraphic" in2="BackgroundImageFix" result="shape"/>
      <feGaussianBlur stdDeviation="2" result="effect1_foregroundBlur"/>
    </filter>
    <filter id="filter3_f" x="71.011" y="82.7207" width="98.3425" height="147.592" filterUnits="userSpaceOnUse" color-interpolation-filters="sRGB">
      <feFlood flood-opacity="0" result="BackgroundImageFix"/>
      <feBlend mode="normal" in="SourceGraphic" in2="BackgroundImageFix" result="shape"/>
      <feGaussianBlur stdDeviation="2" result="effect1_foregroundBlur"/>
    </filter>
    <linearGradient id="paint0_linear" x1="120.004" y1="103.098" x2="160.519" y2="103.098" gradientUnits="userSpaceOnUse">
      <stop stop-color="#FAA65A"/>
      <stop offset="1" stop-color="#EE2D70"/>
    </linearGradient>
    <linearGradient id="paint1_linear" x1="79.5877" y1="103.098" x2="120.364" y2="103.098" gradientUnits="userSpaceOnUse">
      <stop stop-color="#FAA65A"/>
      <stop offset="1" stop-color="#EE2D70"/>
    </linearGradient>
    <linearGradient id="paint2_linear" x1="167.904" y1="154.612" x2="208.418" y2="154.612" gradientUnits="userSpaceOnUse">
      <stop stop-color="#FAA65A"/>
      <stop offset="1" stop-color="#EE2D70"/>
    </linearGradient>
    <linearGradient id="paint3_linear" x1="127.487" y1="154.612" x2="168.264" y2="154.612" gradientUnits="userSpaceOnUse">
      <stop stop-color="#FAA65A"/>
      <stop offset="1" stop-color="#EE2D70"/>
    </linearGradient>
    <linearGradient id="paint4_linear" x1="73.9467" y1="152.771" x2="114.461" y2="152.771" gradientUnits="userSpaceOnUse">
      <stop stop-color="#FAA65A"/>
      <stop offset="1" stop-color="#EE2D70"/>
    </linearGradient>
    <linearGradient id="paint5_linear" x1="33.5302" y1="152.771" x2="74.3065" y2="152.771" gradientUnits="userSpaceOnUse">
      <stop stop-color="#FAA65A"/>
      <stop offset="1" stop-color="#EE2D70"/>
    </linearGradient>
    <linearGradient id="paint6_linear" x1="120.004" y1="185.887" x2="160.519" y2="185.887" gradientUnits="userSpaceOnUse">
      <stop stop-color="#FAA65A"/>
      <stop offset="1" stop-color="#EE2D70"/>
    </linearGradient>
    <linearGradient id="paint7_linear" x1="79.5877" y1="185.887" x2="120.364" y2="185.887" gradientUnits="userSpaceOnUse">
      <stop stop-color="#FAA65A"/>
      <stop offset="1" stop-color="#EE2D70"/>
    </linearGradient>
  </defs>
</svg>
