<svg width="246" height="242" viewBox="0 0 246 242" fill="none" xmlns="http://www.w3.org/2000/svg">
  <g clip-path="url(#clip0)">
    <path d="M243.246 167.485C246.905 169.586 246.918 173.001 243.284 175.101L129.988 240.652C126.354 242.752 120.446 242.752 116.787 240.652L2.75398 175.101C-0.905244 173.001 -0.917948 169.586 2.71586 167.485L116.012 101.934C119.646 99.8344 125.554 99.8344 129.213 101.934L243.246 167.485Z" fill="#212F60"/>
    <path opacity="0.35" d="M38.1082 158.275L112.089 115.744C114.844 114.158 117.079 110.649 117.079 107.906V59.9992C117.079 57.2561 114.844 56.314 112.089 57.9005L38.1082 100.431C35.3532 102.017 33.1181 105.526 33.1181 108.269V156.177C33.1126 158.92 35.3476 159.856 38.1082 158.275Z" fill="url(#paint0_linear)"/>
    <path d="M35.6073 159.358C35.0762 159.358 34.5894 159.237 34.1689 159C33.2782 158.488 32.7914 157.485 32.7914 156.169V108.262C32.7914 105.42 35.1039 101.779 37.9418 100.148L111.923 57.6177C113.472 56.7254 114.966 56.5601 116.017 57.1662C116.902 57.6784 117.394 58.6809 117.394 59.9974V107.904C117.394 110.746 115.081 114.388 112.244 116.018L38.2627 158.549C37.3333 159.088 36.4149 159.358 35.6073 159.358ZM114.578 57.4415C113.887 57.4415 113.085 57.6894 112.244 58.1687L38.2627 100.699C35.6018 102.23 33.4332 105.624 33.4332 108.262V156.169C33.4332 157.243 33.8093 158.053 34.4898 158.444C35.3362 158.934 36.5976 158.769 37.9418 157.993L111.923 115.462C114.584 113.93 116.753 110.537 116.753 107.899V59.992C116.753 58.9178 116.377 58.1081 115.695 57.717C115.38 57.5352 114.999 57.4415 114.578 57.4415Z" fill="white"/>
    <path d="M53.9044 136.909L53.2509 137.289V107.175L53.9044 106.795V136.909Z" fill="white"/>
    <path d="M61.3451 132.635L60.686 133.009V102.895L61.3451 102.52V132.635Z" fill="white"/>
    <path d="M68.7858 128.355L68.1268 128.735V98.6204L68.7858 98.2458V128.355Z" fill="white"/>
    <path d="M76.2209 124.081L75.5675 124.455V94.3461L76.2209 93.9659V124.081Z" fill="white"/>
    <path d="M83.6616 119.806L83.0081 120.18V90.0658L83.6616 89.6912V119.806Z" fill="white"/>
    <path d="M91.1024 115.526L90.4434 115.906V85.7915L91.1024 85.4114V115.526Z" fill="white"/>
    <path d="M98.5432 111.251L97.8841 111.626V81.5112L98.5432 81.1366V111.251Z" fill="white"/>
    <path d="M78.0072 103.535C78.0072 104.873 76.9174 106.592 75.5676 107.363C74.2233 108.14 73.128 107.677 73.128 106.338C73.128 105 74.2177 103.281 75.5676 102.51C76.9119 101.733 78.0072 102.196 78.0072 103.535Z" fill="#FBAF1D"/>
    <path d="M63.1257 123.233C63.1257 124.572 62.0358 126.291 60.686 127.062C59.3417 127.838 58.2464 127.375 58.2464 126.036C58.2464 124.698 59.3362 122.98 60.686 122.208C62.0358 121.432 63.1257 121.889 63.1257 123.233Z" fill="#FBAF1D"/>
    <path d="M93.5413 101.117C93.5413 102.455 92.4514 104.174 91.1017 104.945C89.7573 105.722 88.662 105.259 88.662 103.92C88.662 102.582 89.7519 100.863 91.1017 100.092C92.446 99.3208 93.5413 99.7781 93.5413 101.117Z" fill="#FBAF1D"/>
    <path d="M100.324 79.7379C100.324 81.0764 99.2339 82.7951 97.884 83.5663C96.5398 84.343 95.4444 83.8802 95.4444 82.5417C95.4444 81.2032 96.5342 79.4846 97.884 78.7134C99.2339 77.9366 100.324 78.3939 100.324 79.7379Z" fill="#FBAF1D"/>
    <path d="M151.241 114.285L147.402 112.073V93.2392L151.241 95.4458V114.285Z" fill="#FBAF1D"/>
    <path d="M158.947 118.71L155.102 116.503V109.075L158.947 111.282V118.71Z" fill="#2C3ACF"/>
    <path d="M166.654 123.139L162.808 120.933V109.37L166.654 111.577V123.139Z" fill="#FBAF1D"/>
    <path d="M174.354 127.569L170.514 125.362V106.523L174.354 108.735V127.569Z" fill="#2C3ACF"/>
    <path d="M182.06 131.999L178.22 129.792V105.191L182.06 107.398V131.999Z" fill="#FBAF1D"/>
    <path d="M189.765 136.429L185.925 134.223V115.383L189.765 117.59V136.429Z" fill="#2C3ACF"/>
    <path d="M197.472 140.859L193.626 138.653V126.082L197.472 128.289V140.859Z" fill="#FBAF1D"/>
    <path opacity="0.35" d="M211.444 165.578L136.606 122.555C133.82 120.95 131.559 117.401 131.559 114.626V66.1645C131.559 63.3895 133.82 62.4367 136.606 64.0414L211.444 107.064C214.232 108.669 216.492 112.219 216.492 114.994V163.455C216.492 166.229 214.237 167.177 211.444 165.578Z" fill="url(#paint1_linear)"/>
    <path d="M213.973 166.675C213.157 166.675 212.233 166.397 211.287 165.856L136.45 122.833C133.579 121.184 131.24 117.5 131.24 114.625V66.1639C131.24 64.8377 131.732 63.818 132.633 63.3053C133.697 62.6924 135.208 62.8596 136.775 63.7623L211.613 106.785C214.483 108.44 216.822 112.118 216.822 114.993V163.454C216.822 164.787 216.33 165.8 215.429 166.318C215.004 166.558 214.511 166.675 213.973 166.675ZM134.089 63.5784C133.663 63.5784 133.277 63.6676 132.953 63.8569C132.264 64.2526 131.884 65.0718 131.884 66.1583V114.62C131.884 117.289 134.077 120.721 136.769 122.27L211.607 165.293C212.972 166.079 214.248 166.246 215.099 165.75C215.786 165.354 216.168 164.535 216.168 163.449V114.987C216.168 112.318 213.973 108.886 211.282 107.337L136.444 64.3139C135.6 63.8291 134.788 63.5784 134.089 63.5784Z" fill="white"/>
    <path d="M123.634 74.4958L171.968 101.674L123.947 128.852L75.612 101.674L123.634 74.4958Z" fill="#FDCF77"/>
    <path d="M76.5855 101.674L123.634 75.0429L170.996 101.674L123.947 128.306L76.5855 101.674Z" fill="#FDCF77"/>
    <path d="M171.968 101.675L171.544 157.369L123.511 184.547L123.947 128.853L171.968 101.675Z" fill="url(#paint2_linear)"/>
    <path d="M123.947 128.853L123.511 184.547L75.1758 157.369L75.6119 101.675L123.947 128.853Z" fill="url(#paint3_linear)"/>
    <path d="M75.612 101.675V157.369L123.511 184.547L171.544 157.369" stroke="#FDCF77" stroke-opacity="0.2" stroke-width="0.8562" stroke-miterlimit="10"/>
    <g opacity="0.2" filter="url(#filter0_f)">
      <path opacity="0.0476" d="M77.0785 49.6188L116.833 27.1137C121.073 24.7159 126.263 24.7048 130.514 27.0913L170.683 49.6746C180.091 54.9607 180.113 68.4661 170.717 73.7857L130.962 96.2909C126.722 98.6887 121.531 98.6998 117.281 96.3132L77.1232 73.73C67.7046 68.4438 67.6823 54.9385 77.0785 49.6188Z" fill="#EAC47C"/>
      <path opacity="0.0952" d="M77.0561 54.9282L116.811 32.423C121.051 30.0253 126.241 30.0142 130.492 32.4008L170.661 54.984C180.068 60.2702 180.091 73.7755 170.694 79.0951L130.939 101.6C126.699 103.998 121.51 104.009 117.258 101.623L77.1009 79.0394C67.6823 73.7421 67.671 60.2367 77.0561 54.9282Z" fill="#EAC47C"/>
      <path opacity="0.1429" d="M77.0449 60.2366L116.8 37.7314C121.039 35.3337 126.23 35.3225 130.48 37.7091L170.65 60.2924C180.058 65.5785 180.079 79.0838 170.684 84.4035L130.928 106.909C126.689 109.306 121.498 109.318 117.248 106.931L77.0897 84.3477C67.6711 79.0504 67.6487 65.5562 77.0449 60.2366Z" fill="#EAC47C"/>
      <path opacity="0.1905" d="M77.0225 65.5455L116.778 43.0403C121.018 40.6426 126.207 40.6314 130.459 43.018L170.627 65.6013C180.035 70.8874 180.057 84.3928 170.661 89.7124L130.906 112.218C126.666 114.615 121.475 114.626 117.225 112.24L77.0673 89.6566C67.6487 84.3593 67.6375 70.854 77.0225 65.5455Z" fill="#EAC47C"/>
      <path opacity="0.2381" d="M77.0113 70.8544L116.766 48.3492C121.006 45.9514 126.196 45.9403 130.447 48.3269L170.616 70.9101C180.023 76.1963 180.046 89.7016 170.65 95.0212L130.895 117.526C126.655 119.924 121.465 119.935 117.214 117.549L77.0561 94.9655C67.6375 89.6681 67.6151 76.174 77.0113 70.8544Z" fill="#EAC47C"/>
      <path opacity="0.2857" d="M76.989 76.1627L116.745 53.6576C120.983 51.2598 126.174 51.2486 130.424 53.6352L170.594 76.2184C180.001 81.5047 180.023 95.01 170.627 100.33L130.872 122.835C126.632 125.232 121.442 125.244 117.191 122.857L77.0338 100.274C67.6151 94.9877 67.6039 81.4823 76.989 76.1627Z" fill="#EAC47C"/>
      <path opacity="0.3333" d="M76.9778 81.4717L116.733 58.9664C120.972 56.5687 126.163 56.5576 130.413 58.9441L170.582 81.5274C179.99 86.8135 180.012 100.319 170.617 105.638L130.861 128.144C126.622 130.542 121.431 130.552 117.181 128.166L77.0225 105.583C67.6039 100.285 67.5815 86.7913 76.9778 81.4717Z" fill="#EAC47C"/>
      <path opacity="0.381" d="M76.9554 86.7805L116.71 64.2752C120.95 61.8776 126.14 61.8664 130.391 64.253L170.56 86.8362C179.968 92.1224 179.99 105.628 170.594 110.947L130.839 133.453C126.599 135.85 121.408 135.862 117.158 133.475L77.0002 110.892C67.5815 105.605 67.5703 92.1001 76.9554 86.7805Z" fill="#EAC47C"/>
      <path opacity="0.4286" d="M76.9443 92.0889L116.699 69.5837C120.939 67.1859 126.129 67.1748 130.38 69.5614L170.549 92.1447C179.956 97.4308 179.979 110.936 170.582 116.256L130.828 138.761C126.588 141.159 121.398 141.169 117.147 138.783L76.989 116.2C67.5703 110.903 67.548 97.3973 76.9443 92.0889Z" fill="#EAC47C"/>
      <path opacity="0.4762" d="M76.9219 97.3982L116.677 74.893C120.916 72.4953 126.107 72.4842 130.357 74.8707L170.527 97.454C179.934 102.74 179.956 116.246 170.56 121.565L130.805 144.071C126.565 146.468 121.375 146.479 117.124 144.093L76.9666 121.509C67.548 116.212 67.5367 102.718 76.9219 97.3982Z" fill="#EAC47C"/>
      <path opacity="0.5238" d="M76.9107 102.707L116.666 80.2015C120.905 77.8037 126.096 77.7925 130.346 80.1791L170.515 102.762C179.923 108.049 179.945 121.554 170.549 126.874L130.793 149.378C126.555 151.776 121.364 151.788 117.114 149.401L76.9554 126.818C67.5368 121.52 67.5144 108.015 76.9107 102.707Z" fill="#EAC47C"/>
      <path opacity="0.5714" d="M76.8883 108.015L116.643 85.5098C120.883 83.112 126.073 83.101 130.324 85.4875L170.492 108.071C179.9 113.357 179.923 126.862 170.527 132.182L130.772 154.687C126.532 157.085 121.341 157.096 117.091 154.71L76.9218 132.126C67.5144 126.829 67.5032 113.335 76.8883 108.015Z" fill="#EAC47C"/>
      <path opacity="0.619" d="M76.8771 113.324L116.632 90.8186C120.872 88.421 126.062 88.4098 130.313 90.7964L170.482 113.38C179.889 118.666 179.912 132.171 170.515 137.491L130.76 159.996C126.521 162.394 121.331 162.405 117.079 160.018L76.9218 137.435C67.5033 132.149 67.4808 118.644 76.8771 113.324Z" fill="#EAC47C"/>
      <path opacity="0.6667" d="M76.8548 118.633L116.61 96.1275C120.849 93.7298 126.04 93.7187 130.29 96.1053L170.459 118.688C179.866 123.974 179.889 137.479 170.492 142.799L130.738 165.304C126.499 167.702 121.308 167.714 117.058 165.327L76.8995 142.744C67.4808 137.446 67.4696 123.953 76.8548 118.633Z" fill="#EAC47C"/>
      <path opacity="0.7143" d="M76.8435 123.941L116.599 101.436C120.838 99.0381 126.028 99.0271 130.279 101.414L170.448 123.997C179.856 129.283 179.878 142.788 170.482 148.108L130.726 170.613C126.487 173.011 121.297 173.022 117.046 170.636L76.8882 148.052C67.4696 142.766 67.4473 129.261 76.8435 123.941Z" fill="#EAC47C"/>
      <path opacity="0.7619" d="M76.8212 129.25L116.576 106.745C120.816 104.347 126.006 104.336 130.257 106.722L170.425 129.306C179.833 134.592 179.856 148.097 170.459 153.417L130.705 175.922C126.465 178.32 121.275 178.331 117.024 175.944L76.8659 153.361C67.4473 148.064 67.4361 134.558 76.8212 129.25Z" fill="#EAC47C"/>
      <path opacity="0.8095" d="M76.81 134.558L116.565 112.054C120.805 109.656 125.995 109.645 130.246 112.031L170.415 134.614C179.822 139.901 179.845 153.406 170.448 158.725L130.693 181.231C126.453 183.628 121.264 183.64 117.012 181.253L76.8547 158.67C67.436 153.372 67.4137 139.878 76.81 134.558Z" fill="#EAC47C"/>
      <path opacity="0.8571" d="M76.7876 139.868L116.543 117.363C120.782 114.965 125.973 114.954 130.223 117.341L170.392 139.924C179.8 145.21 179.822 158.715 170.425 164.035L130.67 186.54C126.432 188.938 121.241 188.949 116.991 186.563L76.8323 163.979C67.4137 158.682 67.4026 145.177 76.7876 139.868Z" fill="#EAC47C"/>
      <path opacity="0.9048" d="M76.7764 145.177L116.532 122.671C120.772 120.274 125.961 120.263 130.213 122.649L170.381 145.233C179.789 150.519 179.811 164.024 170.415 169.344L130.659 191.849C126.42 194.247 121.229 194.258 116.979 191.871L76.8212 169.288C67.4026 163.991 67.3801 150.496 76.7764 145.177Z" fill="#EAC47C"/>
      <path opacity="0.9524" d="M76.7652 150.485L116.52 127.981C120.76 125.583 125.95 125.571 130.201 127.958L170.369 150.541C179.777 155.827 179.8 169.332 170.404 174.652L130.649 197.157C126.409 199.555 121.218 199.567 116.968 197.18L76.81 174.597C67.3914 169.311 67.369 155.805 76.7652 150.485Z" fill="#EAC47C"/>
      <path opacity="0.45" d="M76.7428 155.794L116.498 133.289C120.737 130.891 125.928 130.88 130.178 133.266L170.348 155.85C179.755 161.136 179.777 174.642 170.381 179.961L130.626 202.467C126.386 204.864 121.196 204.875 116.945 202.489L76.7876 179.905C67.369 174.608 67.3465 161.114 76.7428 155.794Z" fill="#EAC47C"/>
    </g>
    <path opacity="0.35" d="M112.442 223.055L37.4421 179.939C34.6492 178.331 32.3834 174.774 32.3834 171.993V123.426C32.3834 120.646 34.6492 119.691 37.4421 121.299L112.442 164.415C115.234 166.024 117.5 169.58 117.5 172.362V220.927C117.506 223.709 115.241 224.664 112.442 223.055Z" fill="url(#paint4_linear)"/>
    <path d="M114.976 224.154C114.157 224.154 113.232 223.875 112.285 223.333L37.2848 180.217C34.4077 178.565 32.0635 174.873 32.0635 171.992V123.425C32.0635 122.096 32.557 121.074 33.4599 120.561C34.5255 119.946 36.0397 120.114 37.6101 121.019L112.609 164.134C115.487 165.793 117.831 169.479 117.831 172.36V220.926C117.831 222.261 117.337 223.278 116.434 223.797C116.009 224.036 115.515 224.154 114.976 224.154ZM112.604 222.774C113.972 223.562 115.251 223.729 116.104 223.232C116.793 222.836 117.175 222.016 117.175 220.926V172.36C117.175 169.685 114.976 166.245 112.278 164.692L37.2791 121.577C35.9163 120.795 34.6376 120.628 33.7796 121.119C33.0898 121.516 32.7084 122.336 32.7084 123.425V171.992C32.7084 174.667 34.9069 178.107 37.6044 179.659L112.604 222.774Z" fill="white"/>
    <path d="M95.6906 199.794L96.3531 200.18V169.65L95.6906 169.265V199.794Z" fill="white"/>
    <path d="M88.1475 195.461L88.81 195.84V165.312L88.1475 164.932V195.461Z" fill="white"/>
    <path d="M80.6044 191.122L81.2725 191.507V160.979L80.6044 160.598V191.122Z" fill="white"/>
    <path d="M73.0614 186.788L73.7295 187.168V156.645L73.0614 156.259V186.788Z" fill="white"/>
    <path d="M65.5237 182.455L66.1862 182.834V152.306L65.5237 151.925V182.455Z" fill="white"/>
    <path d="M57.9807 178.116L58.6431 178.502V147.973L57.9807 147.587V178.116Z" fill="white"/>
    <path d="M50.4374 173.782L51.1056 174.162V143.633L50.4374 143.253V173.782Z" fill="white"/>
    <path d="M71.2555 165.96C71.2555 167.316 72.3603 169.058 73.7287 169.84C75.0915 170.627 76.2019 170.158 76.2019 168.802C76.2019 167.445 75.0971 165.702 73.7287 164.921C72.3603 164.133 71.2555 164.603 71.2555 165.96Z" fill="#2C3ACF"/>
    <path d="M86.3361 185.928C86.3361 187.285 87.4409 189.028 88.8094 189.809C90.1721 190.597 91.2826 190.128 91.2826 188.77C91.2826 187.413 90.1778 185.672 88.8094 184.889C87.4466 184.102 86.3361 184.566 86.3361 185.928Z" fill="#FBAF1D"/>
    <path d="M55.5074 163.513C55.5074 164.869 56.6122 166.612 57.9806 167.393C59.3435 168.181 60.4539 167.712 60.4539 166.356C60.4539 164.998 59.349 163.256 57.9806 162.474C56.6122 161.687 55.5074 162.15 55.5074 163.513Z" fill="#2C3ACF"/>
    <path d="M48.6316 141.834C48.6316 143.191 49.7365 144.934 51.1049 145.715C52.4677 146.503 53.5781 146.034 53.5781 144.677C53.5781 143.32 52.4733 141.578 51.1049 140.796C49.7365 140.009 48.6316 140.472 48.6316 141.834Z" fill="#FBAF1D"/>
    <path opacity="0.35" d="M136.513 220.849L209.9 178.661C212.633 177.087 214.85 173.606 214.85 170.885V123.363C214.85 120.642 212.633 119.708 209.9 121.281L136.513 163.47C133.781 165.044 131.563 168.524 131.563 171.246V218.767C131.563 221.488 133.775 222.423 136.513 220.849Z" fill="url(#paint5_linear)"/>
    <path d="M134.033 221.924C133.507 221.924 133.018 221.804 132.606 221.568C131.728 221.061 131.24 220.065 131.24 218.76V171.238C131.24 168.419 133.534 164.807 136.349 163.19L209.736 121.001C211.278 120.116 212.754 119.952 213.796 120.553C214.674 121.061 215.162 122.055 215.162 123.356V170.878C215.162 173.697 212.869 177.309 210.054 178.926L136.667 221.114C135.745 221.656 134.834 221.924 134.033 221.924ZM212.369 120.831C211.683 120.831 210.888 121.077 210.054 121.553L136.667 163.742C134.028 165.26 131.877 168.626 131.877 171.243V218.765C131.877 219.831 132.25 220.634 132.925 221.022C133.764 221.508 135.016 221.345 136.349 220.574L136.508 220.847L136.349 220.574L209.736 178.386C212.374 176.866 214.526 173.5 214.526 170.883V123.361C214.526 122.296 214.153 121.493 213.478 121.105C213.165 120.919 212.787 120.831 212.369 120.831Z" fill="white"/>
    <path d="M195.627 166.102L199.392 163.933V145.464L195.627 147.627V166.102Z" fill="#2C3ACF"/>
    <path d="M188.07 170.446L191.841 168.276V160.992L188.07 163.157V170.446Z" fill="#FBAF1D"/>
    <path d="M180.513 174.785L184.285 172.621V161.283L180.513 163.447V174.785Z" fill="#2C3ACF"/>
    <path d="M172.963 179.129L176.728 176.965V158.491L172.963 160.66V179.129Z" fill="#FBAF1D"/>
    <path d="M165.406 183.472L169.172 181.308V157.184L165.406 159.348V183.472Z" fill="#2C3ACF"/>
    <path d="M157.849 187.816L161.621 185.653V167.178L157.849 169.343V187.816Z" fill="#FBAF1D"/>
    <path d="M150.294 192.161L154.064 189.996V177.669L150.294 179.833V192.161Z" fill="#2C3ACF"/>
  </g>
  <defs>
    <filter id="filter0_f" x="65.7096" y="21.3084" width="116.042" height="186.963" filterUnits="userSpaceOnUse" color-interpolation-filters="sRGB">
      <feFlood flood-opacity="0" result="BackgroundImageFix"/>
      <feBlend mode="normal" in="SourceGraphic" in2="BackgroundImageFix" result="shape"/>
      <feGaussianBlur stdDeviation="2" result="effect1_foregroundBlur"/>
    </filter>
    <linearGradient id="paint0_linear" x1="117.077" y1="108.085" x2="33.115" y2="108.085" gradientUnits="userSpaceOnUse">
      <stop stop-color="#9DAEEA"/>
      <stop offset="0.338" stop-color="#8FA2E4"/>
      <stop offset="0.9888" stop-color="#6B82D4"/>
      <stop offset="1" stop-color="#6B82D3"/>
    </linearGradient>
    <linearGradient id="paint1_linear" x1="311.596" y1="93.9143" x2="42.4664" y2="135.139" gradientUnits="userSpaceOnUse">
      <stop stop-color="#9DAEEA"/>
      <stop offset="0.338" stop-color="#8FA2E4"/>
      <stop offset="0.9888" stop-color="#6B7CD4"/>
      <stop offset="1" stop-color="#6B75D3"/>
    </linearGradient>
    <linearGradient id="paint2_linear" x1="123.518" y1="143.093" x2="171.97" y2="143.093" gradientUnits="userSpaceOnUse">
      <stop stop-color="#FAA65A"/>
      <stop offset="1" stop-color="#EE2D70"/>
    </linearGradient>
    <linearGradient id="paint3_linear" x1="75.1829" y1="143.093" x2="123.948" y2="143.093" gradientUnits="userSpaceOnUse">
      <stop stop-color="#FAA65A"/>
      <stop offset="1" stop-color="#EE2D70"/>
    </linearGradient>
    <linearGradient id="paint4_linear" x1="32.3859" y1="172.176" x2="117.503" y2="172.176" gradientUnits="userSpaceOnUse">
      <stop stop-color="#9DAEEA"/>
      <stop offset="0.338" stop-color="#8FA2E4"/>
      <stop offset="0.9888" stop-color="#6B82D4"/>
      <stop offset="1" stop-color="#6B75D3"/>
    </linearGradient>
    <linearGradient id="paint5_linear" x1="131.561" y1="171.064" x2="214.849" y2="171.064" gradientUnits="userSpaceOnUse">
      <stop stop-color="#9DAEEA"/>
      <stop offset="0.338" stop-color="#8F9DE4"/>
      <stop offset="0.9888" stop-color="#6B7CD4"/>
      <stop offset="1" stop-color="#6B82D3"/>
    </linearGradient>
    <clipPath id="clip0">
      <rect width="246" height="242" fill="white"/>
    </clipPath>
  </defs>
</svg>
