<svg width="1646" height="268" viewBox="0 0 1646 268" fill="none"
    xmlns="http://www.w3.org/2000/svg">
    <rect width="1646" height="268" fill="#27319B"/>
    <path d="M919.252 294.23C919.376 299.197 917.496 304.336 913.614 309.647L920.615 316.649L913.294 323.97L906.545 317.222C903.412 319.972 899.963 322.34 896.271 324.275C893.157 325.981 889.799 327.2 886.316 327.889L881.07 314.713C884.493 314.033 887.799 312.855 890.88 311.217C894.065 309.591 896.98 307.484 899.523 304.97C904.16 300.333 905.28 296.817 902.885 294.421C901.621 293.158 900.024 292.883 898.093 293.595C896.162 294.308 893.395 295.791 889.791 298.046C886.48 300.207 883.018 302.129 879.434 303.798C876.458 305.135 873.189 305.69 869.938 305.409C866.586 305.15 863.374 303.484 860.304 300.411C858.553 298.707 857.163 296.667 856.218 294.414C855.274 292.16 854.793 289.739 854.805 287.296C854.74 282.191 856.793 276.963 860.965 271.611L854.026 264.671L861.347 257.35L868.157 264.165C870.622 262.103 873.284 260.287 876.103 258.744C878.664 257.32 881.397 256.23 884.235 255.501L889.786 268.492C883.452 270.295 878.372 273.106 874.544 276.923C872.135 279.333 870.758 281.451 870.413 283.279C870.069 285.107 870.477 286.613 871.637 287.797C872.814 288.974 874.35 289.207 876.243 288.494C878.136 287.781 880.84 286.296 884.354 284.038C887.669 281.857 891.142 279.924 894.742 278.255C897.71 276.939 900.958 276.377 904.196 276.619C907.545 276.839 910.756 278.484 913.831 281.555C915.525 283.206 916.876 285.176 917.807 287.351C918.737 289.527 919.228 291.865 919.252 294.23Z" fill="#2C3ACF" fill-opacity="0.4"/>
    <path d="M1026.67 176.143C1019.69 179.816 1011.05 180.754 1000.76 178.957L995.713 193.853L980.141 188.576L985.005 174.223C978.886 171.704 973.088 168.466 967.734 164.578C962.571 160.792 958.533 156.907 955.621 152.925L970.693 136.181C974.067 140.574 978.068 144.448 982.568 147.679C987.121 151.074 992.172 153.744 997.541 155.594C1007.41 158.933 1013.2 158.053 1014.93 152.956C1015.83 150.271 1015.1 147.804 1012.73 145.557C1010.36 143.309 1006.3 140.414 1000.56 136.873C995.149 133.674 989.973 130.1 985.067 126.174C981.071 122.875 977.984 118.609 976.098 113.783C974.109 108.82 974.223 103.075 976.439 96.5483C977.625 92.8592 979.541 89.4469 982.075 86.5148C984.608 83.5831 987.707 81.1916 991.185 79.4841C998.414 75.7976 1007.3 75.0438 1017.85 77.2226L1022.85 62.4612L1038.42 67.7379L1033.51 82.2257C1038.18 84.2776 1042.64 86.7853 1046.82 89.7123C1050.67 92.3693 1054.16 95.5121 1057.2 99.0628L1042.6 116.101C1035.59 108.343 1028.02 103.086 1019.89 100.333C1014.78 98.612 1010.79 98.1334 1007.93 98.8976C1005.07 99.6617 1003.21 101.302 1002.36 103.818C1001.51 106.321 1002.26 108.668 1004.6 110.861C1006.95 113.053 1010.97 115.859 1016.65 119.277C1023.03 123.145 1028.2 126.715 1032.17 129.985C1036.14 133.287 1039.23 137.516 1041.16 142.299C1043.2 147.228 1043.12 152.957 1040.91 159.487C1039.75 163.067 1037.9 166.382 1035.46 169.24C1033.01 172.099 1030.02 174.445 1026.67 176.143Z" fill="#2C3ACF" fill-opacity="0.4"/>
    <path d="M935.464 10.6491C931.013 15.3336 924.561 18.3303 916.107 19.6381V32.515H902.647V20.1235C897.237 19.7744 891.888 18.7811 886.714 17.165C881.699 15.5851 877.546 13.6334 874.255 11.31L881.55 -5.62516C885.322 -3.10503 889.443 -1.15129 893.782 0.173058C898.205 1.60222 902.822 2.339 907.469 2.35707C915.999 2.35707 920.264 0.152405 920.264 -4.25694C920.264 -6.57674 919.047 -8.29813 916.613 -9.42008C914.18 -10.542 910.271 -11.7213 904.888 -12.9568C899.858 -14.0158 894.91 -15.4305 890.08 -17.1906C886.115 -18.6905 882.6 -21.1786 879.867 -24.419C877.021 -27.7441 875.599 -32.2293 875.603 -37.8742C875.554 -41.047 876.145 -44.197 877.34 -47.1369C878.535 -50.0763 880.309 -52.7456 882.557 -54.9849C887.201 -59.7419 893.897 -62.6676 902.647 -63.7622V-76.541H916.107V-63.9946C920.27 -63.6287 924.386 -62.8522 928.396 -61.6764C932.072 -60.6238 935.598 -59.1038 938.887 -57.1534L932.046 -40.115C924.563 -44.2905 917.307 -46.3779 910.278 -46.3779C905.866 -46.3779 902.647 -45.7016 900.623 -44.3488C898.599 -42.9961 897.591 -41.237 897.598 -39.0721C897.598 -36.9035 898.794 -35.2787 901.186 -34.198C903.578 -33.1174 907.432 -31.997 912.746 -30.8368C917.798 -29.7887 922.766 -28.374 927.611 -26.6031C931.555 -25.0825 935.063 -22.6119 937.823 -19.4108C940.698 -16.1203 942.137 -11.6542 942.14 -6.0124C942.183 -2.93206 941.615 0.126587 940.469 2.98594C939.323 5.84581 937.622 8.45011 935.464 10.6491Z" fill="#2C3ACF" fill-opacity="0.4"/>
    <path d="M1405.4 247.313C1399.88 253.123 1391.87 256.843 1381.38 258.47V274.476H1364.66V259.064C1357.95 258.631 1351.31 257.398 1344.89 255.393C1338.67 253.425 1333.5 250.999 1329.4 248.118L1338.45 227.094C1343.13 230.234 1348.25 232.669 1353.63 234.322C1359.12 236.103 1364.85 237.026 1370.63 237.059C1381.21 237.059 1386.51 234.322 1386.51 228.849C1386.51 225.968 1385 223.832 1381.98 222.442C1378.96 221.052 1374.11 219.587 1367.42 218.048C1361.18 216.733 1355.03 214.977 1349.04 212.792C1344.11 210.924 1339.75 207.826 1336.36 203.793C1332.83 199.662 1331.07 194.095 1331.07 187.09C1331.01 183.151 1331.74 179.241 1333.23 175.592C1334.71 171.942 1336.91 168.629 1339.7 165.849C1345.47 159.949 1353.78 156.335 1364.64 155.006V139.098H1381.35V154.65C1386.52 155.106 1391.63 156.071 1396.61 157.531C1401.17 158.836 1405.54 160.722 1409.63 163.143L1401.13 184.312C1391.84 179.128 1382.83 176.536 1374.11 176.536C1368.63 176.536 1364.64 177.376 1362.13 179.056C1359.62 180.736 1358.37 182.92 1358.37 185.608C1358.37 188.3 1359.85 190.317 1362.83 191.659C1365.8 193.002 1370.58 194.392 1377.17 195.831C1384.6 197.469 1390.76 199.222 1395.63 201.087C1400.54 202.972 1404.9 206.038 1408.33 210.014C1411.9 214.1 1413.69 219.645 1413.69 226.65C1413.74 230.471 1413.04 234.263 1411.61 237.81C1410.19 241.356 1408.08 244.586 1405.4 247.313Z" fill="#2C3ACF" fill-opacity="0.4"/>
    <path d="M1581.01 291.902C1573.9 299.378 1563.59 304.164 1550.09 306.26V326.83H1528.6V307.004C1519.95 306.445 1511.41 304.857 1503.14 302.274C1495.13 299.744 1488.5 296.626 1483.24 292.919L1494.9 265.864C1500.92 269.89 1507.51 273.012 1514.43 275.126C1521.5 277.42 1528.88 278.608 1536.31 278.648C1549.93 278.648 1556.74 275.126 1556.74 268.084C1556.74 264.377 1554.8 261.623 1550.91 259.823C1547.02 258.022 1540.78 256.13 1532.18 254.143C1522.74 252.047 1514.85 249.792 1508.52 247.38C1502.18 244.984 1496.55 241.009 1492.19 235.83C1487.64 230.522 1485.37 223.357 1485.38 214.335C1485.38 203.71 1489.08 194.598 1496.49 187.002C1503.9 179.405 1514.59 174.741 1528.58 173.01V152.631H1550.09V172.648C1556.73 173.237 1563.3 174.478 1569.71 176.355C1575.58 178.034 1581.21 180.464 1586.47 183.584L1575.53 210.825C1563.58 204.154 1551.99 200.817 1540.76 200.813C1533.7 200.813 1528.57 201.896 1525.34 204.061C1522.11 206.226 1520.5 209.037 1520.5 212.492C1520.5 215.952 1522.41 218.545 1526.24 220.273C1530.06 222.001 1536.22 223.793 1544.7 225.648C1554.26 227.751 1562.17 230.006 1568.45 232.412C1574.75 234.841 1580.35 238.788 1584.76 243.9C1589.36 249.156 1591.66 256.291 1591.66 265.306C1591.67 275.56 1588.12 284.425 1581.01 291.902Z" fill="#2C3ACF" fill-opacity="0.4"/>
    <path d="M1587.46 34.3839C1579.22 34.5905 1570.7 31.4755 1561.89 25.0386L1550.28 36.6506L1538.14 24.5068L1549.33 13.2976C1544.77 8.10143 1540.84 2.38168 1537.63 -3.74078C1534.53 -9.68512 1532.55 -15.1926 1531.68 -20.2629L1553.52 -28.9576C1554.65 -23.2833 1556.61 -17.8052 1559.32 -12.6988C1562.02 -7.41694 1565.51 -2.58217 1569.68 1.63406C1577.37 9.32045 1583.2 11.1771 1587.18 7.20511C1589.27 5.11249 1589.72 2.46533 1588.54 -0.735825C1587.36 -3.93697 1584.9 -8.52547 1581.16 -14.5008C1577.58 -19.9768 1574.39 -25.6981 1571.62 -31.6218C1569.41 -36.5567 1568.49 -41.975 1568.95 -47.3643C1569.39 -52.9301 1572.15 -58.2568 1577.24 -63.3442C1580.06 -66.2474 1583.43 -68.5541 1587.16 -70.1268C1590.88 -71.6995 1594.89 -72.5061 1598.93 -72.4985C1607.4 -72.6052 1616.08 -69.2009 1624.94 -62.2858L1636.44 -73.7944L1648.59 -61.6507L1637.29 -50.3537C1640.71 -46.2697 1643.72 -41.8577 1646.28 -37.1825C1648.65 -32.9214 1650.45 -28.3706 1651.66 -23.6447L1630.11 -14.4388C1627.13 -24.951 1622.47 -33.384 1616.13 -39.7383C1612.16 -43.7175 1608.65 -46.0027 1605.61 -46.5949C1602.57 -47.1872 1600.07 -46.5108 1598.12 -44.5658C1596.17 -42.6142 1595.78 -40.0703 1596.96 -36.9347C1598.14 -33.7991 1600.61 -29.3139 1604.35 -23.4795C1608.56 -16.8949 1611.75 -11.1535 1613.94 -6.25523C1616.12 -1.32855 1617.06 4.06126 1616.66 9.43559C1616.29 14.9948 1613.56 20.3195 1608.48 25.4104C1605.74 28.2181 1602.47 30.4568 1598.86 31.997C1595.25 33.5372 1591.38 34.3483 1587.46 34.3839Z" fill="#2C3ACF" fill-opacity="0.4"/>
    <path d="M1242.51 286.697C1239.1 290.305 1234.14 292.609 1227.62 293.611V303.513H1217.26V293.967C1213.1 293.7 1208.99 292.937 1205.01 291.695C1201.6 290.691 1198.37 289.171 1195.43 287.188L1201.04 274.166C1203.94 276.103 1207.11 277.606 1210.44 278.627C1213.85 279.73 1217.4 280.301 1220.97 280.321C1227.51 280.321 1230.78 278.626 1230.78 275.235C1230.78 273.448 1229.85 272.125 1227.98 271.264C1226.11 270.404 1223.1 269.497 1218.96 268.543C1215.09 267.729 1211.29 266.64 1207.57 265.285C1204.52 264.129 1201.82 262.211 1199.72 259.714C1197.53 257.157 1196.44 253.715 1196.44 249.388C1196.4 246.949 1196.86 244.526 1197.78 242.266C1198.7 240.006 1200.06 237.954 1201.79 236.232C1205.38 232.556 1210.53 230.301 1217.26 229.469V219.659H1227.62V229.293C1230.82 229.578 1233.98 230.174 1237.06 231.074C1239.89 231.885 1242.61 233.054 1245.14 234.554L1239.87 247.669C1234.12 244.457 1228.54 242.852 1223.13 242.852C1219.74 242.852 1217.26 243.368 1215.72 244.401C1214.17 245.433 1213.38 246.796 1213.38 248.464C1213.38 250.132 1214.31 251.376 1216.14 252.207C1217.98 253.038 1220.95 253.906 1225.03 254.789C1228.92 255.593 1232.74 256.682 1236.47 258.047C1239.5 259.217 1242.2 261.116 1244.32 263.576C1246.54 266.106 1247.64 269.549 1247.64 273.903C1247.67 276.269 1247.23 278.617 1246.35 280.813C1245.47 283.009 1244.16 285.008 1242.51 286.697Z" fill="#2C3ACF" fill-opacity="0.4"/>
    <path d="M1190.57 143.472C1187.16 147.079 1182.2 149.384 1175.68 150.385V160.288H1165.32V150.742C1161.16 150.475 1157.05 149.712 1153.07 148.47C1149.66 147.466 1146.43 145.946 1143.49 143.962L1149.1 130.941C1152 132.878 1155.17 134.381 1158.51 135.402C1161.91 136.505 1165.46 137.076 1169.03 137.095C1175.57 137.095 1178.84 135.4 1178.84 132.01C1178.84 130.223 1177.91 128.9 1176.04 128.039C1174.17 127.179 1171.17 126.272 1167.02 125.318C1163.16 124.504 1159.35 123.415 1155.63 122.06C1152.58 120.904 1149.88 118.986 1147.78 116.489C1145.59 113.932 1144.5 110.49 1144.5 106.163C1144.47 103.723 1144.92 101.301 1145.84 99.041C1146.76 96.7805 1148.12 94.7287 1149.85 93.0073C1153.44 89.3311 1158.59 87.0764 1165.32 86.2436V76.4336H1175.68V86.068C1178.88 86.3525 1182.04 86.9494 1185.13 87.8493C1187.96 88.6594 1190.67 89.8289 1193.2 91.3293L1187.94 104.444C1182.18 101.232 1176.6 99.6265 1171.2 99.6265C1167.8 99.6265 1165.33 100.143 1163.78 101.175C1162.23 102.208 1161.44 103.571 1161.44 105.239C1161.44 106.907 1162.37 108.151 1164.21 108.982C1166.04 109.813 1169.01 110.681 1173.1 111.564C1176.98 112.368 1180.8 113.457 1184.53 114.822C1187.56 115.992 1190.26 117.891 1192.38 120.351C1194.6 122.881 1195.7 126.324 1195.7 130.678C1195.73 133.043 1195.29 135.392 1194.41 137.588C1193.53 139.783 1192.23 141.783 1190.57 143.472Z" fill="#2C3ACF" fill-opacity="0.4"/>
    <path d="M1333.63 24.6054C1333.82 32.1952 1330.94 40.0483 1325.01 48.1648L1335.72 58.868L1324.52 70.0618L1314.2 59.7354C1309.41 63.9393 1304.14 67.5581 1298.5 70.5161C1293.01 73.3662 1287.94 75.1939 1283.27 75.9994L1275.26 55.8631C1280.48 54.8217 1285.53 53.0197 1290.23 50.5141C1295.11 48.0414 1299.58 44.8258 1303.48 40.9829C1310.57 33.8923 1312.29 28.5154 1308.65 24.8532C1306.72 22.9222 1304.28 22.5024 1301.32 23.5934C1298.37 24.6843 1294.14 26.953 1288.64 30.3984C1283.58 33.693 1278.29 36.6262 1272.81 39.1758C1268.26 41.2188 1263.26 42.0651 1258.29 41.6334C1253.17 41.2343 1248.26 38.6889 1243.57 33.9971C1240.89 31.4001 1238.76 28.2898 1237.31 24.8527C1235.86 21.415 1235.12 17.7208 1235.13 13.9899C1235.03 6.18322 1238.17 -1.80779 1244.54 -9.98261L1233.89 -20.5722L1245.08 -31.766L1255.5 -21.3519C1259.26 -24.4983 1263.33 -27.2652 1267.64 -29.6129C1271.57 -31.7969 1275.76 -33.4646 1280.12 -34.5747L1288.6 -14.7121C1278.91 -11.9585 1271.15 -7.65558 1265.3 -1.80418C1261.63 1.86166 1259.52 5.09741 1258.97 7.90255C1258.41 10.7077 1259.04 13.0089 1260.84 14.8057C1262.64 16.6092 1264.98 16.9654 1267.87 15.8745C1270.76 14.7835 1274.89 12.5132 1280.26 9.06426C1285.33 5.73402 1290.64 2.77967 1296.14 0.224945C1300.68 -1.78662 1305.65 -2.64835 1310.6 -2.28435C1315.72 -1.93997 1320.63 0.57449 1325.33 5.25902C1327.92 7.77915 1329.98 10.7851 1331.41 14.105C1332.83 17.4244 1333.59 20.9932 1333.63 24.6054Z" fill="#2C3ACF" fill-opacity="0.4"/>
    <path d="M1517.39 64.1348L1476.97 104.552" stroke="#2C3ACF" stroke-opacity="0.4" stroke-width="4.64431"/>
    <path d="M1676.16 247.436L1635.75 287.853" stroke="#2C3ACF" stroke-opacity="0.4" stroke-width="4.64431"/>
    <path d="M1302.97 120.791L1262.56 161.203" stroke="#2C3ACF" stroke-opacity="0.4" stroke-width="4.64431"/>
    <path d="M1123.2 179.156L1082.79 219.568" stroke="#2C3ACF" stroke-opacity="0.4" stroke-width="4.64431"/>
    <path d="M998.966 -27.894L1044.57 17.7121" stroke="#2C3ACF" stroke-opacity="0.4" stroke-width="4.64431"/>
    <path d="M877.616 174.682C890.659 174.682 901.233 164.109 901.233 151.066C901.233 138.024 890.659 127.45 877.616 127.45C864.573 127.45 854 138.024 854 151.066C854 164.109 864.573 174.682 877.616 174.682Z" fill="#2C3ACF" fill-opacity="0.4"/>
    <path d="M1428.82 23.557C1441.87 23.557 1452.44 12.9839 1452.44 -0.0592747C1452.44 -13.1019 1441.87 -23.6755 1428.82 -23.6755C1415.78 -23.6755 1405.21 -13.1019 1405.21 -0.0592747C1405.21 12.9839 1415.78 23.557 1428.82 23.557Z" fill="#2C3ACF" fill-opacity="0.4"/>
    <path d="M1641.98 151.061C1655.02 151.061 1665.6 140.488 1665.6 127.445C1665.6 114.402 1655.02 103.829 1641.98 103.829C1628.94 103.829 1618.36 114.402 1618.36 127.445C1618.36 140.488 1628.94 151.061 1641.98 151.061Z" fill="#2C3ACF" fill-opacity="0.4"/>
    <path d="M394.35 312.537C407.393 312.537 417.966 301.963 417.966 288.921C417.966 275.878 407.393 265.304 394.35 265.304C381.307 265.304 370.734 275.878 370.734 288.921C370.734 301.963 381.307 312.537 394.35 312.537Z" fill="#2C3ACF" fill-opacity="0.4"/>
    <path d="M157.996 194.776L197.809 234.589" stroke="#2C3ACF" stroke-opacity="0.4" stroke-width="4.64431"/>
    <path d="M69.2518 217.23C69.3758 222.197 67.4964 227.336 63.6137 232.647L70.6149 239.649L63.2936 246.97L56.5453 240.222C53.4123 242.972 49.9631 245.34 46.2705 247.275C43.1566 248.981 39.7994 250.2 36.316 250.889L31.0702 237.713C34.4935 237.033 37.7986 235.855 40.8802 234.217C44.0652 232.591 46.9805 230.484 49.5233 227.97C54.1598 223.333 55.2803 219.817 52.8845 217.421C51.6213 216.158 50.0242 215.883 48.0931 216.595C46.1621 217.308 43.3947 218.791 39.7908 221.046C36.4795 223.207 33.0183 225.129 29.4335 226.798C26.4576 228.135 23.189 228.69 19.9385 228.409C16.5859 228.15 13.3744 226.484 10.304 223.411C8.55274 221.707 7.16313 219.667 6.21832 217.414C5.27351 215.16 4.7929 212.739 4.80527 210.296C4.73987 205.191 6.79308 199.963 10.9649 194.611L4.02563 187.671L11.347 180.35L18.1572 187.165C20.6224 185.103 23.2838 183.287 26.1033 181.744C28.6641 180.32 31.3971 179.23 34.2352 178.501L39.7856 191.492C33.4521 193.295 28.3716 196.106 24.544 199.923C22.1345 202.333 20.7577 204.451 20.4135 206.279C20.0693 208.107 20.4771 209.613 21.6371 210.797C22.8143 211.974 24.3495 212.207 26.2427 211.494C28.1359 210.781 30.8396 209.296 34.354 207.038C37.6694 204.857 41.1416 202.924 44.7423 201.255C47.7105 199.939 50.958 199.377 54.196 199.619C57.5449 199.839 60.7564 201.484 63.8305 204.555C65.5251 206.206 66.8763 208.176 67.8067 210.351C68.7371 212.527 69.2281 214.865 69.2518 217.23Z" fill="#2C3ACF" fill-opacity="0.4"/>
    <path d="M176.666 99.1435C169.686 102.816 161.05 103.754 150.758 101.957L145.713 116.853L130.141 111.576L135.005 97.2228C128.886 94.7042 123.088 91.4664 117.734 87.578C112.571 83.7919 108.533 79.9071 105.621 75.9248L120.693 59.1807C124.067 63.574 128.068 67.4484 132.568 70.679C137.121 74.0738 142.172 76.7437 147.541 78.5941C157.406 81.9331 163.201 81.0533 164.925 75.9558C165.834 73.2709 165.103 70.8045 162.731 68.557C160.36 66.3094 156.301 63.4145 150.556 59.8725C145.149 56.6745 139.973 53.0995 135.067 49.1745C131.071 45.8747 127.984 41.6094 126.098 36.7829C124.109 31.8196 124.223 26.0745 126.439 19.5483C127.625 15.8592 129.541 12.4469 132.075 9.51476C134.608 6.58312 137.707 4.19155 141.185 2.4841C148.414 -1.20239 157.301 -1.95621 167.848 0.222635L172.846 -14.5388L188.418 -9.26208L183.513 5.22573C188.185 7.27757 192.644 9.78531 196.823 12.7123C200.671 15.3693 204.159 18.5121 207.201 22.0628L192.605 39.1012C185.59 31.3425 178.018 26.0864 169.887 23.3329C164.779 21.612 160.793 21.1334 157.929 21.8976C155.066 22.6617 153.209 24.302 152.358 26.818C151.511 29.3206 152.26 31.6678 154.604 33.8606C156.948 36.0534 160.965 38.8585 166.655 42.2765C173.034 46.1453 178.205 49.7151 182.17 52.9849C186.136 56.2867 189.226 60.5164 191.164 65.299C193.202 70.2283 193.118 75.9573 190.911 82.4872C189.755 86.0668 187.9 89.3815 185.456 92.2403C183.01 95.0992 180.023 97.4453 176.666 99.1435Z" fill="#2C3ACF" fill-opacity="0.4"/>
    <path d="M555.404 170.313C549.88 176.123 541.872 179.843 531.38 181.47V197.476H514.662V182.064C507.948 181.631 501.309 180.398 494.887 178.393C488.667 176.425 483.504 173.999 479.397 171.118L488.454 150.094C493.132 153.234 498.247 155.669 503.633 157.322C509.123 159.103 514.854 160.026 520.625 160.059C531.215 160.059 536.512 157.322 536.507 151.849C536.507 148.968 534.999 146.832 531.979 145.442C528.959 144.052 524.11 142.587 517.424 141.048C511.179 139.733 505.035 137.977 499.038 135.792C494.114 133.924 489.75 130.826 486.363 126.793C482.831 122.662 481.067 117.095 481.07 110.09C481.01 106.151 481.744 102.241 483.226 98.5916C484.71 94.9422 486.912 91.6285 489.703 88.8487C495.465 82.9487 503.776 79.3345 514.636 78.0061V62.0984H531.354V77.6498C536.523 78.1062 541.629 79.0712 546.606 80.5308C551.17 81.8356 555.544 83.7217 559.628 86.1432L551.134 107.312C541.841 102.128 532.831 99.5364 524.11 99.5364C518.634 99.5364 514.641 100.376 512.132 102.056C509.623 103.736 508.368 105.92 508.368 108.608C508.368 111.3 509.855 113.317 512.829 114.659C515.803 116.002 520.584 117.392 527.172 118.831C534.602 120.469 540.756 122.222 545.63 124.087C550.535 125.972 554.898 129.038 558.332 133.014C561.905 137.1 563.691 142.645 563.691 149.65C563.743 153.471 563.035 157.263 561.61 160.81C560.19 164.356 558.079 167.586 555.404 170.313Z" fill="#2C3ACF" fill-opacity="0.4"/>
    <path d="M731.008 214.902C723.898 222.378 713.593 227.164 700.086 229.26V249.83H678.597V230.004C669.954 229.445 661.409 227.857 653.142 225.274C645.134 222.744 638.5 219.626 633.244 215.919L644.897 188.864C650.922 192.89 657.505 196.012 664.434 198.126C671.497 200.42 678.875 201.608 686.305 201.648C699.926 201.648 706.736 198.126 706.741 191.084C706.741 187.377 704.8 184.623 700.912 182.823C697.024 181.022 690.782 179.13 682.18 177.143C672.742 175.047 664.852 172.792 658.517 170.38C652.177 167.984 646.554 164.009 642.186 158.83C637.643 153.522 635.371 146.357 635.376 137.335C635.376 126.71 639.078 117.598 646.487 110.002C653.896 102.405 664.589 97.7408 678.576 96.0096V75.6306H700.086V95.6482C706.731 96.2368 713.303 97.4785 719.706 99.3553C725.581 101.034 731.214 103.464 736.465 106.584L725.53 133.825C713.577 127.154 701.986 123.817 690.756 123.813C683.703 123.813 678.566 124.896 675.339 127.061C672.112 129.226 670.501 132.037 670.496 135.492C670.496 138.952 672.411 141.545 676.237 143.273C680.063 145.001 686.217 146.793 694.701 148.648C704.258 150.751 712.173 153.006 718.451 155.412C724.75 157.841 730.352 161.788 734.761 166.9C739.362 172.156 741.665 179.291 741.665 188.306C741.67 198.56 738.117 207.425 731.008 214.902Z" fill="#2C3ACF" fill-opacity="0.4"/>
    <path d="M392.507 209.697C389.099 213.305 384.137 215.609 377.621 216.611V226.513H367.259V216.967C363.099 216.7 358.986 215.937 355.007 214.695C351.603 213.691 348.373 212.171 345.429 210.188L351.036 197.166C353.938 199.103 357.107 200.606 360.444 201.627C363.845 202.73 367.396 203.301 370.971 203.321C377.511 203.321 380.781 201.626 380.781 198.235C380.781 196.448 379.847 195.125 377.978 194.264C376.109 193.404 373.104 192.497 368.963 191.543C365.094 190.729 361.288 189.64 357.573 188.285C354.523 187.129 351.819 185.211 349.72 182.714C347.531 180.157 346.438 176.715 346.441 172.388C346.404 169.949 346.858 167.526 347.777 165.266C348.696 163.006 350.061 160.954 351.79 159.232C355.377 155.556 360.533 153.301 367.259 152.469V142.659H377.616V152.293C380.816 152.578 383.981 153.174 387.065 154.074C389.894 154.885 392.608 156.054 395.14 157.554L389.874 170.669C384.122 167.457 378.543 165.852 373.135 165.852C369.742 165.852 367.264 166.368 365.715 167.401C364.166 168.433 363.381 169.796 363.381 171.464C363.381 173.132 364.306 174.376 366.144 175.207C367.982 176.038 370.946 176.906 375.035 177.789C378.92 178.593 382.741 179.682 386.466 181.047C389.498 182.217 392.195 184.116 394.319 186.576C396.536 189.106 397.643 192.549 397.639 196.903C397.67 199.269 397.232 201.617 396.351 203.813C395.47 206.009 394.164 208.008 392.507 209.697Z" fill="#2C3ACF" fill-opacity="0.4"/>
    <path d="M340.568 66.472C337.161 70.0795 332.199 72.3838 325.683 73.3854V83.2884H315.32V73.7417C311.16 73.4748 307.047 72.7122 303.068 71.4699C299.664 70.4657 296.434 68.9456 293.491 66.9625L299.098 53.941C301.999 55.8782 305.169 57.3812 308.505 58.402C311.907 59.5053 315.457 60.0764 319.033 60.0955C325.573 60.0955 328.843 58.4004 328.843 55.0098C328.843 53.2233 327.908 51.9 326.039 51.0393C324.17 50.1786 321.165 49.272 317.024 48.3183C313.156 47.5036 309.349 46.4147 305.634 45.0604C302.584 43.9043 299.881 41.9862 297.781 39.4893C295.592 36.932 294.499 33.4897 294.503 29.163C294.465 26.7234 294.92 24.3009 295.839 22.041C296.758 19.7805 298.122 17.7287 299.852 16.0073C303.438 12.3311 308.595 10.0764 315.32 9.24358V-0.566406H325.678V9.06804C328.878 9.35253 332.042 9.94939 335.126 10.8493C337.956 11.6594 340.669 12.8289 343.201 14.3293L337.935 27.4437C332.183 24.2322 326.604 22.6265 321.196 22.6265C317.804 22.6265 315.326 23.1428 313.777 24.1754C312.228 25.2081 311.443 26.5711 311.443 28.2388C311.443 29.9065 312.367 31.1508 314.205 31.9821C316.043 32.8134 319.007 33.6808 323.096 34.5637C326.981 35.3681 330.802 36.457 334.527 37.8216C337.56 38.9916 340.257 40.8906 342.38 43.3514C344.598 45.8813 345.704 49.3236 345.7 53.6777C345.731 56.0434 345.294 58.3916 344.413 60.5875C343.532 62.7834 342.226 64.7831 340.568 66.472Z" fill="#2C3ACF" fill-opacity="0.4"/>
    <path d="M667.388 -12.8652L626.97 27.5519" stroke="#2C3ACF" stroke-opacity="0.4" stroke-width="4.64431"/>
    <path d="M826.165 170.436L785.753 210.853" stroke="#2C3ACF" stroke-opacity="0.4" stroke-width="4.64431"/>
    <path d="M452.967 43.791L412.555 84.203" stroke="#2C3ACF" stroke-opacity="0.4" stroke-width="4.64431"/>
    <path d="M273.203 102.156L232.791 142.568" stroke="#2C3ACF" stroke-opacity="0.4" stroke-width="4.64431"/>
    <path d="M524.022 242.328L563.933 282.24" stroke="#2C3ACF" stroke-opacity="0.4" stroke-width="4.64431"/>
    <path d="M27.6163 97.6825C40.6592 97.6825 51.2325 87.1094 51.2325 74.0662C51.2325 61.0236 40.6592 50.45 27.6163 50.45C14.5734 50.45 4 61.0236 4 74.0662C4 87.1094 14.5734 97.6825 27.6163 97.6825Z" fill="#2C3ACF" fill-opacity="0.4"/>
    <path d="M791.979 74.0611C805.022 74.0611 815.596 63.488 815.596 50.4449C815.596 37.4022 805.022 26.8286 791.979 26.8286C778.937 26.8286 768.363 37.4022 768.363 50.4449C768.363 63.488 778.937 74.0611 791.979 74.0611Z" fill="#2C3ACF" fill-opacity="0.4"/>
</svg>
