<svg width="110" height="141" viewBox="0 0 110 141" fill="none"
    xmlns="http://www.w3.org/2000/svg">
    <path d="M68.5723 95.9799C65.6078 97.9687 62.5682 98.3565 59.6036 96.0674C56.6641 93.8034 56.3889 90.7012 57.5272 86.8986C53.6745 87.7367 50.2097 87.7117 47.9331 84.2843C45.9817 81.3448 46.457 78.4678 48.3834 75.6909C48.621 75.4532 48.8587 75.2281 49.0964 74.9904C50.4723 74.0022 52.0734 73.0391 53.6745 73.3643C56.6016 73.9522 56.0637 72.6013 56.2263 70.5373C56.4389 67.6854 56.1387 66.5221 52.949 66.9849C51.7857 67.1475 50.4473 66.1218 49.1964 65.6339C48.8587 65.2962 48.521 64.9585 48.1832 64.6333C46.4946 61.7938 45.9692 58.9043 48.0206 56.0399C50.2972 52.8627 53.5119 52.5875 57.4646 53.6382C56.464 49.748 56.614 46.3332 60.0289 44.0691C62.9559 42.1428 65.8329 42.6181 68.5848 44.5319C68.8225 44.7696 69.0476 45.0073 69.2853 45.2449C69.8482 46.6334 71.0615 48.1219 70.8488 49.3728C70.286 52.7501 71.8871 52.1372 74.2262 52.3248C77.0406 52.55 77.2783 51.7869 77.2032 49.3853C77.1532 48.0218 78.2289 46.6334 78.7918 45.2449C79.042 44.9947 79.2922 44.7321 79.5424 44.4819C82.4944 42.4055 85.534 42.0552 88.4985 44.3068C91.4506 46.5583 91.8008 49.6354 90.6625 53.413C94.4151 52.7626 97.9175 52.6 100.219 56.0649C102.17 59.0044 101.72 61.8814 99.8689 64.6833C99.5812 64.971 99.2935 65.2462 99.0183 65.5339C97.6173 66.0843 96.1538 67.21 94.8279 67.0599C91.9634 66.7347 92.0009 67.7479 92.0385 70.1746C92.076 72.5262 91.9384 73.652 94.8404 73.3268C96.1663 73.1767 97.6298 74.3149 99.0183 74.8653C99.306 75.153 99.5937 75.4407 99.8939 75.7284C101.87 78.6804 102.258 81.7201 99.994 84.6596C97.7424 87.5741 94.7153 88.0369 90.9002 86.786C91.6757 90.7137 91.5506 94.2912 87.9231 96.5428C85.1337 98.269 82.3818 97.7936 79.73 96.105C79.3672 95.7422 79.017 95.3794 78.6543 95.0292C77.2533 92.9528 76.8905 90.6387 77.2783 88.2245C73.288 87.7742 69.9732 87.8868 70.386 93.1779C70.4361 93.8159 69.7356 94.5039 69.3728 95.1668C69.0976 95.4545 68.835 95.7172 68.5723 95.9799ZM87.6855 83.809C85.3964 82.4205 90.1997 78.055 85.0962 78.03C82.4944 78.0175 81.8814 78.9056 81.9065 81.3198C81.944 86.3858 86.247 81.5949 87.6855 83.809ZM60.6043 83.8715C62.0178 81.9577 67.1088 86.4983 66.2207 80.269C65.5077 75.3156 62.368 79.2183 60.6293 77.9425C61.3423 80.0064 60.5918 81.7326 60.6043 83.8715ZM87.8606 56.7153C81.8189 57.3407 81.969 57.3658 81.7939 58.7667C81.206 63.6326 84.8835 61.9814 87.7355 62.7445C86.8849 60.4804 87.5479 58.6291 87.8606 56.7153ZM60.5543 56.4526C60.892 58.6542 61.1046 60.5429 60.7669 62.6694C62.4305 61.1809 65.7704 64.8584 66.3333 59.9551C67.0212 53.8884 61.9052 58.7042 60.5543 56.4526ZM71.762 69.8494C71.8621 71.1378 70.8864 72.989 73.5257 72.4637C74.8641 72.201 76.5903 73.1516 76.3652 70.3747C76.215 68.4859 76.115 67.7479 73.951 67.8855C72.3249 67.9856 71.1616 67.823 71.762 69.8494Z" fill="#03A353"/>
    <path d="M69.3104 45.2451C69.0727 45.0074 68.8476 44.7697 68.6099 44.5321C68.5724 44.2318 68.6099 43.8941 68.4974 43.6315C66.9588 40.2416 66.9088 37.0394 70.0609 34.5627C72.6252 32.5488 75.5147 32.5363 78.0914 34.5377C81.2561 36.9894 81.2186 40.2041 79.7175 43.5939C79.605 43.8566 79.63 44.1943 79.5925 44.4945C79.3423 44.7447 79.0921 45.0074 78.842 45.2576C75.6523 46.5459 72.4751 46.5209 69.3104 45.2451Z" fill="#03A353"/>
    <path d="M99.894 75.7408C99.6063 75.4531 99.3186 75.1654 99.0184 74.8777C97.68 71.763 97.705 68.6609 99.0184 65.5463C99.3061 65.2586 99.5938 64.9833 99.869 64.6956C100.882 64.3829 101.87 63.9952 102.909 63.795C105.848 63.2321 108.375 63.9451 110.063 66.5594C111.602 68.9486 111.602 71.4628 110.076 73.852C108.4 76.4663 105.861 77.1918 102.921 76.6289C101.895 76.4537 100.907 76.0535 99.894 75.7408Z" fill="#03A353"/>
    <path d="M78.6418 95.0418C79.0045 95.4045 79.3548 95.7673 79.7175 96.1175C79.9176 96.843 80.1178 97.581 80.3054 98.3065C81.131 101.409 80.6307 104.173 77.8788 106.087C75.352 107.838 72.6252 107.801 70.1359 105.987C67.4341 104.01 66.9963 101.234 67.9094 98.1564C68.1221 97.4309 68.3597 96.7054 68.5724 95.9799C68.835 95.7172 69.0977 95.4421 69.3604 95.1794C72.4375 93.8785 75.5396 93.916 78.6418 95.0418Z" fill="#03A353"/>
    <path d="M49.109 74.9904C48.8713 75.228 48.6337 75.4532 48.396 75.6909C44.6809 76.8792 40.9534 77.9424 38.189 73.9397C36.5754 71.613 36.5378 69.0738 38.0764 66.6721C40.7157 62.5818 44.4558 63.4825 48.2084 64.6082C48.5461 64.946 48.8839 65.2837 49.2216 65.6089C50.4349 68.7611 50.3223 71.8882 49.109 74.9904Z" fill="#03A353"/>
    <path d="M110.914 90.4134C110.989 93.8532 107.887 96.9554 104.447 96.8929C101.182 96.8303 98.2679 93.9283 98.2053 90.651C98.1303 87.1987 101.22 84.109 104.672 84.1716C107.924 84.2466 110.839 87.1486 110.914 90.4134Z" fill="#03A353"/>
    <path d="M43.6551 96.8429C40.2528 96.8804 37.1882 93.7657 37.3007 90.3759C37.4008 87.1362 40.3028 84.2842 43.5425 84.2467C46.9449 84.2091 50.0095 87.3238 49.8969 90.7136C49.8093 93.9534 46.8948 96.8053 43.6551 96.8429Z" fill="#03A353"/>
    <path d="M60.0791 100.47C60.2167 103.873 57.1771 107.012 53.7497 107.012C50.51 107.012 47.5704 104.16 47.4328 100.921C47.2952 97.5183 50.3348 94.3787 53.7622 94.3787C57.0144 94.3787 59.954 97.2181 60.0791 100.47Z" fill="#03A353"/>
    <path d="M104.197 56.2399C100.745 56.0272 97.8927 52.7124 98.2429 49.3226C98.5806 46.0453 101.683 43.3685 104.897 43.5686C108.35 43.7813 111.202 47.1086 110.852 50.4859C110.526 53.7632 107.424 56.44 104.197 56.2399Z" fill="#03A353"/>
    <path d="M43.38 43.6064C46.5822 43.4813 49.6218 46.2082 49.8845 49.4605C50.1597 52.8253 47.2452 56.0775 43.8178 56.2151C40.428 56.3527 37.2883 53.3256 37.3008 49.9108C37.3133 46.671 40.1403 43.7315 43.38 43.6064Z" fill="#03A353"/>
    <path d="M100.732 39.7784C100.719 43.2183 97.5548 46.2454 94.1399 46.0828C90.8752 45.9327 88.0482 42.9806 88.0607 39.7159C88.0732 36.276 91.2379 33.2489 94.6527 33.4115C97.9175 33.5616 100.744 36.5262 100.732 39.7784Z" fill="#03A353"/>
    <path d="M53.7872 33.4491C57.2021 33.4616 60.2166 36.6138 60.054 40.0036C59.9039 43.2559 56.9519 46.0703 53.7246 46.0453C50.3098 46.0328 47.2952 42.8806 47.4453 39.4908C47.6079 36.2511 50.56 33.4241 53.7872 33.4491Z" fill="#03A353"/>
    <path d="M100.732 100.62C100.782 104.06 97.6675 107.125 94.2402 107.037C90.9754 106.95 88.0984 104.035 88.0609 100.771C88.0109 97.3307 91.113 94.2661 94.5529 94.3662C97.8176 94.4537 100.682 97.3557 100.732 100.62Z" fill="#03A353"/>
    <path d="M58.0527 110.49C58.5656 106.912 60.592 104.998 64.1945 105.036C67.6343 105.073 70.1485 108 69.7107 111.453C69.2479 115.068 66.9964 116.882 63.4314 116.631C59.7914 116.369 58.1528 114.017 58.0527 110.49Z" fill="#03A353"/>
    <path d="M114.704 86.2856C111.127 85.9729 109.038 84.1091 108.863 80.4816C108.7 77.0293 111.502 74.2774 114.954 74.5275C118.557 74.7902 120.608 76.9042 120.533 80.5066C120.471 84.1341 118.269 85.9854 114.704 86.2856Z" fill="#03A353"/>
    <path d="M39.2771 80.319C39.0019 83.8965 37.1882 86.098 33.5106 86.123C29.8706 86.148 27.7441 84.0966 27.6941 80.4441C27.6566 76.8041 29.7205 74.6901 33.3605 74.6276C37.038 74.5775 38.9269 76.729 39.2771 80.319Z" fill="#03A353"/>
    <path d="M90.1498 110.79C89.8871 114.33 88.0733 116.569 84.4458 116.682C80.8559 116.782 78.7044 114.78 78.3916 111.165C78.0914 107.713 80.8183 104.874 84.2707 104.999C87.8982 105.136 89.787 107.2 90.1498 110.79Z" fill="#03A353"/>
    <path d="M114.617 65.9718C111.027 65.5966 108.975 63.6827 108.863 60.0552C108.763 56.6029 111.615 53.8885 115.067 54.2137C118.669 54.5515 120.671 56.7029 120.546 60.2929C120.408 63.9329 118.157 65.7217 114.617 65.9718Z" fill="#03A353"/>
    <path d="M33.6858 54.2385C37.2633 54.6763 39.3272 56.6527 39.1896 60.2927C39.052 63.9452 36.838 65.9341 33.223 65.809C29.5705 65.6839 27.5941 63.4699 27.7067 59.8424C27.8193 56.1649 30.0959 54.4262 33.6858 54.2385Z" fill="#03A353"/>
    <path d="M69.7982 29.459C69.4104 33.2741 67.5091 35.4256 63.8441 35.3631C60.1916 35.3005 58.1152 33.1615 58.1652 29.509C58.2152 25.8565 60.3667 23.7926 64.0067 23.8176C67.7092 23.8426 69.4605 26.1192 69.7982 29.459Z" fill="#03A353"/>
    <path d="M90.1121 29.6592C89.7744 33.2241 87.8981 35.2881 84.2706 35.4132C80.8057 35.5382 78.1289 32.7488 78.4166 29.2839C78.7043 25.6815 80.8307 23.6926 84.4207 23.7927C88.0482 23.8927 89.8495 26.1067 90.1121 29.6592Z" fill="#03A353"/>
    <path d="M43.7553 116.206C40.5656 115.843 38.4391 114.167 38.3641 110.965C38.3016 107.775 40.303 105.699 43.4802 105.624C46.6699 105.549 48.7463 107.563 48.8213 110.74C48.9214 113.942 46.8324 115.681 43.7553 116.206Z" fill="#03A353"/>
    <path d="M74.1638 126.388C71.0241 126.013 68.8852 124.337 68.8101 121.122C68.7476 117.92 70.774 115.831 73.9511 115.743C77.1534 115.668 79.2423 117.695 79.3298 120.885C79.4299 124.124 77.341 125.875 74.1638 126.388Z" fill="#03A353"/>
    <path d="M28.62 70.1746C28.1071 73.4643 26.3559 75.5158 23.1662 75.4282C20.0015 75.3407 18.0001 73.2767 18.0752 70.0995C18.1502 66.9348 20.2267 64.946 23.4038 65.0085C26.606 65.0711 28.2072 67.2476 28.62 70.1746Z" fill="#03A353"/>
    <path d="M74.0012 14.0859C77.1284 14.4487 79.2548 16.1248 79.3049 19.3271C79.3674 22.5167 77.3535 24.5932 74.1763 24.6557C70.9866 24.7183 68.9227 22.7044 68.8477 19.5272C68.7726 16.325 70.849 14.5863 74.0012 14.0859Z" fill="#03A353"/>
    <path d="M48.9213 29.5091C48.5711 32.6237 46.9074 34.7252 43.7177 34.8002C40.5405 34.8628 38.4766 32.8739 38.4016 29.7092C38.3265 26.5321 40.3279 24.4681 43.4926 24.3931C46.6823 24.3055 48.421 26.3569 48.9213 29.5091Z" fill="#03A353"/>
    <path d="M109.926 110.952C109.4 114.117 107.649 116.206 104.434 116.118C101.245 116.031 99.2183 113.942 99.2934 110.74C99.381 107.55 101.47 105.524 104.672 105.599C107.887 105.661 109.563 107.813 109.926 110.952Z" fill="#03A353"/>
    <path d="M104.472 24.2178C107.612 24.593 109.751 26.2692 109.826 29.4839C109.888 32.6861 107.862 34.775 104.672 34.8501C101.47 34.9252 99.3811 32.8863 99.3061 29.6966C99.206 26.4818 101.295 24.7306 104.472 24.2178Z" fill="#03A353"/>
    <path d="M33.398 95.3669C36.6878 95.8673 38.7392 97.6185 38.6517 100.808C38.5766 103.973 36.5127 105.974 33.3355 105.912C30.1708 105.837 28.182 103.773 28.232 100.596C28.2945 97.3808 30.4585 95.7797 33.398 95.3669Z" fill="#03A353"/>
    <path d="M114.792 45.1197C111.652 44.7445 109.513 43.0558 109.451 39.8411C109.388 36.6389 111.414 34.55 114.617 34.4749C117.819 34.3999 119.895 36.4388 119.983 39.6284C120.058 42.8682 117.956 44.6194 114.792 45.1197Z" fill="#03A353"/>
    <path d="M38.7644 39.5908C38.4016 42.7805 36.738 44.8945 33.5483 44.957C30.3711 45.0195 28.3072 43.0182 28.2321 39.8535C28.1571 36.6763 30.1584 34.6249 33.3231 34.5373C36.5378 34.4498 38.2515 36.5387 38.7644 39.5908Z" fill="#03A353"/>
    <path d="M120.108 100.808C119.595 103.923 117.881 105.862 114.692 106.012C111.802 106.162 109 103.16 109.388 100.32C109.826 97.2056 111.777 95.2293 114.954 95.3919C118.119 95.567 119.77 97.6935 120.108 100.808Z" fill="#03A353"/>
    <path d="M23.0909 95.3795C20.0263 95.0293 18.3502 93.3281 18.5253 90.2385C18.7004 87.1114 20.6517 85.5728 23.7038 85.7729C26.5808 85.9606 28.1194 87.7493 28.0569 90.6138C28.0068 93.7534 26.143 95.2294 23.0909 95.3795Z" fill="#03A353"/>
    <path d="M94.3901 14.5737C97.4672 14.8114 99.2559 16.4125 99.1934 19.5397C99.1183 22.6793 97.2671 24.3179 94.1775 24.2304C91.288 24.1428 89.6493 22.4417 89.5993 19.5522C89.5493 16.4125 91.313 14.8114 94.3901 14.5737Z" fill="#03A353"/>
    <path d="M23.6038 54.7513C20.3516 54.5637 18.5128 53.0376 18.5128 49.9105C18.5253 46.7958 20.289 45.0947 23.3912 45.1322C26.2682 45.1572 27.9318 46.7958 28.0569 49.6728C28.1945 52.8125 26.4308 54.3886 23.6038 54.7513Z" fill="#03A353"/>
    <path d="M99.3061 121.009C98.9433 124.312 97.2046 126 94.1025 125.825C90.9503 125.65 89.3868 123.661 89.5869 120.584C89.7745 117.682 91.5883 116.131 94.4778 116.169C97.6675 116.231 99.0809 118.17 99.3061 121.009Z" fill="#03A353"/>
    <path d="M53.9247 125.888C50.635 125.613 48.8713 123.974 48.9713 120.847C49.0714 117.707 50.9477 116.094 54.0373 116.206C56.9268 116.319 58.5279 118.045 58.5654 120.934C58.6155 124.124 56.7392 125.6 53.9247 125.888Z" fill="#03A353"/>
    <path d="M58.603 19.6272C58.2527 22.6918 56.5515 24.3679 53.4619 24.1928C50.3347 24.0177 48.7962 22.0664 48.9963 19.0143C49.1839 16.1373 50.9727 14.5987 53.8372 14.6613C56.9768 14.7113 58.4529 16.5751 58.603 19.6272Z" fill="#03A353"/>
    <path d="M13.1467 84.6345C10.5574 84.3718 8.89375 82.9333 8.95629 80.244C9.00633 77.7923 10.5949 76.2162 13.0591 76.2037C15.736 76.1912 17.3746 77.8423 17.3246 80.5317C17.262 82.9708 15.6609 84.3343 13.1467 84.6345Z" fill="#03A353"/>
    <path d="M84.108 4.97974C86.4722 5.14235 88.1984 6.35569 88.436 8.83239C88.6862 11.5468 87.1226 13.3355 84.4583 13.4856C81.7689 13.6357 80.0553 11.9596 80.0177 9.2702C79.9802 6.7935 81.5688 5.38001 84.108 4.97974Z" fill="#03A353"/>
    <path d="M13.0091 55.8145C15.3482 55.9646 17.0494 57.1529 17.287 59.6171C17.5372 62.3064 15.9986 64.0826 13.3468 64.2327C10.6825 64.3703 8.98131 62.7442 8.94378 60.0549C8.91876 57.5907 10.4698 56.1897 13.0091 55.8145Z" fill="#03A353"/>
    <path d="M68.2722 131.079C68.0095 133.643 66.6211 135.42 63.9692 135.432C61.3299 135.445 59.6663 133.756 59.6663 131.104C59.6663 128.665 61.2674 127.051 63.669 126.914C66.3209 126.764 67.8219 128.415 68.2722 131.079Z" fill="#03A353"/>
    <path d="M68.2095 9.19491C68.0219 11.5966 66.746 13.2852 64.2818 13.4729C61.5799 13.673 59.7912 12.0844 59.7036 9.40758C59.6036 6.71822 61.3048 5.02955 64.0066 5.04206C66.4708 5.06708 67.8593 6.68068 68.2095 9.19491Z" fill="#03A353"/>
    <path d="M84.2455 135.52C81.6437 135.182 79.905 133.743 79.9676 131.079C80.0301 128.44 81.7813 126.814 84.4332 126.901C86.8473 126.989 88.4484 128.602 88.4985 131.029C88.561 133.706 86.8724 135.144 84.2455 135.52Z" fill="#03A353"/>
    <path d="M37.2634 19.5145C37.0382 21.8161 35.8249 23.2046 33.4733 23.1921C30.884 23.1795 29.533 21.6535 29.6956 19.1267C29.8332 16.8001 31.3218 15.5743 33.6484 15.6744C36 15.7744 37.1258 17.2129 37.2634 19.5145Z" fill="#03A353"/>
    <path d="M23.4287 107.012C25.7428 107.262 27.1062 108.501 27.0687 110.877C27.0187 113.492 25.4676 114.818 22.9159 114.63C20.5643 114.467 19.3634 112.941 19.4885 110.602C19.6386 108.226 21.1021 107.112 23.4287 107.012Z" fill="#03A353"/>
    <path d="M108.175 9.14498C107.987 11.2464 106.886 12.6974 104.785 12.81C102.446 12.9351 100.982 11.5091 101.007 9.17C101.032 7.06856 102.421 5.74263 104.535 5.71761C106.674 5.7051 107.812 7.09357 108.175 9.14498Z" fill="#03A353"/>
    <path d="M47.1951 9.28251C46.8949 11.3339 45.7817 12.7724 43.6927 12.7849C41.3911 12.7974 39.9527 11.3339 40.0902 9.03234C40.2153 6.99343 41.6163 5.66751 43.7303 5.75507C45.8317 5.84263 46.9199 7.2436 47.1951 9.28251Z" fill="#03A353"/>
    <path d="M33.4356 117.169C35.7622 117.332 37.2007 118.508 37.2383 120.884C37.2758 123.474 35.8123 124.887 33.2355 124.787C30.8714 124.7 29.608 123.249 29.658 120.909C29.7081 118.533 31.109 117.357 33.4356 117.169Z" fill="#03A353"/>
    <path d="M12.859 97.0806C15.0981 97.3307 16.549 98.419 16.6366 100.495C16.7367 102.797 15.2982 104.261 12.9966 104.21C10.9327 104.173 9.61928 102.772 9.60677 100.683C9.59426 98.5441 11.0703 97.5184 12.859 97.0806Z" fill="#03A353"/>
    <path d="M23.4288 33.4368C20.8895 33.1616 19.5011 31.9608 19.5261 29.6092C19.5511 27.0199 21.0772 25.6815 23.6164 25.8441C25.943 25.9942 27.1564 27.4827 27.0563 29.8093C26.9562 32.1859 25.4302 33.2116 23.4288 33.4368Z" fill="#03A353"/>
    <path d="M47.2326 131.317C46.8574 133.368 45.7066 134.744 43.5801 134.719C41.4662 134.694 40.0902 133.356 40.0777 131.254C40.0652 128.915 41.5412 127.501 43.8678 127.639C45.9443 127.752 47.045 129.215 47.2326 131.317Z" fill="#03A353"/>
    <path d="M104.309 127.477C106.749 127.827 108.212 129.015 108.125 131.342C108.037 133.406 106.686 134.744 104.597 134.732C102.295 134.719 100.92 133.293 100.97 130.979C101.032 128.89 102.533 127.889 104.309 127.477Z" fill="#03A353"/>
    <path d="M16.6991 39.8413C16.3113 41.9177 15.148 43.3187 13.0091 43.2186C10.9076 43.131 9.56918 41.7301 9.64424 39.6161C9.7318 37.5147 11.1203 36.1762 13.2467 36.2513C15.3607 36.3389 16.4615 37.7773 16.6991 39.8413Z" fill="#03A353"/>
    <path d="M97.1796 140.973C97.1045 142.837 96.3039 143.913 94.7278 144.063C92.9266 144.238 91.7383 143.287 91.6758 141.436C91.6132 139.597 92.7015 138.572 94.5277 138.597C96.1664 138.622 96.9044 139.722 97.1796 140.973Z" fill="#03A353"/>
    <path d="M70.9615 141.386C71.2492 139.197 72.4001 138.121 74.3514 138.284C76.3403 138.446 77.3159 139.797 77.1158 141.724C76.9407 143.437 75.7899 144.438 74.0137 144.388C72.0123 144.338 71.1242 143.075 70.9615 141.386Z" fill="#03A353"/>
    <path d="M56.5266 141.311C56.3264 143.037 55.4133 144.113 53.5996 144.038C52.036 143.963 51.0603 142.962 51.0603 141.399C51.0603 139.61 52.136 138.572 53.9247 138.634C55.5008 138.684 56.3139 139.735 56.5266 141.311Z" fill="#03A353"/>
    <path d="M56.4891 -0.86197C56.2764 0.701607 55.4383 1.76484 53.8497 1.77735C52.036 1.78986 50.9602 0.664079 51.1103 -1.13716C51.2354 -2.67572 52.2987 -3.65138 53.9123 -3.55132C55.4884 -3.46376 56.3014 -2.42555 56.4891 -0.86197Z" fill="#03A353"/>
    <path d="M77.1283 -0.874438C76.8782 1.32708 75.6523 2.30275 73.6885 2.11512C71.9122 1.94 70.9616 0.739168 71.0742 -1.03706C71.1992 -3.10098 72.5127 -4.05163 74.4765 -3.864C76.2652 -3.71389 77.0658 -2.47554 77.1283 -0.874438Z" fill="#03A353"/>
    <path d="M97.192 -0.986933C96.8667 0.964412 95.8536 2.00263 94.0773 1.815C92.5638 1.65239 91.5881 0.601674 91.7007 -0.974412C91.8133 -2.76314 92.9515 -3.73882 94.7278 -3.57621C96.2788 -3.43861 96.9918 -2.28783 97.192 -0.986933Z" fill="#03A353"/>
    <path d="M5.69155 49.898C5.50392 51.4616 4.66586 52.5373 3.08977 52.5623C1.27602 52.5998 0.200279 51.4866 0.312857 49.6728C0.412926 48.1217 1.47615 47.1586 3.07725 47.2211C4.67835 47.3087 5.49141 48.3469 5.69155 49.898Z" fill="#03A353"/>
    <path d="M5.9667 70.237C5.84161 72.1508 4.8034 73.264 2.80202 73.189C1.0258 73.1264 0.0126106 72.0632 0.000102019 70.287C-0.0124066 68.2731 1.12588 67.1974 3.12726 67.2599C4.91599 67.3099 5.8291 68.3982 5.9667 70.237Z" fill="#03A353"/>
    <path d="M5.69151 90.6135C5.45384 92.1645 4.60328 93.2278 3.01468 93.2028C1.20093 93.1777 0.137696 92.0395 0.312817 90.2382C0.46292 88.7122 1.55116 87.7365 3.15226 87.8616C4.72835 87.9867 5.55391 89.0374 5.69151 90.6135Z" fill="#03A353"/>
</svg>
