<svg width="118" height="141" viewBox="0 0 118 141" fill="none"
    xmlns="http://www.w3.org/2000/svg">
    <path d="M70.52 -21L140.64 49.12C121.28 68.48 89.88 68.48 70.52 49.12C51.16 29.76 51.16 -1.63 70.52 -21Z" fill="#ECA00E"/>
    <path d="M29.3055 67.2935L16.9195 21.0684C29.6822 17.6487 42.8053 25.2253 46.2251 37.988C49.6448 50.7506 42.0706 63.8696 29.3055 67.2935Z" fill="#ECA00E"/>
    <path d="M24.7361 91.9073L63.8566 79.2131C67.3614 90.0142 61.4445 101.616 50.6434 105.12C39.8423 108.625 28.2446 102.71 24.7361 91.9073Z" fill="#ECA00E"/>
    <path d="M143.922 106.055L78.3404 130.687C71.5395 112.58 80.7081 92.381 98.8149 85.5802C116.922 78.7793 137.114 87.945 143.922 106.055Z" fill="#ECA00E"/>
</svg>
