<svg width="1920" height="236" viewBox="0 0 1920 236" fill="none" xmlns="http://www.w3.org/2000/svg">
  <path d="M1919.87 -0.000488281V214H1839.88C1759.88 214 1599.9 214 1439.91 187.399C1386.58 178.533 1333.25 166.711 1279.92 154.888L1279.89 154.883C1260.9 150.673 1241.91 146.462 1222.91 142.386C1176.32 150.622 1129.72 159.976 1083.13 169.999C1063.21 174.285 1043.28 178.693 1023.36 183.102C903.826 209.551 784.291 236 664.756 236C525.299 236 385.841 199.999 246.383 163.999L-0.000488281 100.397V-0.000488281C629.959 -0.000289917 1384.41 -0.000198364 1919.87 -0.000488281Z" fill="#FDF6EA"/>
  <path d="M1920 -0.000854492V213.999H1840C1760.01 213.999 1600.02 213.999 1440.03 187.399C1386.7 178.533 1333.37 166.71 1280.04 154.888C1173.38 131.244 1066.72 107.599 960.062 107.599C886.221 107.599 812.38 118.932 738.539 130.264C652.39 143.486 566.242 156.707 480.093 151.933C320.104 143.066 160.114 72.1325 80.1195 36.6658L4.49971 2.49951L0 -0.000488281C627.959 -0.000488281 1119.05 -0.000518799 1920 -0.000854492Z" fill="#FBAF1D"/>
</svg>
